<svg width="967" height="171" viewBox="0 0 967 171" fill="none" xmlns="http://www.w3.org/2000/svg">
<path d="M881.558 82.7614H888.93V103.2C888.93 111.242 894.961 114.928 899.987 114.928C901.997 114.928 904.343 114.593 907.693 112.582L905.348 106.886C905.348 106.886 903.338 108.561 900.992 108.561C897.306 108.561 895.631 106.551 895.631 102.865V82.7614H907.358V76.7302H895.631V65.338H888.93V76.7302H881.558V82.7614ZM856.763 75.725C848.722 75.725 845.706 82.7614 845.706 82.7614C845.706 82.7614 843.361 75.725 833.979 75.725C826.272 75.725 823.592 82.0913 823.592 82.0913V76.7302H817.561V113.923H824.262V88.1225C824.262 88.1225 826.607 82.0913 832.304 82.0913C836.995 82.0913 840.345 85.1069 840.345 91.1381V113.923H847.047V88.1225C847.047 88.1225 849.392 82.0913 855.088 82.0913C859.779 82.0913 863.13 85.1069 863.13 91.1381V113.923H869.831V90.1329C869.831 80.751 864.47 75.725 856.763 75.725ZM785.059 108.897C781.039 108.897 776.683 106.886 776.683 102.195C776.683 98.1744 780.368 95.4939 786.065 95.4939C792.096 95.4939 795.781 98.1744 795.781 98.1744V103.535C795.781 103.2 791.761 108.897 785.059 108.897ZM786.4 75.725C778.358 75.725 772.327 79.4108 772.327 79.4108L775.007 85.1069C775.007 85.1069 780.368 82.0913 786.065 82.0913C789.08 82.0913 795.446 83.0965 795.446 90.803V92.8134C795.446 92.8134 791.091 89.7978 784.389 89.7978C776.013 89.7978 769.646 94.8238 769.646 102.195C769.646 110.237 776.683 114.928 783.384 114.928C791.761 114.928 796.117 108.561 796.117 108.561V113.923H802.148V89.4627C802.483 82.4264 797.122 75.725 786.4 75.725ZM756.914 75.725C749.877 75.725 746.527 82.4264 746.527 82.4264V76.7302H740.496V113.923H747.197V88.4575C747.197 88.4575 749.877 82.0913 755.574 82.0913C758.254 82.0913 759.929 82.7614 759.929 82.7614L762.275 76.7302C762.275 76.7302 759.929 75.725 756.914 75.725ZM697.942 92.1433C698.277 88.1225 701.628 82.0913 709.67 82.0913C717.041 82.0913 721.062 88.1225 721.062 92.1433H697.942ZM709.67 75.725C698.612 75.725 691.241 84.4367 691.241 95.1589C691.241 106.216 699.282 114.593 710.675 114.593C720.392 114.593 726.088 107.221 726.088 107.221L721.732 102.865C721.732 102.865 717.711 108.226 710.675 108.226C703.638 108.226 698.277 102.865 697.942 97.5043H728.098C728.098 96.4991 728.098 96.1641 728.098 95.4939C727.763 83.4315 720.057 75.725 709.67 75.725ZM670.467 113.923H677.168V52.9406H670.467V113.923ZM624.898 76.7302V83.0965H645.002L623.558 113.923H655.724V107.556H635.285L656.729 76.7302H624.898V76.7302ZM597.087 75.725C589.046 75.725 585.695 81.7562 585.695 81.7562V76.3952H579.664V113.923H586.365V88.4575C586.365 88.4575 589.716 82.0913 595.747 82.0913C600.773 82.0913 604.794 84.7718 604.794 91.1381V113.923H611.495V90.1329C611.16 80.751 604.794 75.725 597.087 75.725ZM547.163 108.897C543.142 108.897 538.786 106.886 538.786 102.195C538.786 98.1744 542.472 95.4939 548.168 95.4939C554.199 95.4939 557.885 98.1744 557.885 98.1744V103.535C557.55 103.2 553.529 108.897 547.163 108.897ZM548.168 75.725C540.126 75.725 534.095 79.4108 534.095 79.4108L536.775 85.1069C536.775 85.1069 542.137 82.0913 547.833 82.0913C550.848 82.0913 557.215 83.0965 557.215 90.803V92.8134C557.215 92.8134 552.859 89.7978 546.157 89.7978C537.781 89.7978 531.414 94.8238 531.414 102.195C531.414 110.237 538.451 114.928 545.152 114.928C553.529 114.928 557.885 108.561 557.885 108.561V113.923H563.916V89.4627C564.586 82.4264 559.225 75.725 548.168 75.725ZM514.326 113.923H523.708L504.944 94.1537L522.368 76.7302H513.656L497.573 93.1485V52.9406H490.871V113.923H497.573V95.829L514.326 113.923ZM445.638 107.221C445.638 107.221 450.999 114.928 461.721 114.928C468.757 114.928 476.464 111.242 476.464 104.206C476.464 96.4991 470.432 94.1537 463.396 92.4783C457.365 91.1381 454.349 89.7978 454.349 86.7822C454.349 84.4367 456.695 82.0913 461.386 82.0913C467.082 82.0913 470.768 86.1121 470.768 86.1121L475.123 81.4211C475.123 81.4211 470.097 75.725 461.386 75.725C453.009 75.725 447.648 81.0861 447.648 86.4471C447.648 93.4835 453.344 96.4991 461.386 98.1744C467.082 99.1796 469.762 100.855 469.762 104.206C469.762 107.221 465.406 108.897 461.721 108.897C454.349 108.897 450.328 102.865 450.328 102.865L445.638 107.221ZM405.765 92.1433C406.1 88.1225 409.45 82.0913 417.492 82.0913C424.863 82.0913 428.884 88.1225 428.884 92.1433H405.765ZM417.492 75.725C406.435 75.725 399.063 84.4367 399.063 95.1589C399.063 106.216 407.105 114.593 418.497 114.593C428.214 114.593 433.91 107.221 433.91 107.221L429.554 102.865C429.554 102.865 425.534 108.226 418.497 108.226C411.461 108.226 406.1 102.865 405.765 97.5043H435.921C435.921 96.4991 435.921 96.1641 435.921 95.4939C435.586 83.4315 427.879 75.725 417.492 75.725ZM377.954 102.195C377.954 102.195 374.269 108.561 366.897 108.561C359.191 108.561 354.5 102.53 354.5 95.1589C354.5 87.7874 359.526 81.7562 366.897 81.7562C374.269 81.7562 377.954 88.1225 377.954 88.1225V102.195ZM366.227 75.725C356.175 75.725 348.133 84.4367 348.133 95.1589C348.133 105.881 356.175 114.593 366.227 114.593C375.274 114.593 378.624 108.226 378.624 108.226V113.923H384.656V52.9406H377.954V81.0861C377.954 81.4212 374.269 75.725 366.227 75.725ZM321.663 75.725C313.622 75.725 310.271 81.7562 310.271 81.7562V76.3952H303.905V113.923H310.606V88.4575C310.606 88.4575 313.957 82.0913 319.988 82.0913C325.014 82.0913 329.035 84.7718 329.035 91.1381V113.923H335.736V90.1329C335.401 80.751 329.035 75.725 321.663 75.725ZM271.068 114.928C279.11 114.928 282.46 108.226 282.46 108.226V113.923H288.827V76.7302H282.125V102.53C282.125 102.53 279.11 108.561 272.744 108.561C267.718 108.561 263.697 105.881 263.697 99.5147V76.7302H256.995V100.52C256.995 109.902 263.697 114.928 271.068 114.928ZM215.112 81.7562V63.9977H224.494C230.86 63.9977 234.546 67.3484 234.546 73.0445C234.546 78.7406 230.525 82.0913 224.494 82.0913H215.112V81.7562ZM226.169 107.556H215.447V88.1225H226.169C234.211 88.1225 237.897 92.4783 237.897 97.8394C237.897 103.2 234.211 107.556 226.169 107.556ZM208.411 113.923H226.169C237.227 113.923 244.598 107.556 244.598 97.8394C244.598 86.7822 235.886 84.1017 235.216 84.1017C235.886 84.1017 241.582 80.751 241.582 73.0445C241.582 63.6627 235.216 57.6315 223.489 57.6315H208.746V113.923H208.411Z" fill="black"/>
<path d="M144.748 76.0599V56.9612H56.9612L66.008 76.0599H144.748Z" fill="#E6320F"/>
<path d="M83.4314 113.922H144.748V94.8237H74.7197L83.4314 113.922Z" fill="#E6320F"/>
</svg>
