<svg width="940" height="176" viewBox="0 0 940 176" fill="none" xmlns="http://www.w3.org/2000/svg">
<g clip-path="url(#clip0_21:1072)">
<path d="M703.583 146.24H699.127L695.119 160.844L690.332 146.24H687.102L682.275 160.844L678.27 146.24H673.851L680.272 166.98H683.873L688.697 152.497L693.564 166.98H697.121L703.583 146.24Z" fill="#231F20"/>
<path d="M734.519 146.24H730.06L726.051 160.844L721.264 146.24H718.038L713.208 160.844L709.2 146.24H704.783L711.205 166.98H714.805L719.63 152.497L724.497 166.98H728.054L734.519 146.24Z" fill="#231F20"/>
<path d="M765.452 146.24H760.993L756.984 160.844L752.2 146.24H748.971L744.144 160.844L740.135 146.24H735.719L742.138 166.98H745.738L750.563 152.497L755.43 166.98H758.987L765.452 146.24Z" fill="#231F20"/>
<path d="M774.502 161.987H769.513V166.979H774.502V161.987Z" fill="#231F20"/>
<path fill-rule="evenodd" clip-rule="evenodd" d="M798.156 166.979V146.239H793.982V158.877C793.982 162.069 792.022 163.501 789.689 163.501C787.358 163.501 785.515 162.109 785.515 158.877V146.239H781.344V159.49C781.344 161.824 781.835 163.787 783.432 165.341C784.659 166.528 786.416 167.224 788.545 167.224C790.627 167.224 792.633 166.443 794.062 164.891V166.979H798.156Z" fill="#231F20"/>
<path d="M814.284 149.8V146.608H810.153V143.627C810.153 142.112 810.889 141.208 812.441 141.208H814.284V137.653H811.665C807.783 137.653 805.98 140.434 805.98 143.421V146.608H803.609V149.8H805.98V166.977H810.153V149.8H814.284Z" fill="#231F20"/>
<path fill-rule="evenodd" clip-rule="evenodd" d="M830.939 156.22C830.939 159.489 830.491 162.721 826.725 162.721C822.965 162.721 822.474 159.489 822.474 156.22C822.474 152.95 822.965 149.718 826.725 149.718C830.491 149.718 830.939 152.95 830.939 156.22ZM835.112 166.858V146.24H831.064V148.451C829.509 146.568 827.829 145.995 825.624 145.995C823.535 145.995 821.778 146.651 820.634 147.795C818.631 149.801 818.3 152.705 818.3 156.22C818.3 159.734 818.631 162.644 820.634 164.644C821.778 165.791 823.498 166.49 825.581 166.49C827.709 166.49 829.427 165.914 830.939 164.116V166.772C830.939 169.554 829.589 172.05 826.072 172.05C824.029 172.05 822.882 171.437 821.576 170.21L818.917 172.869C821.082 174.869 823.085 175.605 826.237 175.605C831.757 175.605 835.112 171.927 835.112 166.858Z" fill="#231F20"/>
<path d="M847.147 161.987H842.157V166.979H847.147V161.987Z" fill="#231F20"/>
<path fill-rule="evenodd" clip-rule="evenodd" d="M865.279 159.49C865.279 160.968 864.991 161.947 864.38 162.56C863.273 163.624 862.089 163.747 860.492 163.747C857.876 163.747 856.689 162.683 856.689 160.8C856.689 158.923 857.958 157.819 860.412 157.819H865.279V159.49ZM869.45 166.979V153.111C869.45 148.407 866.588 145.996 860.903 145.996C857.465 145.996 855.422 146.692 853.457 148.98L856.198 151.557C857.345 150.084 858.446 149.557 860.737 149.557C863.969 149.557 865.279 150.821 865.279 153.439V154.911H859.798C855.054 154.911 852.638 157.408 852.638 160.882C852.638 162.643 853.214 164.237 854.275 165.341C855.545 166.611 857.262 167.224 859.838 167.224C862.415 167.224 863.847 166.611 865.359 165.096V166.979H869.45Z" fill="#231F20"/>
<path d="M891.422 164.276L888.561 161.535C887.252 162.967 886.23 163.503 884.593 163.503C882.998 163.503 881.649 162.844 880.75 161.657C879.846 160.516 879.52 158.999 879.52 156.588C879.52 154.174 879.846 152.702 880.75 151.555C881.649 150.374 882.998 149.715 884.593 149.715C886.23 149.715 887.252 150.252 888.561 151.684L891.422 148.897C889.46 146.814 887.454 145.995 884.593 145.995C879.931 145.995 875.35 148.82 875.35 156.588C875.35 164.359 879.931 167.223 884.593 167.223C887.454 167.223 889.46 166.365 891.422 164.276Z" fill="#231F20"/>
<path d="M901.662 161.987H896.672V166.979H901.662V161.987Z" fill="#231F20"/>
<path fill-rule="evenodd" clip-rule="evenodd" d="M919.792 159.49C919.792 160.968 919.504 161.947 918.893 162.56C917.787 163.624 916.603 163.747 915.005 163.747C912.389 163.747 911.202 162.683 911.202 160.8C911.202 158.923 912.472 157.819 914.922 157.819H919.792V159.49ZM923.963 166.979V153.111C923.963 148.407 921.099 145.996 915.416 145.996C911.978 145.996 909.936 146.692 907.97 148.98L910.711 151.557C911.858 150.084 912.96 149.557 915.25 149.557C918.483 149.557 919.792 150.821 919.792 153.439V154.911H914.312C909.567 154.911 907.154 157.408 907.154 160.882C907.154 162.643 907.727 164.237 908.789 165.341C910.058 166.611 911.773 167.224 914.352 167.224C916.928 167.224 918.36 166.611 919.872 165.096V166.979H923.963Z" fill="#231F20"/>
<path d="M939.597 166.979V163.419H937.877C936.325 163.419 935.589 162.52 935.589 161.005V149.802H939.597V146.607H935.589V140.31H931.418V146.607H929.045V149.802H931.418V161.213C931.418 164.197 933.218 166.979 937.101 166.979H939.597Z" fill="#231F20"/>
<path d="M2.01471 69.5154H11.9112V55.351L19.6738 46.5186L32.7712 69.5154H45.1897L25.8845 39.5348L42.8617 20.3238H31.0253L12.1052 43.4176H11.9112V0.433769H2.01471V69.5154Z" fill="#231F20"/>
<path d="M52.3295 53.0211C52.3295 64.1786 61.0649 70.0983 68.8246 70.0983C73.9654 70.0983 78.4301 68.1583 81.534 64.2756H81.728V69.5163H91.6245V20.3247H81.728V49.6263C81.728 56.319 77.5572 60.2017 72.0255 60.2017C66.3997 60.2017 62.226 56.319 62.226 49.6263V20.3247H52.3295V53.0211Z" fill="#231F20"/>
<path d="M104.415 69.5154H114.311V40.2138C114.311 33.5182 118.485 29.6383 124.111 29.6383C129.642 29.6383 133.813 33.5182 133.813 40.2138V69.5154H143.71V36.8189C143.71 25.6586 134.977 19.7418 127.312 19.7418C122.074 19.7418 117.609 21.6818 114.505 25.5616H114.311V20.3238H104.415V69.5154Z" fill="#231F20"/>
<path d="M151.066 61.2691C157.371 67.1859 164.745 70.0986 172.702 70.0986C184.153 70.0986 193.08 64.567 193.08 54.9614C193.08 47.1019 189.003 40.8912 178.816 40.2151L170.665 39.6331C165.718 39.2423 164.166 37.1083 164.166 34.9744C164.166 31.5795 166.297 29.0548 172.605 29.0548C177.943 29.0548 181.92 30.8977 185.802 33.6165L191.916 26.4359C187.063 22.362 181.241 19.7402 172.605 19.7402C162.224 19.7402 154.267 24.8839 154.267 34.8774C154.267 43.319 160.284 48.1717 168.434 48.8478L177.167 49.6238C180.562 49.9176 183.18 50.9846 183.18 54.4765C183.18 58.6502 179.107 60.7841 173.478 60.7841C166.879 60.7841 162.224 58.6502 157.956 54.4765L151.066 61.2691Z" fill="#231F20"/>
<path d="M203.639 20.3238H198.692V27.8924H203.639V57.3879C203.639 65.1505 208.686 69.5154 215.575 69.5154H220.716V60.2008H217.027C214.602 60.2008 213.535 59.2309 213.535 56.515V27.8924H220.716V20.3238H213.535V5.38345H203.639V20.3238Z" fill="#231F20"/>
<path d="M252.614 93.4568V80.5249H249.655V93.317C249.655 95.9188 248.038 97.5364 245.601 97.5364C243.162 97.5364 241.573 95.9188 241.573 93.317V80.5249H238.615V93.4568C238.615 97.4793 241.627 100.192 245.601 100.192C249.573 100.192 252.614 97.4793 252.614 93.4568Z" fill="#231F20"/>
<path fill-rule="evenodd" clip-rule="evenodd" d="M268.554 100.032V91.1565C268.554 89.5932 268.226 88.278 267.156 87.2367C266.337 86.4436 265.159 85.9758 263.732 85.9758C262.337 85.9758 260.994 86.4979 260.035 87.5391V86.1412H257.296V100.032H260.089V91.5645C260.089 89.4277 261.407 88.4692 262.968 88.4692C264.528 88.4692 265.761 89.3992 265.761 91.5645V100.032H268.554Z" fill="#231F20"/>
<path fill-rule="evenodd" clip-rule="evenodd" d="M275.868 86.1409H273.075V100.031H275.868V86.1409ZM275.951 80.4438H272.992V83.4022H275.951V80.4438Z" fill="#231F20"/>
<path d="M290.985 86.1409H288.027L284.769 95.9204L281.479 86.1409H278.524L283.616 100.031H285.89L290.985 86.1409Z" fill="#231F20"/>
<path fill-rule="evenodd" clip-rule="evenodd" d="M301.668 91.9469H295.423C295.449 91.0996 295.506 90.6888 295.779 90.0583C296.216 89.017 297.232 88.3067 298.547 88.3067C299.859 88.3067 300.846 89.017 301.283 90.0583C301.556 90.6888 301.642 91.0996 301.668 91.9469ZM304.435 93.8925V92.6601C304.435 88.7175 302.27 85.9759 298.547 85.9759C294.984 85.9759 292.656 88.5777 292.656 93.0738C292.656 98.3601 295.423 100.194 298.9 100.194C301.34 100.194 302.68 99.4527 304.104 98.032L302.324 96.3602C301.34 97.3473 300.518 97.781 298.955 97.781C296.681 97.781 295.423 96.2775 295.423 93.8925H304.435Z" fill="#231F20"/>
<path fill-rule="evenodd" clip-rule="evenodd" d="M318.099 87.2918C317.141 86.3332 316.128 85.9766 314.784 85.9766C313.224 85.9766 311.8 86.6613 311.087 87.6484V86.1421H308.348V100.033H311.141V91.591C311.141 89.6739 312.402 88.47 313.909 88.47C314.867 88.47 315.361 88.7724 315.988 89.4L318.099 87.2918Z" fill="#231F20"/>
<path d="M330.592 95.786C330.592 93.3182 329.057 92.0858 326.455 91.869L324.264 91.675C322.786 91.5381 322.347 90.9076 322.347 90.086C322.347 89.0447 323.197 88.3058 324.866 88.3058C326.181 88.3058 327.414 88.5797 328.289 89.3186L330.044 87.5384C328.757 86.4144 326.974 85.9779 324.895 85.9779C321.99 85.9779 319.662 87.5127 319.662 90.2229C319.662 92.6592 321.169 93.8346 323.771 94.06L325.99 94.2483C327.331 94.3595 327.853 94.9615 327.853 95.8915C327.853 97.2067 326.509 97.8086 324.812 97.8086C323.443 97.8086 321.936 97.5091 320.812 96.3594L318.978 98.1938C320.621 99.8085 322.538 100.194 324.812 100.194C328.127 100.194 330.592 98.6902 330.592 95.786Z" fill="#231F20"/>
<path fill-rule="evenodd" clip-rule="evenodd" d="M336.996 86.1409H334.203V100.031H336.996V86.1409ZM337.078 80.4438H334.12V83.4022H337.078V80.4438Z" fill="#231F20"/>
<path d="M347.458 100.032V97.6468H346.306C345.267 97.6468 344.774 97.0448 344.774 96.0321V88.5234H347.458V86.3866H344.774V82.1701H341.981V86.3866H340.389V88.5234H341.981V96.1661C341.981 98.166 343.185 100.032 345.786 100.032H347.458Z" fill="#231F20"/>
<path fill-rule="evenodd" clip-rule="evenodd" d="M358.658 95.0171C358.658 96.0042 358.467 96.6603 358.056 97.074C357.314 97.7815 356.518 97.8642 355.451 97.8642C353.7 97.8642 352.904 97.151 352.904 95.8929C352.904 94.6319 353.754 93.8902 355.397 93.8902H358.658V95.0171ZM361.451 100.032V90.7435C361.451 87.594 359.534 85.9764 355.725 85.9764C353.426 85.9764 352.056 86.4443 350.741 87.9763L352.576 89.7022C353.343 88.718 354.082 88.3614 355.617 88.3614C357.779 88.3614 358.658 89.2087 358.658 90.9603V91.9474H354.986C351.808 91.9474 350.194 93.6192 350.194 95.9471C350.194 97.1225 350.576 98.1923 351.289 98.934C352.139 99.7813 353.289 100.192 355.015 100.192C356.741 100.192 357.699 99.7813 358.712 98.7657V100.032H361.451ZM354.356 80.5246H351.837V83.483H354.356V80.5246ZM360.273 80.5246H357.754V83.483H360.273V80.5246Z" fill="#231F20"/>
<path d="M371.776 100.032V97.6468H370.626C369.585 97.6468 369.091 97.0448 369.091 96.0321V88.5234H371.776V86.3866H369.091V82.1701H366.298V86.3866H364.709V88.5234H366.298V96.1661C366.298 98.166 367.502 100.032 370.107 100.032H371.776Z" fill="#231F20"/>
<path d="M388.344 88.5242V86.3874H385.576V84.3876C385.576 83.3748 386.07 82.7729 387.108 82.7729H388.344V80.3879H386.589C383.987 80.3879 382.784 82.2508 382.784 84.2507V86.3874H381.195V88.5242H382.784V100.033H385.576V88.5242H388.344Z" fill="#231F20"/>
<path fill-rule="evenodd" clip-rule="evenodd" d="M402.665 100.032V86.1413H399.872V94.6057C399.872 96.7454 398.557 97.7039 396.997 97.7039C395.433 97.7039 394.201 96.771 394.201 94.6057V86.1413H391.408V95.0165C391.408 96.5771 391.736 97.8922 392.806 98.9335C393.627 99.7266 394.806 100.194 396.229 100.194C397.627 100.194 398.968 99.6752 399.926 98.634V100.032H402.665ZM395.325 80.5269H392.806V83.4853H395.325V80.5269ZM401.242 80.5269H398.72V83.4853H401.242V80.5269Z" fill="#231F20"/>
<path fill-rule="evenodd" clip-rule="evenodd" d="M417.074 87.2918C416.116 86.3332 415.103 85.9766 413.759 85.9766C412.199 85.9766 410.775 86.6613 410.062 87.6484V86.1421H407.323V100.033H410.116V91.591C410.116 89.6739 411.377 88.47 412.883 88.47C413.842 88.47 414.335 88.7724 414.966 89.4L417.074 87.2918Z" fill="#231F20"/>
<path d="M438.55 100.032L433.127 91.5902L437.948 86.1412H434.55L429.156 92.5487V80.5268H426.363V100.032H429.156V95.9465L431.21 93.6185L435.101 100.032H438.55Z" fill="#231F20"/>
<path fill-rule="evenodd" clip-rule="evenodd" d="M452.711 100.032V86.1413H449.918V94.6057C449.918 96.7454 448.603 97.7039 447.04 97.7039C445.479 97.7039 444.247 96.771 444.247 94.6057V86.1413H441.454V95.0165C441.454 96.5771 441.782 97.8922 442.849 98.9335C443.673 99.7266 444.849 100.194 446.275 100.194C447.67 100.194 449.014 99.6752 449.972 98.634V100.032H452.711ZM445.371 80.5269H442.852V83.4853H445.371V80.5269ZM451.285 80.5269H448.765V83.4853H451.285V80.5269Z" fill="#231F20"/>
<path fill-rule="evenodd" clip-rule="evenodd" d="M468.626 100.032V91.1565C468.626 89.5932 468.298 88.278 467.228 87.2367C466.409 86.4436 465.231 85.9758 463.805 85.9758C462.407 85.9758 461.066 86.4979 460.107 87.5391V86.1412H457.369V100.032H460.162V91.5645C460.162 89.4277 461.477 88.4692 463.037 88.4692C464.601 88.4692 465.833 89.3992 465.833 91.5645V100.032H468.626Z" fill="#231F20"/>
<path d="M483.418 95.786C483.418 93.3182 481.883 92.0858 479.284 91.869L477.09 91.675C475.613 91.5381 475.17 90.9076 475.17 90.086C475.17 89.0447 476.021 88.3058 477.692 88.3058C479.008 88.3058 480.24 88.5797 481.116 89.3186L482.87 87.5384C481.581 86.4144 479.801 85.9779 477.721 85.9779C474.817 85.9779 472.489 87.5127 472.489 90.2229C472.489 92.6592 473.995 93.8346 476.597 94.06L478.816 94.2483C480.157 94.3595 480.679 94.9615 480.679 95.8915C480.679 97.2067 479.336 97.8086 477.641 97.8086C476.269 97.8086 474.763 97.5091 473.639 96.3594L471.804 98.1938C473.447 99.8085 475.367 100.194 477.641 100.194C480.953 100.194 483.418 98.6902 483.418 95.786Z" fill="#231F20"/>
<path d="M492.562 100.032V97.6468H491.412C490.371 97.6468 489.88 97.0448 489.88 96.0321V88.5234H492.562V86.3866H489.88V82.1701H487.084V86.3866H485.495V88.5234H487.084V96.1661C487.084 98.166 488.288 100.032 490.89 100.032H492.562Z" fill="#231F20"/>
<path d="M501.789 100.032V97.6468H500.557C499.435 97.6468 499.05 97.0962 499.05 96.0321V80.5268H496.257V96.1918C496.257 98.2487 497.407 100.032 500.066 100.032H501.789Z" fill="#231F20"/>
<path fill-rule="evenodd" clip-rule="evenodd" d="M512.685 91.9469H506.443C506.466 91.0996 506.523 90.6888 506.799 90.0583C507.236 89.017 508.249 88.3067 509.561 88.3067C510.876 88.3067 511.863 89.017 512.303 90.0583C512.576 90.6888 512.659 91.0996 512.685 91.9469ZM515.452 93.8925V92.6601C515.452 88.7175 513.29 85.9759 509.561 85.9759C506.001 85.9759 503.673 88.5777 503.673 93.0738C503.673 98.3601 506.443 100.194 509.918 100.194C512.357 100.194 513.698 99.4527 515.121 98.032L513.341 96.3602C512.357 97.3473 511.535 97.781 509.975 97.781C507.701 97.781 506.443 96.2775 506.443 93.8925H515.452Z" fill="#231F20"/>
<path fill-rule="evenodd" clip-rule="evenodd" d="M529.117 87.2918C528.158 86.3332 527.145 85.9766 525.805 85.9766C524.241 85.9766 522.818 86.6613 522.104 87.6484V86.1421H519.366V100.033H522.162V91.591C522.162 89.6739 523.42 88.47 524.926 88.47C525.885 88.47 526.378 88.7724 527.009 89.4L529.117 87.2918Z" fill="#231F20"/>
<path fill-rule="evenodd" clip-rule="evenodd" d="M534.407 86.1409H531.611V100.031H534.407V86.1409ZM534.487 80.4438H531.528V83.4022H534.487V80.4438Z" fill="#231F20"/>
<path d="M549.332 95.786C549.332 93.3182 547.797 92.0858 545.195 91.869L543.004 91.675C541.526 91.5381 541.084 90.9076 541.084 90.086C541.084 89.0447 541.934 88.3058 543.606 88.3058C544.921 88.3058 546.154 88.5797 547.029 89.3186L548.784 87.5384C547.494 86.4144 545.714 85.9779 543.635 85.9779C540.73 85.9779 538.402 87.5127 538.402 90.2229C538.402 92.6592 539.909 93.8346 542.511 94.06L544.73 94.2483C546.071 94.3595 546.593 94.9615 546.593 95.8915C546.593 97.2067 545.249 97.8086 543.552 97.8086C542.182 97.8086 540.676 97.5091 539.552 96.3594L537.718 98.1938C539.361 99.8085 541.278 100.194 543.552 100.194C546.867 100.194 549.332 98.6902 549.332 95.786Z" fill="#231F20"/>
<path d="M562.994 98.2208L561.077 96.3864C560.201 97.345 559.517 97.7016 558.418 97.7016C557.351 97.7016 556.447 97.2623 555.845 96.4663C555.243 95.7018 555.023 94.689 555.023 93.0714C555.023 91.4567 555.243 90.4696 555.845 89.7022C556.447 88.9063 557.351 88.4698 558.418 88.4698C559.517 88.4698 560.201 88.8264 561.077 89.785L562.994 87.922C561.679 86.5241 560.338 85.9764 558.418 85.9764C555.297 85.9764 552.23 87.8678 552.23 93.0714C552.23 98.2779 555.297 100.192 558.418 100.192C560.338 100.192 561.679 99.6187 562.994 98.2208Z" fill="#231F20"/>
<path d="M577.648 100.032V91.071C577.648 88.0584 575.925 85.9758 572.83 85.9758C571.458 85.9758 570.2 86.4978 569.241 87.5391V80.5268H566.445V100.032H569.241V91.5131C569.241 89.4277 570.499 88.4692 572.06 88.4692C573.623 88.4692 574.855 89.3992 574.855 91.5131V100.032H577.648Z" fill="#231F20"/>
<path fill-rule="evenodd" clip-rule="evenodd" d="M590.469 91.9469H584.227C584.25 91.0996 584.307 90.6888 584.581 90.0583C585.018 89.017 586.03 88.3067 587.346 88.3067C588.661 88.3067 589.648 89.017 590.087 90.0583C590.361 90.6888 590.441 91.0996 590.469 91.9469ZM593.237 93.8925V92.6601C593.237 88.7175 591.071 85.9759 587.346 85.9759C583.785 85.9759 581.457 88.5777 581.457 93.0738C581.457 98.3601 584.227 100.194 587.702 100.194C590.141 100.194 591.482 99.4527 592.906 98.032L591.126 96.3602C590.141 97.3473 589.32 97.781 587.759 97.781C585.483 97.781 584.227 96.2775 584.227 93.8925H593.237Z" fill="#231F20"/>
<path fill-rule="evenodd" clip-rule="evenodd" d="M615.064 100.032V86.1413H612.271V94.6057C612.271 96.7454 610.956 97.7039 609.393 97.7039C607.832 97.7039 606.597 96.771 606.597 94.6057V86.1413H603.804V95.0165C603.804 96.5771 604.135 97.8922 605.202 98.9335C606.023 99.7266 607.202 100.194 608.625 100.194C610.02 100.194 611.364 99.6752 612.322 98.634V100.032H615.064Z" fill="#231F20"/>
<path fill-rule="evenodd" clip-rule="evenodd" d="M630.978 100.032V91.1565C630.978 89.5932 630.65 88.278 629.58 87.2367C628.758 86.4436 627.583 85.9758 626.157 85.9758C624.759 85.9758 623.418 86.4979 622.459 87.5391V86.1412H619.721V100.032H622.513V91.5645C622.513 89.4277 623.829 88.4692 625.389 88.4692C626.952 88.4692 628.185 89.3992 628.185 91.5645V100.032H630.978Z" fill="#231F20"/>
<path fill-rule="evenodd" clip-rule="evenodd" d="M643.414 93.0725C643.414 95.5345 643.058 97.7027 640.538 97.7027C638.017 97.7027 637.634 95.5345 637.634 93.0725C637.634 90.6077 638.017 88.4709 640.538 88.4709C643.058 88.4709 643.414 90.6077 643.414 93.0725ZM646.207 100.031V80.5257H643.414V87.538C642.401 86.3341 641.249 85.9775 639.771 85.9775C638.373 85.9775 637.169 86.4425 636.402 87.2099C635.007 88.6078 634.841 90.9614 634.841 93.0725C634.841 95.1779 635.007 97.5629 636.402 98.9608C637.169 99.7254 638.402 100.193 639.797 100.193C641.306 100.193 642.427 99.8081 643.468 98.55V100.031H646.207Z" fill="#231F20"/>
<path fill-rule="evenodd" clip-rule="evenodd" d="M660.451 86.1409H657.658V100.031H660.451V86.1409ZM660.534 80.4438H657.575V83.4022H660.534V80.4438Z" fill="#231F20"/>
<path fill-rule="evenodd" clip-rule="evenodd" d="M676.364 100.032V91.1565C676.364 89.5932 676.036 88.278 674.966 87.2367C674.145 86.4436 672.969 85.9758 671.543 85.9758C670.145 85.9758 668.804 86.4979 667.845 87.5391V86.1412H665.107V100.032H667.9V91.5645C667.9 89.4277 669.212 88.4692 670.775 88.4692C672.336 88.4692 673.571 89.3992 673.571 91.5645V100.032H676.364Z" fill="#231F20"/>
<path fill-rule="evenodd" clip-rule="evenodd" d="M688.801 93.0725C688.801 95.5345 688.444 97.7027 685.922 97.7027C683.4 97.7027 683.021 95.5345 683.021 93.0725C683.021 90.6077 683.4 88.4709 685.922 88.4709C688.444 88.4709 688.801 90.6077 688.801 93.0725ZM691.594 100.031V80.5257H688.801V87.538C687.788 86.3341 686.635 85.9775 685.158 85.9775C683.757 85.9775 682.556 86.4425 681.785 87.2099C680.39 88.6078 680.225 90.9614 680.225 93.0725C680.225 95.1779 680.39 97.5629 681.785 98.9608C682.556 99.7254 683.785 100.193 685.183 100.193C686.692 100.193 687.814 99.8081 688.855 98.55V100.031H691.594Z" fill="#231F20"/>
<path fill-rule="evenodd" clip-rule="evenodd" d="M707.372 100.032V86.1413H704.579V94.6057C704.579 96.7454 703.264 97.7039 701.704 97.7039C700.14 97.7039 698.908 96.771 698.908 94.6057V86.1413H696.115V95.0165C696.115 96.5771 696.443 97.8922 697.51 98.9335C698.331 99.7266 699.51 100.194 700.936 100.194C702.331 100.194 703.675 99.6752 704.633 98.634V100.032H707.372Z" fill="#231F20"/>
<path d="M722.299 95.786C722.299 93.3182 720.767 92.0858 718.165 91.869L715.974 91.675C714.494 91.5381 714.054 90.9076 714.054 90.086C714.054 89.0447 714.905 88.3058 716.576 88.3058C717.889 88.3058 719.124 88.5797 720 89.3186L721.754 87.5384C720.465 86.4144 718.685 85.9779 716.602 85.9779C713.698 85.9779 711.373 87.5127 711.373 90.2229C711.373 92.6592 712.876 93.8346 715.478 94.06L717.7 94.2483C719.038 94.3595 719.56 94.9615 719.56 95.8915C719.56 97.2067 718.22 97.8086 716.522 97.8086C715.15 97.8086 713.647 97.5091 712.52 96.3594L710.688 98.1938C712.331 99.8085 714.248 100.194 716.522 100.194C719.837 100.194 722.299 98.6902 722.299 95.786Z" fill="#231F20"/>
<path d="M731.445 100.032V97.6468H730.296C729.252 97.6468 728.761 97.0448 728.761 96.0321V88.5234H731.445V86.3866H728.761V82.1701H725.965V86.3866H724.376V88.5234H725.965V96.1661C725.965 98.166 727.172 100.032 729.774 100.032H731.445Z" fill="#231F20"/>
<path fill-rule="evenodd" clip-rule="evenodd" d="M744.972 87.2918C744.013 86.3332 743.003 85.9766 741.66 85.9766C740.096 85.9766 738.673 86.6613 737.962 87.6484V86.1421H735.221V100.033H738.016V91.591C738.016 89.6739 739.277 88.47 740.781 88.47C741.739 88.47 742.233 88.7724 742.863 89.4L744.972 87.2918Z" fill="#231F20"/>
<path fill-rule="evenodd" clip-rule="evenodd" d="M750.262 86.1409H747.469V100.031H750.262V86.1409ZM750.344 80.4438H747.389V83.4022H750.344V80.4438Z" fill="#231F20"/>
<path fill-rule="evenodd" clip-rule="evenodd" d="M763.214 91.9469H756.969C756.995 91.0996 757.052 90.6888 757.326 90.0583C757.765 89.017 758.775 88.3067 760.09 88.3067C761.405 88.3067 762.393 89.017 762.832 90.0583C763.106 90.6888 763.186 91.0996 763.214 91.9469ZM765.981 93.8925V92.6601C765.981 88.7175 763.819 85.9759 760.09 85.9759C756.53 85.9759 754.205 88.5777 754.205 93.0738C754.205 98.3601 756.969 100.194 760.447 100.194C762.886 100.194 764.227 99.4527 765.651 98.032L763.87 96.3602C762.886 97.3473 762.064 97.781 760.504 97.781C758.23 97.781 756.969 96.2775 756.969 93.8925H765.981Z" fill="#231F20"/>
<path d="M775.344 100.032V97.6468H774.112C772.991 97.6468 772.606 97.0962 772.606 96.0321V80.5268H769.813V96.1918C769.813 98.2487 770.962 100.032 773.621 100.032H775.344Z" fill="#231F20"/>
<path d="M784.079 100.032V97.6468H782.843C781.722 97.6468 781.34 97.0962 781.34 96.0321V80.5268H778.547V96.1918C778.547 98.2487 779.697 100.032 782.355 100.032H784.079Z" fill="#231F20"/>
<path fill-rule="evenodd" clip-rule="evenodd" d="M794.974 91.9469H788.73C788.755 91.0996 788.812 90.6888 789.086 90.0583C789.523 89.017 790.535 88.3067 791.851 88.3067C793.166 88.3067 794.153 89.017 794.589 90.0583C794.863 90.6888 794.946 91.0996 794.974 91.9469ZM797.742 93.8925V92.6601C797.742 88.7175 795.576 85.9759 791.851 85.9759C788.29 85.9759 785.962 88.5777 785.962 93.0738C785.962 98.3601 788.73 100.194 792.207 100.194C794.646 100.194 795.984 99.4527 797.411 98.032L795.631 96.3602C794.646 97.3473 793.825 97.781 792.261 97.781C789.988 97.781 788.73 96.2775 788.73 93.8925H797.742Z" fill="#231F20"/>
<path d="M822.196 92.4706V89.4837H815.076V92.0027H819.238V93.1011C819.238 94.3592 818.964 95.3463 818.251 96.165C817.486 97.0466 816.362 97.5344 815.076 97.5344C813.926 97.5344 812.882 97.095 812.197 96.359C811.239 95.3177 811.022 94.1937 811.022 90.2768C811.022 86.3598 811.239 85.2643 812.197 84.223C812.882 83.4841 813.926 83.0191 815.076 83.0191C817.264 83.0191 818.69 84.2772 819.184 86.414H822.171C821.623 83.0733 819.212 80.3603 815.076 80.3603C812.993 80.3603 811.296 81.102 809.952 82.4428C808.035 84.36 808.063 86.5253 808.063 90.2768C808.063 94.0311 808.035 96.1936 809.952 98.1107C811.296 99.4515 813.047 100.193 815.076 100.193C817.13 100.193 818.964 99.5371 820.445 97.9766C821.731 96.6044 822.196 94.9897 822.196 92.4706Z" fill="#231F20"/>
<path fill-rule="evenodd" clip-rule="evenodd" d="M834.744 91.9469H828.499C828.525 91.0996 828.582 90.6888 828.856 90.0583C829.295 89.017 830.305 88.3067 831.62 88.3067C832.935 88.3067 833.923 89.017 834.362 90.0583C834.636 90.6888 834.716 91.0996 834.744 91.9469ZM837.511 93.8925V92.6601C837.511 88.7175 835.349 85.9759 831.62 85.9759C828.06 85.9759 825.732 88.5777 825.732 93.0738C825.732 98.3601 828.499 100.194 831.977 100.194C834.416 100.194 835.757 99.4527 837.18 98.032L835.4 96.3602C834.416 97.3473 833.594 97.781 832.034 97.781C829.76 97.781 828.499 96.2775 828.499 93.8925H837.511Z" fill="#231F20"/>
<path d="M851.697 95.786C851.697 93.3182 850.162 92.0858 847.56 91.869L845.369 91.675C843.892 91.5381 843.452 90.9076 843.452 90.086C843.452 89.0447 844.3 88.3058 845.971 88.3058C847.286 88.3058 848.519 88.5797 849.395 89.3186L851.149 87.5384C849.86 86.4144 848.08 85.9779 846 85.9779C843.093 85.9779 840.768 87.5127 840.768 90.2229C840.768 92.6592 842.271 93.8346 844.876 94.06L847.095 94.2483C848.436 94.3595 848.955 94.9615 848.955 95.8915C848.955 97.2067 847.615 97.8086 845.917 97.8086C844.548 97.8086 843.041 97.5091 841.917 96.3594L840.083 98.1938C841.726 99.8085 843.643 100.194 845.917 100.194C849.232 100.194 851.697 98.6902 851.697 95.786Z" fill="#231F20"/>
<path d="M860.841 100.032V97.6468H859.691C858.647 97.6468 858.156 97.0448 858.156 96.0321V88.5234H860.841V86.3866H858.156V82.1701H855.36V86.3866H853.771V88.5234H855.36V96.1661C855.36 98.166 856.567 100.032 859.169 100.032H860.841Z" fill="#231F20"/>
<path fill-rule="evenodd" clip-rule="evenodd" d="M871.904 95.0171C871.904 96.0042 871.713 96.6603 871.302 97.074C870.56 97.7815 869.767 97.8642 868.697 97.8642C866.946 97.8642 866.15 97.151 866.15 95.8929C866.15 94.6319 867 93.8902 868.643 93.8902H871.904V95.0171ZM874.697 100.032V90.7435C874.697 87.594 872.78 85.9764 868.974 85.9764C866.672 85.9764 865.302 86.4443 863.987 87.9762L865.822 89.7022C866.592 88.718 867.328 88.3614 868.866 88.3614C871.025 88.3614 871.904 89.2087 871.904 90.9603V91.9474H868.232C865.057 91.9474 863.439 93.6192 863.439 95.9471C863.439 97.1225 863.822 98.1923 864.535 98.934C865.385 99.7813 866.535 100.192 868.261 100.192C869.987 100.192 870.945 99.7813 871.958 98.7657V100.032H874.697Z" fill="#231F20"/>
<path d="M884.667 100.032V97.6468H883.431C882.31 97.6468 881.925 97.0962 881.925 96.0321V80.5268H879.135V96.1918C879.135 98.2487 880.285 100.032 882.941 100.032H884.667Z" fill="#231F20"/>
<path d="M893.754 100.032V97.6468H892.604C891.56 97.6468 891.07 97.0448 891.07 96.0321V88.5234H893.754V86.3866H891.07V82.1701H888.274V86.3866H886.685V88.5234H888.274V96.1661C888.274 98.166 889.481 100.032 892.082 100.032H893.754Z" fill="#231F20"/>
<path fill-rule="evenodd" clip-rule="evenodd" d="M908.651 100.032V86.1413H905.858V94.6057C905.858 96.7454 904.543 97.7039 902.982 97.7039C901.422 97.7039 900.186 96.771 900.186 94.6057V86.1413H897.396V95.0165C897.396 96.5771 897.722 97.8922 898.791 98.9335C899.613 99.7266 900.791 100.194 902.215 100.194C903.61 100.194 904.954 99.6752 905.912 98.634V100.032H908.651Z" fill="#231F20"/>
<path fill-rule="evenodd" clip-rule="evenodd" d="M924.567 100.032V91.1565C924.567 89.5932 924.239 88.278 923.172 87.2367C922.35 86.4436 921.172 85.9758 919.749 85.9758C918.348 85.9758 917.007 86.4979 916.048 87.5391V86.1412H913.31V100.032H916.103V91.5645C916.103 89.4277 917.418 88.4692 918.978 88.4692C920.539 88.4692 921.774 89.3992 921.774 91.5645V100.032H924.567Z" fill="#231F20"/>
<path fill-rule="evenodd" clip-rule="evenodd" d="M936.895 92.8273C936.895 95.0182 936.593 97.1778 934.074 97.1778C931.552 97.1778 931.224 95.0182 931.224 92.8273C931.224 90.6334 931.552 88.471 934.074 88.471C936.593 88.471 936.895 90.6334 936.895 92.8273ZM939.688 99.948V86.1402H936.975V87.6208C935.934 86.3599 934.812 85.9776 933.332 85.9776C931.937 85.9776 930.759 86.4141 929.991 87.1815C928.647 88.5252 928.428 90.468 928.428 92.8273C928.428 95.178 928.647 97.1236 929.991 98.4673C930.759 99.2347 931.908 99.6969 933.303 99.6969C934.727 99.6969 935.879 99.3175 936.895 98.1107V99.8938C936.895 101.754 935.991 103.426 933.634 103.426C932.265 103.426 931.497 103.012 930.622 102.193L928.841 103.97C930.294 105.314 931.634 105.811 933.745 105.811C937.44 105.811 939.688 103.343 939.688 99.948Z" fill="#231F20"/>
<path d="M676.818 57.5819C676.818 66.4115 682.253 69.5154 689.434 69.5154H693.798V60.2008H690.404C687.979 60.2008 686.718 59.0369 686.718 56.806V0.433769H676.818V57.5819Z" fill="#231F20"/>
<path fill-rule="evenodd" clip-rule="evenodd" d="M702.125 10.3294H712.022V0.432914H702.125V10.3294ZM702.125 69.5145H712.022V20.3229H702.125V69.5145Z" fill="#231F20"/>
<path d="M725.113 69.5154H735.01V40.2138C735.01 33.5182 739.183 29.6383 744.809 29.6383C750.338 29.6383 754.512 33.5182 754.512 40.2138V69.5154H764.405V36.8189C764.405 25.6586 755.676 19.7418 748.01 19.7418C742.769 19.7418 738.307 21.6818 735.204 25.5616H735.01V20.3238H725.113V69.5154Z" fill="#231F20"/>
<path d="M773.996 69.5154H810.669V60.2008H786.026L810.669 28.1834V20.3238H775.354V29.0563H798.642L773.996 61.6558V69.5154Z" fill="#231F20"/>
<path d="M238.733 53.0211C238.733 64.1786 247.465 70.0983 255.228 70.0983C260.369 70.0983 264.833 68.1583 267.937 64.2756H268.131V69.5163H278.028V20.3247H268.131V49.6263C268.131 56.319 263.96 60.2017 258.429 60.2017C252.803 60.2017 248.629 56.319 248.629 49.6263V20.3247H238.733V53.0211Z" fill="#656263"/>
<path d="M290.818 69.5154H300.714V40.2138C300.714 33.5182 304.888 29.6383 310.514 29.6383C316.045 29.6383 320.216 33.5182 320.216 40.2138V69.5154H330.113V36.8189C330.113 25.6586 321.38 19.7418 313.715 19.7418C308.477 19.7418 304.012 21.6818 300.908 25.5616H300.714V20.3238H290.818V69.5154Z" fill="#656263"/>
<path fill-rule="evenodd" clip-rule="evenodd" d="M343.195 10.3294H353.091V0.432914H343.195V10.3294ZM343.195 69.5145H353.091V20.3229H343.195V69.5145Z" fill="#656263"/>
<path d="M377.242 69.5154H385.392L403.439 20.3238H392.961L381.413 54.769H381.219L369.673 20.3238H359.195L377.242 69.5154Z" fill="#656263"/>
<path fill-rule="evenodd" clip-rule="evenodd" d="M416.12 40.5052C416.314 33.0336 420.682 29.0568 426.502 29.0568C432.324 29.0568 436.592 33.0336 436.886 40.5052H416.12ZM446.783 48.6558V40.5052C446.783 27.7929 437.371 19.7422 426.502 19.7422C416.996 19.7422 406.224 25.95 406.224 45.0641C406.224 65.2451 417.963 70.0978 428.056 70.0978C434.652 70.0978 440.96 67.7699 445.813 62.1412L438.632 56.0275C435.719 59.0373 431.645 60.7832 427.862 60.7832C421.07 60.7832 416.12 56.7094 416.12 48.6558H446.783Z" fill="#656263"/>
<path d="M457.166 69.5154H467.063V39.9228C467.063 32.7422 471.818 29.6383 476.668 29.6383C479.193 29.6383 480.842 30.3173 483.17 32.0632L490.35 23.5247C487.341 21.1968 484.043 19.7418 480.063 19.7418C474.822 19.7418 470.36 21.6818 467.257 25.5616H467.063V20.3238H457.166V69.5154Z" fill="#656263"/>
<path d="M489.447 61.2691C495.752 67.1859 503.126 70.0986 511.083 70.0986C522.531 70.0986 531.458 64.567 531.458 54.9614C531.458 47.1019 527.384 40.8912 517.197 40.2151L509.043 39.6331C504.096 39.2423 502.544 37.1083 502.544 34.9744C502.544 31.5795 504.678 29.0548 510.986 29.0548C516.324 29.0548 520.301 30.8977 524.183 33.6165L530.294 26.4359C525.441 22.362 519.622 19.7402 510.986 19.7402C500.604 19.7402 492.648 24.8839 492.648 34.8774C492.648 43.319 498.662 48.1717 506.815 48.8478L515.545 49.6238C518.943 49.9176 521.561 50.9846 521.561 54.4765C521.561 58.6502 517.485 60.7841 511.859 60.7841C505.26 60.7841 500.604 58.6502 496.334 54.4765L489.447 61.2691Z" fill="#656263"/>
<path fill-rule="evenodd" clip-rule="evenodd" d="M541.73 10.3294H551.626V0.432914H541.73V10.3294ZM541.73 69.5145H551.626V20.3229H541.73V69.5145Z" fill="#656263"/>
<path d="M565.298 20.3238H560.351V27.8924H565.298V57.3879C565.298 65.1505 570.342 69.5154 577.232 69.5154H582.372V60.2008H578.687C576.262 60.2008 575.195 59.2309 575.195 56.515V27.8924H582.372V20.3238H575.195V5.38345H565.298V20.3238Z" fill="#656263"/>
<path fill-rule="evenodd" clip-rule="evenodd" d="M617.466 52.2452C617.466 59.9108 614.653 60.7837 606.405 60.7837C599.71 60.7837 597.091 57.8738 597.091 54.5731C597.091 50.9842 599.809 48.6563 605.629 48.6563H617.466V52.2452ZM617.466 69.5163H627.365V35.944C627.365 23.8166 619.018 19.7399 606.89 19.7399C599.516 19.7399 594.084 21.6826 590.301 26.9205L598.061 32.8401C599.809 30.0244 602.231 29.0572 607.375 29.0572C614.459 29.0572 617.466 30.7062 617.466 35.362V40.5057H603.786C593.211 40.5057 587.776 47.1985 587.776 55.0581C587.776 63.5966 594.181 70.0983 605.144 70.0983C611.837 70.0983 615.235 68.5463 617.274 65.1486H617.466V69.5163ZM595.733 12.6591H606.211V2.1806H595.733V12.6591ZM612.81 12.6591H623.288V2.1806H612.81V12.6591Z" fill="#656263"/>
<path d="M640.757 20.3238H635.81V27.8924H640.757V57.3879C640.757 65.1505 645.803 69.5154 652.693 69.5154H657.831V60.2008H654.145C651.72 60.2008 650.653 59.2309 650.653 56.515V27.8924H657.831V20.3238H650.653V5.38345H640.757V20.3238Z" fill="#656263"/>
</g>
<defs>
<clipPath id="clip0_21:1072">
<rect width="940" height="175.605" fill="white"/>
</clipPath>
</defs>
</svg>
