<svg width="958" height="170" viewBox="0 0 958 170" fill="none" xmlns="http://www.w3.org/2000/svg">
<path fill-rule="evenodd" clip-rule="evenodd" d="M85.5631 130.514H121.408V20.4993H85.5631V130.514ZM72.9438 69.558L72.899 51.7505H32.1212C41.8333 21.7901 69.9663 0.129635 103.153 0.129635C136.347 0.129635 164.48 21.7901 174.186 51.7505H134.072V69.0085L182.914 69.673C185.291 66.67 188.971 64.7403 193.098 64.7403C200.274 64.7403 206.095 70.5611 206.095 77.7366C206.095 84.912 200.274 90.7328 193.098 90.7328C188.057 90.7328 183.68 87.8511 181.527 83.6532H133.746L134.072 100.592H173.221C162.716 129.095 135.312 149.42 103.153 149.42C71.0014 149.42 43.5904 129.095 33.086 100.592H72.899L73.5764 83.6532H25.2653C23.112 87.8511 18.7416 90.7328 13.6939 90.7328C6.51845 90.7328 0.697632 84.912 0.697632 77.7366C0.697632 70.5611 6.51845 64.7403 13.6939 64.7403C17.8215 64.7403 21.5018 66.67 23.8787 69.673L72.9438 69.558V69.558Z" fill="black"/>
<path d="M313.306 84.0981V74.1304C313.306 69.1466 309.984 65.8241 305 65.8241H267.621C265.129 65.8241 263.468 64.1628 263.468 61.6709C263.468 59.179 265.129 57.5177 267.621 57.5177H305C309.984 57.5177 313.306 54.1952 313.306 49.2114V45.8952C313.306 40.905 309.984 37.5825 305 37.5825H270.113C263.468 37.5825 260.145 40.905 260.145 45.8952V49.2114C260.145 54.1952 256.823 57.5177 251.839 57.5177C246.855 57.5177 243.533 60.8403 243.533 65.8241V75.7917C243.533 80.7755 246.855 84.0981 251.839 84.0981H289.218C291.716 84.0981 293.371 85.7593 293.371 88.2449C293.371 90.7432 291.716 92.4044 289.218 92.4044H251.839C246.855 92.4044 243.533 95.7206 243.533 100.717V104.033C243.533 109.011 246.855 112.346 251.839 112.346H286.726C293.371 112.346 296.693 109.011 296.693 104.033V100.717C296.693 95.7206 300.016 92.4044 305 92.4044C309.984 92.4044 313.306 89.0819 313.306 84.0981" fill="black"/>
<path fill-rule="evenodd" clip-rule="evenodd" d="M384.055 61.6722C384.055 64.1641 382.394 65.8254 379.902 65.8254H358.139C355.648 65.8254 353.986 64.1641 353.986 61.6722C353.986 59.1803 355.648 57.5191 358.139 57.5191H379.902C382.394 57.5191 384.055 59.1803 384.055 61.6722ZM403.824 75.793V65.8254C403.824 60.8416 400.502 57.5191 395.518 57.5191C390.534 57.5191 387.212 54.1965 387.212 49.2127V45.8902C387.212 40.9063 383.889 37.5838 377.244 37.5838H360.631C353.986 37.5838 350.664 40.9063 350.664 45.8902V49.2127C350.664 54.1965 347.341 57.5191 342.357 57.5191C337.374 57.5191 334.051 60.8416 334.051 65.8254V84.0994C334.051 89.0832 337.374 92.4058 342.357 92.4058C347.341 92.4058 350.664 95.7219 350.664 100.712V104.035C350.664 109.012 353.986 112.347 360.631 112.347H390.534C395.518 112.347 398.841 109.012 398.841 104.035V100.712C398.841 95.7219 395.518 92.4058 390.534 92.4058H358.139C355.648 92.4058 353.986 90.7445 353.986 88.2462C353.986 85.7607 355.648 84.0994 358.139 84.0994H395.518C400.502 84.0994 403.824 80.7769 403.824 75.793" fill="black"/>
<path d="M479.43 49.0463V45.7237C479.43 40.7399 476.108 37.4174 471.124 37.4174H454.511C447.866 37.4174 444.544 40.7399 444.544 45.7237V49.0463C444.544 54.0301 441.221 57.3526 436.237 57.3526C431.253 57.3526 427.931 60.6752 427.931 65.659V103.875C427.931 108.852 431.253 112.168 436.237 112.168H439.56C444.544 112.168 447.866 108.852 447.866 103.875V65.659C447.866 60.6752 451.189 57.3526 456.172 57.3526H471.124C476.108 57.3526 479.43 54.0301 479.43 49.0463Z" fill="black"/>
<path d="M564.984 83.9325V45.7233C564.984 40.7394 561.655 37.4169 556.671 37.4169H553.355C548.358 37.4169 545.042 40.7394 545.042 45.7233V83.9325C545.042 88.9163 541.719 92.2389 536.742 92.2389H530.091C525.113 92.2389 521.778 88.9163 521.778 83.9325V45.7233C521.778 40.7394 518.462 37.4169 513.478 37.4169H510.162C505.171 37.4169 501.849 40.7394 501.849 45.7233V83.9325C501.849 88.9163 505.171 92.2389 510.162 92.2389C515.139 92.2389 518.462 96.3984 518.462 100.539V103.874C518.462 108.852 521.778 112.168 526.774 112.168H540.065C545.042 112.168 548.358 108.852 548.358 103.874V100.539C548.358 96.3984 551.694 92.2389 556.671 92.2389C561.655 92.2389 564.984 88.9163 564.984 83.9325Z" fill="black"/>
<path d="M652.203 100.54V45.724C652.203 40.7402 648.88 37.4176 643.903 37.4176H640.574C635.59 37.4176 632.274 40.7402 632.274 45.724V83.9332C632.274 88.917 628.951 92.2396 623.961 92.2396H617.322C612.332 92.2396 609.009 88.917 609.009 83.9332V45.724C609.009 40.7402 605.693 37.4176 600.709 37.4176H597.381C592.403 37.4176 589.081 40.7402 589.081 45.724V83.9332C589.081 88.917 592.403 92.2396 597.381 92.2396C602.371 92.2396 605.693 96.3992 605.693 100.54V103.868C605.693 108.852 609.009 112.168 614 112.168H640.574C646.388 112.168 652.203 106.354 652.203 100.54Z" fill="black"/>
<path d="M751.052 84.0981V74.1304C751.052 69.1466 747.73 65.8241 742.74 65.8241H705.368C702.869 65.8241 701.208 64.1628 701.208 61.6709C701.208 59.179 702.869 57.5177 705.368 57.5177H742.74C747.73 57.5177 751.052 54.1952 751.052 49.2114V45.8952C751.052 40.905 747.73 37.5825 742.74 37.5825H707.859C701.208 37.5825 697.892 40.905 697.892 45.8952V49.2114C697.892 54.1952 694.569 57.5177 689.579 57.5177C684.602 57.5177 681.279 60.8403 681.279 65.8241V75.7917C681.279 80.7755 684.602 84.0981 689.579 84.0981H726.964C729.45 84.0981 731.111 85.7593 731.111 88.2449C731.111 90.7432 729.45 92.4044 726.964 92.4044H689.579C684.602 92.4044 681.279 95.7206 681.279 100.717V104.033C681.279 109.011 684.602 112.346 689.579 112.346H724.472C731.111 112.346 734.44 109.011 734.44 104.033V100.717C734.44 95.7206 737.762 92.4044 742.74 92.4044C747.73 92.4044 751.052 89.0819 751.052 84.0981Z" fill="black"/>
<path d="M801.694 103.872V100.543C801.694 95.3992 798.212 92.2428 793.394 92.2428H788.404C783.427 92.2428 780.104 95.5589 780.104 100.543V103.872C780.104 108.849 783.427 112.172 788.404 112.172H793.394C798.372 112.172 801.694 108.849 801.694 103.872Z" fill="black"/>
<path fill-rule="evenodd" clip-rule="evenodd" d="M875.636 88.2473C875.636 90.7456 873.975 92.4005 871.483 92.4005H844.736C842.238 92.4005 840.583 90.7456 840.583 88.2473C840.583 85.7618 842.238 84.1005 844.736 84.1005H871.483C873.975 84.1005 875.636 85.7618 875.636 88.2473ZM890.587 104.036V65.8266C890.587 60.8427 887.265 57.5202 882.275 57.5202C877.297 57.5202 873.975 54.1913 873.975 49.2138V45.8913C873.975 40.9075 870.658 37.5849 864.007 37.5849H829.127C824.13 37.5849 820.814 40.9075 820.814 45.8913V49.2138C820.814 54.1913 824.13 57.5202 829.127 57.5202H866.499C868.997 57.5202 870.658 59.1815 870.658 61.6734C870.658 64.1653 868.997 65.8266 866.499 65.8266H829.127C824.13 65.8266 820.814 69.1491 820.814 74.1329V84.1005C820.814 89.0844 824.13 92.4005 829.127 92.4005C834.104 92.4005 837.427 95.7231 837.427 100.713V104.036C837.427 109.013 840.743 112.342 847.394 112.342H882.275C887.265 112.342 890.587 109.013 890.587 104.036Z" fill="black"/>
<path d="M957.863 49.38V46.0511C957.863 41.0736 954.54 37.7511 949.563 37.7511H942.912C938.771 37.7511 936.273 35.2592 936.273 31.106V14.4933C936.273 9.50948 932.957 6.18694 927.96 6.18694H924.644C919.66 6.18694 916.344 9.50948 916.344 14.4933V84.0111C916.344 88.9438 919.66 92.2408 924.644 92.2408C930.458 92.2408 932.957 96.394 932.957 100.541V103.87C932.957 108.854 936.273 112.17 941.25 112.17H947.902C952.886 112.17 956.202 108.854 956.202 103.87V100.541C956.202 95.5634 952.886 92.2408 947.902 92.2408H944.573C940.426 92.2408 936.273 89.7681 936.273 85.6596V64.2676C936.273 60.1527 938.771 57.6864 942.912 57.6864H949.563C954.54 57.6864 957.863 54.3638 957.863 49.38Z" fill="black"/>
<path d="M250.11 169.19L251.918 161.018L255.969 157.286L259.209 169.19H265.95L261.266 152.532L271.285 142.609H264.027L253.931 152.877H253.72L258.289 132.29H251.95L243.772 169.19H250.11Z" fill="black"/>
<path fill-rule="evenodd" clip-rule="evenodd" d="M300.792 142.608L296.537 161.776C295.195 162.997 292.748 164.581 289.988 164.581C287.841 164.581 286.966 163.463 287.758 159.892L291.592 142.608H285.253L281.221 160.805C280.02 166.217 281.803 169.699 287.119 169.699C290.237 169.699 293.336 167.968 296.045 166.332L295.412 169.188H301.24L307.131 142.608H300.792Z" fill="black"/>
<path fill-rule="evenodd" clip-rule="evenodd" d="M324.141 169.19L328.397 150.021C329.732 148.801 332.186 147.216 334.946 147.216C337.093 147.216 337.968 148.334 337.176 151.919L333.342 169.19H339.681L343.713 150.992C344.914 145.581 343.131 142.098 337.815 142.098C334.697 142.098 331.598 143.83 328.889 145.466L329.521 142.609H323.694L317.803 169.19H324.141Z" fill="black"/>
<path d="M378.281 146.14C376.581 143.431 373.348 142.096 369.821 142.096C365.22 142.096 360.416 144.856 359.317 149.82C357.266 159.066 370.92 157.437 369.91 161.98C369.514 163.775 367.706 164.996 365.457 164.996C362.748 164.996 361.15 163.213 360.122 161.168L355.176 164.337C356.761 167.807 359.815 169.705 364.058 169.705C369.629 169.705 374.364 167.245 375.591 161.724C377.744 152.018 364.026 153.954 365.029 149.412C365.38 147.827 366.735 146.805 369.188 146.805C371.182 146.805 372.549 148.236 373.52 149.61L378.281 146.14Z" fill="black"/>
<path d="M392.195 142.608L391.064 147.726H394.745L391.231 163.559C390.394 167.355 391.71 169.699 396.412 169.699C398.15 169.699 399.735 169.501 401.511 169.291L402.674 164.07C401.703 164.288 400.61 164.581 399.646 164.581C398.055 164.581 397.435 164.185 397.754 162.748L401.083 147.726H406.297L407.428 142.608H402.214L404.169 133.822H397.824L395.876 142.608H392.195Z" fill="black"/>
<path fill-rule="evenodd" clip-rule="evenodd" d="M449.361 158.657C449.892 156.261 451.348 155.238 453.399 153.801C454.741 156.772 456.549 159.43 459.009 161.724C457.38 163.059 455.438 163.775 453.642 163.775C450.786 163.775 448.761 161.366 449.361 158.657ZM468.511 150.683C467.092 153.142 465.45 155.487 463.488 157.634C461.642 155.59 460.013 153.04 458.62 150.331C462.645 147.622 466.945 144.804 468.012 139.999C469.047 135.36 465.904 131.776 461.048 131.776C455.629 131.776 450.946 135.143 449.789 140.363C448.984 143.993 449.547 146.287 450.939 149.258C446.825 151.654 443.655 154.414 442.646 158.97C441.017 166.33 445.176 169.704 452.077 169.704C455.706 169.704 459.208 168.426 462.294 165.819C465.738 169.187 467.105 169.704 470.632 169.704L471.948 163.775C470.121 163.724 468.555 162.701 467.29 161.264C469.904 158.459 471.923 155.334 473.788 152.216L468.511 150.683ZM455.821 139.897C456.377 137.392 458.383 135.967 459.808 135.967C461.904 135.967 462.594 137.705 462.14 139.75C461.61 142.146 458.939 144.293 456.434 145.878C455.655 144.095 455.348 142.044 455.821 139.897Z" fill="black"/>
<path d="M517.686 169.19L519.494 161.018L523.552 157.286L526.785 169.19H533.532L528.842 152.532L538.861 142.609H531.602L521.507 152.877H521.303L525.871 132.29H519.533L511.348 169.19H517.686Z" fill="black"/>
<path fill-rule="evenodd" clip-rule="evenodd" d="M568.366 142.608L564.123 161.776C562.775 162.997 560.328 164.581 557.574 164.581C555.427 164.581 554.552 163.463 555.338 159.892L559.171 142.608H552.826L548.795 160.805C547.6 166.217 549.383 169.699 554.699 169.699C557.81 169.699 560.903 167.968 563.625 166.332L562.986 169.188H568.813L574.704 142.608H568.366Z" fill="black"/>
<path d="M592.388 169.19L600.56 132.29H594.222L586.05 169.19H592.388Z" fill="black"/>
<path d="M612.842 142.608L611.705 147.726H615.385L611.884 163.559C611.034 167.355 612.357 169.699 617.059 169.699C618.797 169.699 620.382 169.501 622.165 169.291L623.315 164.07C622.35 164.288 621.264 164.581 620.292 164.581C618.708 164.581 618.082 164.185 618.395 162.748L621.73 147.726H626.944L628.081 142.608H622.861L624.81 133.822H618.471L616.523 142.608H612.842Z" fill="black"/>
<path fill-rule="evenodd" clip-rule="evenodd" d="M658.056 142.608L653.813 161.776C652.465 162.997 650.018 164.581 647.264 164.581C645.117 164.581 644.242 163.463 645.027 159.892L648.861 142.608H642.516L638.485 160.805C637.29 166.217 639.072 169.699 644.389 169.699C647.513 169.699 650.606 167.968 653.315 166.332L652.676 169.188H658.503L664.394 142.608H658.056Z" fill="black"/>
<path d="M681.006 169.19L684.59 153.044C684.737 152.366 688.296 148.75 691.465 148.75C691.925 148.75 692.289 148.75 692.59 148.801L694.059 142.098C690.264 142.194 687.721 143.996 685.485 147.165H685.376L686.386 142.609H680.558L674.667 169.19H681.006Z" fill="black"/>
<path fill-rule="evenodd" clip-rule="evenodd" d="M741.706 137.703L743.016 131.774H736.677L735.367 137.703H741.706ZM740.62 142.61H734.281L728.39 169.191H734.728L740.62 142.61V142.61Z" fill="black"/>
<path fill-rule="evenodd" clip-rule="evenodd" d="M758.291 169.19L762.521 150.072C764.304 148.699 766.84 147.216 768.476 147.216C770.757 147.312 771.358 148.488 770.885 150.635L766.776 169.19H773.102L777.345 150.072C779.134 148.699 781.664 147.216 783.3 147.216C785.574 147.312 786.181 148.488 785.709 150.635L781.587 169.19H787.932L792.175 150.072C793.568 143.734 790.149 142.098 787.395 142.098C782.999 142.098 780.067 143.779 777.383 145.977C776.776 143.434 774.463 142.098 771.709 142.098C768.073 142.098 765.869 143.268 762.981 145.466L763.62 142.609H757.844L751.953 169.19H758.291Z" fill="black"/>
<path fill-rule="evenodd" clip-rule="evenodd" d="M836.487 169.19L840.743 150.021C842.091 148.801 844.538 147.216 847.292 147.216C849.439 147.216 850.314 148.334 849.528 151.919L845.695 169.19H852.039L856.065 150.992C857.266 145.581 855.483 142.098 850.167 142.098C847.043 142.098 843.95 143.83 841.241 145.466L841.88 142.609H836.053L830.149 169.19H836.487Z" fill="black"/>
<path fill-rule="evenodd" clip-rule="evenodd" d="M891.659 156.923L892.247 154.316C893.659 147.926 891.072 142.048 884.107 142.099C876.906 142.099 871.366 147.466 869.494 155.9C867.635 164.334 870.778 169.702 877.679 169.702C882.797 169.702 886.739 168.066 890.024 164.283L886.069 161.414C884.069 163.261 882.401 164.584 879.43 164.584C876.471 164.584 874.484 162.437 875.609 156.923H891.659ZM876.561 152.629C877.481 148.948 879.903 146.802 882.976 146.802C886.03 146.802 887.506 148.948 886.791 152.629H876.561Z" fill="black"/>
<path d="M907.421 142.608L906.284 147.726H909.964L906.463 163.559C905.626 167.355 906.935 169.699 911.638 169.699C913.376 169.699 914.961 169.501 916.743 169.291L917.893 164.07C916.929 164.288 915.842 164.581 914.871 164.581C913.287 164.581 912.66 164.185 912.973 162.748L916.309 147.726H921.523L922.66 142.608H917.44L919.388 133.822H913.05L911.101 142.608H907.421Z" fill="black"/>
<path d="M934.689 147.725H946.446L929.859 164.695L928.862 169.187H949.717L950.848 164.076H937.973L954.509 147.111L955.506 142.607H935.826L934.689 147.725Z" fill="black"/>
</svg>
