<?xml version="1.0" encoding="UTF-8" standalone="no"?>
<!-- Created with Inkscape (http://www.inkscape.org/) -->

<svg
   xmlns:dc="http://purl.org/dc/elements/1.1/"
   xmlns:cc="http://creativecommons.org/ns#"
   xmlns:rdf="http://www.w3.org/1999/02/22-rdf-syntax-ns#"
   xmlns:svg="http://www.w3.org/2000/svg"
   xmlns="http://www.w3.org/2000/svg"
   xmlns:sodipodi="http://sodipodi.sourceforge.net/DTD/sodipodi-0.dtd"
   xmlns:inkscape="http://www.inkscape.org/namespaces/inkscape"
   id="svg2"
   version="1.1"
   inkscape:version="0.48.3.1 r9886"
   width="251.575"
   height="81.85"
   xml:space="preserve"
   sodipodi:docname="LinzKultur-Linz_verändert.svg"><metadata
     id="metadata8"><rdf:RDF><cc:Work
         rdf:about=""><dc:format>image/svg+xml</dc:format><dc:type
           rdf:resource="http://purl.org/dc/dcmitype/StillImage" /><dc:title></dc:title></cc:Work></rdf:RDF></metadata><defs
     id="defs6"><clipPath
       clipPathUnits="userSpaceOnUse"
       id="clipPath18"><path
         d="M 0,654.805 0,0 l 2012.6,0 0,654.805 -2012.6,0 z"
         id="path20" /></clipPath><clipPath
       clipPathUnits="userSpaceOnUse"
       id="clipPath28"><path
         d="m 1198.42,128.711 703.94,0 0,307.988 -703.94,0 0,-307.988 z"
         id="path30" /></clipPath><clipPath
       clipPathUnits="userSpaceOnUse"
       id="clipPath42"><path
         d="m 1198.48,436.699 703.88,0 0,-307.988 -703.88,0 0,307.988 z"
         id="path44" /></clipPath><clipPath
       clipPathUnits="userSpaceOnUse"
       id="clipPath52"><path
         d="m 1198.42,128.711 703.94,0 0,307.988 -703.94,0 0,-307.988 z"
         id="path54" /></clipPath><clipPath
       clipPathUnits="userSpaceOnUse"
       id="clipPath62"><path
         d="m 1198.48,436.699 703.88,0 0,-307.988 -703.88,0 0,307.988 z"
         id="path64" /></clipPath><clipPath
       clipPathUnits="userSpaceOnUse"
       id="clipPath72"><path
         d="m 1198.42,128.711 703.94,0 0,307.988 -703.94,0 0,-307.988 z"
         id="path74" /></clipPath><clipPath
       clipPathUnits="userSpaceOnUse"
       id="clipPath94"><path
         d="m 1198.48,436.699 703.88,0 0,-307.988 -703.88,0 0,307.988 z"
         id="path96" /></clipPath><clipPath
       clipPathUnits="userSpaceOnUse"
       id="clipPath104"><path
         d="m 1198.42,128.711 703.94,0 0,307.988 -703.94,0 0,-307.988 z"
         id="path106" /></clipPath><clipPath
       clipPathUnits="userSpaceOnUse"
       id="clipPath124"><path
         d="m 0,0 2012.6,0 0,654.805 L 0,654.805 0,0 z"
         id="path126" /></clipPath><clipPath
       clipPathUnits="userSpaceOnUse"
       id="clipPath134"><path
         d="m 204.34,203.691 562.59,0 0,249.864 -562.59,0 0,-249.864 z"
         id="path136" /></clipPath></defs><sodipodi:namedview
     pagecolor="#ffffff"
     bordercolor="#666666"
     borderopacity="1"
     objecttolerance="10"
     gridtolerance="10"
     guidetolerance="10"
     inkscape:pageopacity="0"
     inkscape:pageshadow="2"
     inkscape:window-width="1315"
     inkscape:window-height="866"
     id="namedview4"
     showgrid="false"
     inkscape:zoom="3.4874026"
     inkscape:cx="126.46409"
     inkscape:cy="34.403575"
     inkscape:window-x="0"
     inkscape:window-y="27"
     inkscape:window-maximized="0"
     inkscape:current-layer="g10" /><g
     id="g10"
     inkscape:groupmode="layer"
     inkscape:label="ink_ext_XXXXXX"
     transform="matrix(1.25,0,0,-1.25,0,81.85)"><g
       id="g4227"><g
         id="g4178"><g
           id="g4123"><path
             d="m 156.518,34.9531 c 0,2.5606 -0.183,4.1922 -1.792,6.0664 -1.935,2.2696 -4.733,2.4563 -8.065,2.4563 l -2.982,0 0,-3.0969 2.593,0 c 2.02,0 3.514,0.0371 5.136,-1.4344 0.925,-0.925 1.336,-2.0976 1.393,-3.455 0.004,-0.1106 0.007,-2.4094 0.007,-2.4094 l 0,-11.252 3.71,0 0,13.125"
             style="fill:#7b7979;fill-opacity:1;fill-rule:nonzero;stroke:none"
             id="path32"
             inkscape:connector-curvature="0" /><path
             d="m 156.518,34.9531 c 0,2.5606 -0.183,4.1922 -1.792,6.0664 -1.935,2.2696 -4.733,2.4563 -8.065,2.4563 l -2.982,0 0,-3.0969 2.593,0 c 2.02,0 3.514,0.0371 5.136,-1.4344 0.925,-0.925 1.336,-2.0976 1.393,-3.455 0.004,-0.1106 0.007,-2.4094 0.007,-2.4094 l 0,-11.252 3.71,0 0,13.125"
             style="fill:#000000;stroke:none;stroke-width:0.09500000000000000;stroke-linecap:butt;stroke-linejoin:miter;stroke-miterlimit:4;stroke-opacity:1;stroke-dasharray:none"
             id="path34"
             inkscape:connector-curvature="0" /><g
             style="fill:#999999;stroke:none"
             transform="scale(0.1,0.1)"
             id="g38"><g
               style="fill:#999999;stroke:none"
               id="g40"
               clip-path="url(#clipPath42)"><path
                 d="m 1413.37,405.977 c -0.93,-3.809 -4.31,-6.629 -8.35,-6.629 l -34.51,0.078 c -0.06,27.312 0,27.273 0,27.273 0,1.004 0.18,1.992 0.49,2.891 0.91,3.808 4.3,6.64 8.34,6.64 l 34.43,-0.039 0.09,-27.312 -0.05,-0.891 c -0.07,-0.691 -0.22,-1.367 -0.44,-2.011"
                 style="fill:#999999;stroke:none;stroke-width:0.94999999000000002;stroke-linecap:butt;stroke-linejoin:miter;stroke-miterlimit:4;stroke-opacity:1;stroke-dasharray:none"
                 id="path46"
                 inkscape:connector-curvature="0" /></g></g><g
             transform="scale(0.1,0.1)"
             id="g48"><g
               id="g50"
               clip-path="url(#clipPath52)"><path
                 d="m 1337.87,218.281 -138.97,0 0,216.477 37.08,0 0,-185.539 101.87,0 0.02,-30.938"
                 style="fill:#7b7979;fill-opacity:1;fill-rule:nonzero;stroke:none"
                 id="path56"
                 inkscape:connector-curvature="0" /></g></g><g
             style="fill:#000000"
             transform="scale(0.1,0.1)"
             id="g58"><g
               style="fill:#000000"
               id="g60"
               clip-path="url(#clipPath62)"><path
                 d="m 1337.87,218.281 -138.97,0 0,216.477 37.08,0 0,-185.539 101.87,0 0.02,-30.938"
                 style="fill:#000000;stroke:#7b7979;stroke-width:0.94999999000000002;stroke-linecap:butt;stroke-linejoin:miter;stroke-miterlimit:4;stroke-opacity:1;stroke-dasharray:none"
                 id="path66"
                 inkscape:connector-curvature="0" /></g></g><path
             d="m 137.231,21.8281 3.74531,0 0,15.8098 -3.74531,0 0,-15.8098 z"
             style="fill:#7b7979;fill-opacity:1;fill-rule:nonzero;stroke:none"
             id="path76"
             inkscape:connector-curvature="0" /><path
             d="m 140.976,37.6379 -3.746,0 0,-15.8098 3.746,0 0,15.8098"
             style="fill:#000000;stroke:none;stroke-width:0.09500000000000000;stroke-linecap:butt;stroke-linejoin:miter;stroke-miterlimit:4;stroke-opacity:1;stroke-dasharray:none"
             id="path78"
             inkscape:connector-curvature="0" /><path
             d="m 159.952,25.3594 14.756,15.0195 -13.842,-0.0039 10e-4,3.1008 17.947,0 0.002,-3.7278 -14.568,-14.8222 14.57,0.0019 0,-3.0996 -18.865,-0.0039 -0.001,3.5352"
             style="fill:#7b7979;fill-opacity:1;fill-rule:nonzero;stroke:none"
             id="path80"
             inkscape:connector-curvature="0" /><path
             d="m 159.952,25.3594 14.756,15.0195 -13.842,-0.0039 10e-4,3.1008 17.947,0 0.002,-3.7278 -14.568,-14.8222 14.57,0.0019 0,-3.0996 -18.865,-0.0039 -0.001,3.5352"
             style="fill:#000000;stroke:none;stroke-width:0.09500000000000000;stroke-linecap:butt;stroke-linejoin:miter;stroke-miterlimit:4;stroke-opacity:1;stroke-dasharray:none"
             id="path82"
             inkscape:connector-curvature="0" /><path
             d="m 154.274,12.9707 1.057,0 1.561,4.9883 -0.849,0 -1.206,-4.2266 -0.02,0 -1.116,4.2266 -0.908,0 1.481,-4.9883"
             style="fill:#000000;fill-opacity:1;fill-rule:nonzero;stroke:none"
             id="path84"
             inkscape:connector-curvature="0" /><path
             d="m 161.147,15.2031 0,0.4239 c 0,1.6503 -0.356,2.4316 -1.779,2.4316 -1.728,0 -1.897,-1.2051 -1.897,-2.668 0,-2.2031 0.841,-2.5195 1.897,-2.5195 1.047,0 1.73,0.5039 1.74,1.6113 l -0.889,0 c -0.03,-0.5039 -0.317,-0.9492 -0.869,-0.9492 -0.633,0 -1.008,0.2773 -1.008,1.6699 l 2.805,0 z m -2.805,0.6133 c 0.009,1.3828 0.434,1.6309 0.947,1.6309 0.593,0 0.999,-0.1797 0.999,-1.6309 l -1.946,0"
             style="fill:#000000;fill-opacity:1;fill-rule:evenodd;stroke:none"
             id="path86"
             inkscape:connector-curvature="0" /><path
             d="m 163.132,17.959 -0.809,0 0,-4.9883 0.809,0 0,2.9434 c 0,0.6718 0.228,1.3535 1.127,1.3535 0.148,0 0.286,-0.0293 0.435,-0.0488 l 0,0.8398 c -0.791,0 -1.206,-0.0898 -1.542,-0.8496 l -0.02,0 0,0.75"
             style="fill:#000000;fill-opacity:1;fill-rule:nonzero;stroke:none"
             id="path88"
             inkscape:connector-curvature="0" /><g
             style="fill:#000000;stroke:none"
             transform="scale(0.1,0.1)"
             id="g90"><g
               style="fill:#000000;stroke:none"
               id="g92"
               clip-path="url(#clipPath94)"><path
                 d="m 1631.32,179.59 -8.09,0 0,-49.883 8.09,0 0,29.434 c 0,6.718 2.28,13.535 11.27,13.535 1.48,0 2.86,-0.293 4.35,-0.488 l 0,8.398 c -7.91,0 -12.06,-0.898 -15.42,-8.496 l -0.2,0 0,7.5"
                 style="fill:#000000;stroke:none;stroke-width:0.94999999000000002;stroke-linecap:butt;stroke-linejoin:miter;stroke-miterlimit:4;stroke-opacity:1;stroke-dasharray:none"
                 id="path98"
                 inkscape:connector-curvature="0" /></g></g><g
             style="fill:#000000;stroke:none"
             transform="scale(0.1,0.1)"
             id="g100"><g
               style="fill:#000000;stroke:none"
               id="g102"
               clip-path="url(#clipPath104)"><path
                 d="m 1681.49,129.707 8.88,0 c -0.59,3.848 -0.98,7.891 -0.98,11.855 l 0,24.004 c 0,8.399 -3.36,15.02 -16.2,15.02 -10.57,0 -16.5,-3.848 -16.9,-15.02 l 8.79,0 c -0.49,5.235 2.38,8.907 7.81,8.907 8.69,0 8.6,-7.227 8.4,-13.848 -11.37,0.293 -26.19,-0.391 -26.19,-15.508 0,-9.59 3.07,-16.406 13.64,-16.406 6.22,0 10.07,2.48 12.55,8.203 l 0.2,0 0,-7.207 z m -0.2,24.805 c 0.78,-16.114 -5.34,-19.18 -10.28,-19.18 -5.43,0 -7.8,4.356 -7.8,9.18 0,10.586 10.37,9.902 18.08,10 m -3.86,33.476 9.28,0 0,10.293 -9.28,0 0,-10.293 z m -17.39,0 9.28,0 0,10.293 -9.28,0 0,-10.293 z"
                 style="fill:#000000;fill-opacity:1;fill-rule:evenodd;stroke:none"
                 id="path108"
                 inkscape:connector-curvature="0" /><path
                 d="m 1738.4,129.707 0,34.57 c 0,9.883 -2.68,16.309 -13.34,16.309 -6.43,0 -10.19,-1.777 -13.34,-7.402 l -0.4,0 0,6.406 -8.6,0 c 0.3,-3.438 0.5,-6.914 0.5,-10.371 l 0,-39.512 8.1,0 0,29.531 c 0,6.817 1.29,14.727 10.17,14.727 6.92,0 8.8,-4.336 8.8,-9.688 l 0,-34.57 8.11,0"
                 style="fill:#000000;fill-opacity:1;fill-rule:nonzero;stroke:none"
                 id="path110"
                 inkscape:connector-curvature="0" /><path
                 d="m 1778.99,174.551 -0.29,0 c -2.77,3.965 -6.23,6.035 -10.97,6.035 -16.1,0 -16.49,-14.336 -16.49,-26.777 0,-21.934 8.09,-25.098 16.09,-25.098 5.25,0 8.7,2.266 11.46,6.934 l 0.2,0 0,-5.938 8.1,0 0,71.328 -8.1,0 0,-26.484 z m 0,-17.871 c 0,-10.078 0,-21.348 -9.08,-21.348 -10.18,0 -10.18,10.859 -10.18,18.379 0,13.34 1.19,20.254 9.88,20.254 8.99,0 9.38,-10.664 9.38,-17.285"
                 style="fill:#000000;fill-opacity:1;fill-rule:evenodd;stroke:none"
                 id="path112"
                 inkscape:connector-curvature="0" /><path
                 d="m 1834.03,152.031 0,4.239 c 0,16.503 -3.56,24.316 -17.79,24.316 -17.29,0 -18.97,-12.051 -18.97,-26.68 0,-22.031 8.4,-25.195 18.97,-25.195 10.48,0 17.29,5.039 17.39,16.113 l -8.9,0 c -0.29,-5.039 -3.15,-9.492 -8.69,-9.492 -6.32,0 -10.08,2.773 -10.08,16.699 l 28.07,0 z m -28.07,6.133 c 0.11,13.828 4.36,16.309 9.49,16.309 5.93,0 9.98,-1.797 9.98,-16.309 l -19.47,0"
                 style="fill:#000000;fill-opacity:1;fill-rule:evenodd;stroke:none"
                 id="path114"
                 inkscape:connector-curvature="0" /><path
                 d="m 1851.91,179.59 -8.1,0 0,-49.883 8.1,0 0,29.434 c 0,6.718 2.27,13.535 11.26,13.535 1.48,0 2.87,-0.293 4.35,-0.488 l 0,8.398 c -7.91,0 -12.05,-0.898 -15.42,-8.496 l -0.19,0 0,7.5"
                 style="fill:#000000;fill-opacity:1;fill-rule:nonzero;stroke:none"
                 id="path116"
                 inkscape:connector-curvature="0" /><path
                 d="m 1875,179.59 0,-6.113 8.19,0 0,-35.489 c 0,-5.722 3.46,-8.867 11.17,-8.867 2.66,0 5.34,0.586 8,0.781 l 0,6.231 c -1.78,-0.215 -3.06,-0.391 -3.65,-0.391 -7.41,0 -7.41,4.043 -7.41,7.207 l 0,30.528 10.86,0 0,6.113 -10.86,0 0,13.242 -8.11,-3.652 0,-9.59 -8.19,0"
                 style="fill:#000000;fill-opacity:1;fill-rule:nonzero;stroke:none"
                 id="path118"
                 inkscape:connector-curvature="0" /></g></g></g><g
           id="g120"
           transform="scale(0.1,0.1)"
           style="fill:#000000;stroke:#000000;stroke-opacity:1"><g
             clip-path="url(#clipPath124)"
             id="g122"
             style="fill:#000000;stroke:#000000;stroke-opacity:1"><path
               inkscape:connector-curvature="0"
               id="path128"
               style="fill:#000000;stroke:#000000;stroke-width:2.50000000000000000;stroke-linecap:butt;stroke-linejoin:miter;stroke-miterlimit:4;stroke-opacity:1;stroke-dasharray:none"
               d="m 976.371,-0.3125 0,655.1175" /></g></g><g
           id="g4165"><path
             d="m 21.3367,43.9324 54.1336,0 c 0.109,0 0.1414,-0.0332 0.1414,-0.1414 l 0,-22.1074 -54.275,0 0,22.2488 z m -0.8969,-23.5242 56.2122,0 0,24.8945 -56.2122,0 0,-24.8945"
             style="fill:#ffffff;fill-opacity:1;fill-rule:evenodd;stroke:none"
             id="path138"
             inkscape:connector-curvature="0" /><path
             d="m 32.1539,41.5234 1.13438,0 0,1.03906 -1.13438,0 0,-1.03906 z"
             style="fill:#ffffff;fill-opacity:1;fill-rule:evenodd;stroke:none"
             id="path140"
             inkscape:connector-curvature="0" /><path
             d="m 24.218,35.9961 4.0629,0 0,1.041 -2.693,0 c -0.1078,0 -0.141,0.0313 -0.141,0.1406 l 0,5.3379 -1.2289,0 0,-6.5195"
             style="fill:#ffffff;fill-opacity:1;fill-rule:evenodd;stroke:none"
             id="path142"
             inkscape:connector-curvature="0" /><path
             d="m 32.1539,35.9961 1.13438,0 0,4.67578 -1.13438,0 0,-4.67578 z"
             style="fill:#ffffff;fill-opacity:1;fill-rule:evenodd;stroke:none"
             id="path144"
             inkscape:connector-curvature="0" /><path
             d="m 38.5309,40.2012 0,0.4726 -0.9918,0 0,-4.6777 1.0871,0 0,3.3074 c 0,0.2336 0.6808,0.5676 0.9922,0.5676 l 0.0464,0 c 0.3872,0 0.5672,-0.2332 0.5672,-0.6152 l 0,-3.2598 1.1332,0 0,3.3074 c 0,0.8156 -0.4664,1.4641 -1.2754,1.4641 l -0.189,0 c -0.561,0 -0.9906,-0.366 -1.3699,-0.5664"
             style="fill:#ffffff;fill-opacity:1;fill-rule:evenodd;stroke:none"
             id="path146"
             inkscape:connector-curvature="0" /><path
             d="m 45.2387,39.7754 2.0312,0 c -0.1011,-0.3789 -2.2203,-2.832 -2.2203,-3.0234 l 0,-0.7559 3.6844,0 0,0.8984 -2.2199,0 c 0.1199,0.4473 2.2199,2.8301 2.2199,3.0703 l 0,0.709 -3.4953,0 0,-0.8984"
             style="fill:#ffffff;fill-opacity:1;fill-rule:evenodd;stroke:none"
             id="path148"
             inkscape:connector-curvature="0" /><path
             d="m 51.0488,34.5332 -29.1918,0 0,-12.3301 9.9188,0 0,10.8653 1.2281,0 0.0344,-5.6954 4.5008,5.6954 1.5117,0 -3.402,-4.1582 3.7321,-6.7071 3.1652,0 c -0.6981,0.6074 -1.0395,0.8946 -1.0395,2.2207 l 0,5.5742 1.1344,0 0,-5.8105 c 0,-1.0273 0.6559,-1.4531 1.6832,-1.2578 0.4496,0.0859 1.8598,0.8984 1.8598,1.2109 l 0,5.8574 1.1328,0 0,-7.7949 2.8824,0 0,10.8653 1.1328,0 0,-10.8653 3.4489,0 c -0.2848,0.4258 -0.3782,0.5567 -0.3782,1.2754 l 0,5.5742 -1.2757,0 0,0.9453 1.2757,0 0,2.5977 1.1332,0 0,-2.5977 1.843,0 0,-0.9453 -1.843,0 0,-5.6679 c 0,-0.7344 1.3301,-0.4375 1.8899,-0.4258 l 0,-0.7559 2.834,0 c -0.1817,0.2481 -0.4977,0.3555 -0.7078,0.7559 -0.152,0.291 -0.284,0.7832 -0.284,1.2285 l 0,5.8105 1.134,0 0,-5.9511 c 0,-0.9043 0.7918,-1.3574 1.7203,-1.1055 0.4308,0.1152 1.8226,0.8828 1.8226,1.1992 l 0,5.8574 1.086,0 0,-7.7949 2.4089,0 0,7.7949 1.1344,0 0,-1.5117 c 0.3988,0.459 0.4469,0.7559 0.9988,1.1739 0.1348,0.1015 1.5989,0.7949 1.5989,0.3378 l 0,-0.9921 c -0.7891,0 -1.4332,-0.3653 -1.777,-0.8223 -0.2211,-0.2949 -0.8207,-1.3398 -0.8207,-1.7754 l 0,-4.2051 6.5176,0 0,21.211 -24.043,0 0,-8.8809"
             style="fill:#ffffff;fill-opacity:1;fill-rule:evenodd;stroke:none"
             id="path150"
             inkscape:connector-curvature="0" /><path
             d="m 33.0039,25.6992 0,-3.4961 4.975,0.0078 -3.1801,5.6621 c -0.1586,-0.1074 -1.7949,-2.0839 -1.7949,-2.1738"
             style="fill:#ffffff;fill-opacity:1;fill-rule:evenodd;stroke:none"
             id="path152"
             inkscape:connector-curvature="0" /><path
             d="m 45.0027,22.2031 1.1813,0 0,0.9453 C 45.975,23.0098 45.85,22.8086 45.652,22.6406 45.4492,22.4688 45.1609,22.3418 45.0027,22.2031"
             style="fill:#ffffff;fill-opacity:1;fill-rule:evenodd;stroke:none"
             id="path154"
             inkscape:connector-curvature="0" /><path
             d="m 62.7797,22.1836 1.1652,0.0195 -0.0051,0.9043 -1.1601,-0.9238"
             style="fill:#ffffff;fill-opacity:1;fill-rule:evenodd;stroke:none"
             id="path156"
             inkscape:connector-curvature="0" /><path
             d="m 63.9398,23.1074 0.0051,-0.9043 -1.1652,-0.0195 1.1601,0.9238 z M 45.0027,22.2031 c 0.1582,0.1387 0.4465,0.2657 0.6493,0.4375 0.198,0.168 0.323,0.3692 0.532,0.5078 l 0,-0.9453 -1.1813,0 z m -11.9988,3.4961 c 0,0.0899 1.6363,2.0664 1.7949,2.1738 l 3.1801,-5.6621 -4.975,-0.0078 0,3.4961 z m 18.0449,17.7149 24.043,0 0,-21.211 -6.5176,0 0,4.2051 c 0,0.4356 0.5996,1.4805 0.8207,1.7754 0.3438,0.457 0.9879,0.8223 1.777,0.8223 l 0,0.9921 c 0,0.4571 -1.4641,-0.2363 -1.5989,-0.3378 -0.5519,-0.418 -0.6,-0.7149 -0.9988,-1.1739 l 0,1.5117 -1.1344,0 0,-7.7949 -2.4089,0 0,7.7949 -1.086,0 0,-5.8574 c 0,-0.3164 -1.3918,-1.084 -1.8226,-1.1992 -0.9285,-0.2519 -1.7203,0.2012 -1.7203,1.1055 l 0,5.9511 -1.134,0 0,-5.8105 c 0,-0.4453 0.132,-0.9375 0.284,-1.2285 0.2101,-0.4004 0.5261,-0.5078 0.7078,-0.7559 l -2.834,0 0,0.7559 c -0.5598,-0.0117 -1.8899,-0.3086 -1.8899,0.4258 l 0,5.6679 1.843,0 0,0.9453 -1.843,0 0,2.5977 -1.1332,0 0,-2.5977 -1.2757,0 0,-0.9453 1.2757,0 0,-5.5742 c 0,-0.7187 0.0934,-0.8496 0.3782,-1.2754 l -3.4489,0 0,10.8653 -1.1328,0 0,-10.8653 -2.8824,0 0,7.7949 -1.1328,0 0,-5.8574 c 0,-0.3125 -1.4102,-1.125 -1.8598,-1.2109 -1.0273,-0.1953 -1.6832,0.2305 -1.6832,1.2578 l 0,5.8105 -1.1344,0 0,-5.5742 c 0,-1.3261 0.3414,-1.6133 1.0395,-2.2207 l -3.1652,0 -3.7321,6.7071 3.402,4.1582 -1.5117,0 -4.5008,-5.6954 -0.0344,5.6954 -1.2281,0 0,-10.8653 -9.9188,0 0,12.3301 29.1918,0 0,8.8809 z m -18.8949,-2.7403 1.1344,0 0,-4.6758 -1.1344,0 0,4.6758 z m -7.9359,1.8418 1.2289,0 0,-5.3379 c 0,-0.1093 0.0332,-0.1406 0.141,-0.1406 l 2.693,0 0,-1.041 -4.0629,0 0,6.5195 z m 21.0207,-1.8418 3.4953,0 0,-0.709 c 0,-0.2402 -2.1,-2.623 -2.2199,-3.0703 l 2.2199,0 0,-0.8984 -3.6844,0 0,0.7559 c 0,0.1914 2.1192,2.6445 2.2203,3.0234 l -2.0312,0 0,0.8984 z m -6.7078,-0.4726 c 0.3793,0.2004 0.8089,0.5664 1.3699,0.5664 l 0.189,0 c 0.809,0 1.2754,-0.6485 1.2754,-1.4641 l 0,-3.3074 -1.1332,0 0,3.2598 c 0,0.382 -0.18,0.6152 -0.5672,0.6152 l -0.0464,0 c -0.3114,0 -0.9922,-0.334 -0.9922,-0.5676 l 0,-3.3074 -1.0871,0 0,4.6777 0.9918,0 0,-0.4726 z m -6.377,2.3613 1.1344,0 0,-1.0391 -1.1344,0 0,1.0391 z m -10.8172,-20.8789 54.275,0 0,22.1074 c 0,0.1082 -0.0324,0.1414 -0.1414,0.1414 l -54.1336,0 0,-22.2488"
             style="fill:#000000;fill-opacity:1;fill-rule:evenodd;stroke:none"
             id="path158"
             inkscape:connector-curvature="0" /></g></g><rect
         transform="matrix(0.8,0,0,-0.8,0,65.48)"
         y="0.12728699"
         x="0.28674635"
         height="82.296204"
         width="251.76331"
         id="rect4225"
         style="color:#000000;fill:#000000;fill-opacity:0;fill-rule:nonzero;stroke:#000000;stroke-width:0.563;stroke-linecap:butt;stroke-linejoin:miter;stroke-miterlimit:4;stroke-opacity:1;stroke-dasharray:none;stroke-dashoffset:0;marker:none;visibility:visible;display:inline;overflow:visible;enable-background:accumulate" /></g></g></svg>