<?xml version="1.0" encoding="UTF-8" standalone="no"?>
<!-- Created with Inkscape (http://www.inkscape.org/) -->
<svg
   xmlns:dc="http://purl.org/dc/elements/1.1/"
   xmlns:cc="http://creativecommons.org/ns#"
   xmlns:rdf="http://www.w3.org/1999/02/22-rdf-syntax-ns#"
   xmlns:svg="http://www.w3.org/2000/svg"
   xmlns="http://www.w3.org/2000/svg"
   xmlns:sodipodi="http://sodipodi.sourceforge.net/DTD/sodipodi-0.dtd"
   xmlns:inkscape="http://www.inkscape.org/namespaces/inkscape"
   width="400"
   height="400"
   id="svg2"
   sodipodi:version="0.32"
   inkscape:version="0.46"
   version="1.0"
   sodipodi:docname="kunstuni_logo_www_gro_SW.svg"
   inkscape:output_extension="org.inkscape.output.svg.inkscape">
  <defs
     id="defs4">
    <clipPath
       clipPathUnits="userSpaceOnUse"
       id="clipPath3414">
      <path
         d="M 0,595.276 L 841.89,595.276 L 841.89,0 L 0,0 L 0,595.276 z"
         id="path3416" />
    </clipPath>
    <clipPath
       clipPathUnits="userSpaceOnUse"
       id="clipPath2426">
      <path
         d="M 0,0 L 6963.97,0 L 6963.97,1337.48 L 0,1337.48 L 0,0 z"
         id="path2428" />
    </clipPath>
    <inkscape:perspective
       sodipodi:type="inkscape:persp3d"
       inkscape:vp_x="0 : 526.18109 : 1"
       inkscape:vp_y="0 : 1000 : 0"
       inkscape:vp_z="744.09448 : 526.18109 : 1"
       inkscape:persp3d-origin="372.04724 : 350.78739 : 1"
       id="perspective10" />
  </defs>
  <sodipodi:namedview
     id="base"
     pagecolor="#ffffff"
     bordercolor="#666666"
     borderopacity="1.0"
     gridtolerance="10000"
     guidetolerance="10"
     objecttolerance="10"
     inkscape:pageopacity="0.0"
     inkscape:pageshadow="2"
     inkscape:zoom="1.093707"
     inkscape:cx="242.26908"
     inkscape:cy="181.58646"
     inkscape:document-units="px"
     inkscape:current-layer="layer1"
     showgrid="false"
     showguides="true"
     inkscape:guide-bbox="true"
     inkscape:window-width="899"
     inkscape:window-height="673"
     inkscape:window-x="6"
     inkscape:window-y="0">
    <sodipodi:guide
       orientation="1,0"
       position="49.582418,212.04396"
       id="guide2385" />
    <sodipodi:guide
       orientation="1,0"
       position="350.24176,190.41758"
       id="guide2387" />
  </sodipodi:namedview>
  <metadata
     id="metadata7">
    <rdf:RDF>
      <cc:Work
         rdf:about="">
        <dc:format>image/svg+xml</dc:format>
        <dc:type
           rdf:resource="http://purl.org/dc/dcmitype/StillImage" />
      </cc:Work>
    </rdf:RDF>
  </metadata>
  <g
     inkscape:label="original"
     inkscape:groupmode="layer"
     id="layer1"
     style="display:inline">
    <g
       transform="matrix(0.9147473,0,0,-0.9147473,-184.5929,471.95327)"
       id="g3885">
      <g
         transform="translate(501.9189,276.8906)"
         id="g3396">
        <path
           id="path3398"
           style="fill:#231f20;fill-opacity:1;fill-rule:nonzero;stroke:none"
           d="M 0,0 L -1.562,0 L -2.967,-5.119 L -4.645,0 L -5.777,0 L -7.469,-5.119 L -8.873,0 L -10.422,0 L -8.171,-7.27 L -6.909,-7.27 L -5.218,-2.193 L -3.512,-7.27 L -2.265,-7.27 L 0,0 z" />
      </g>
      <g
         transform="translate(512.7627,276.8906)"
         id="g3400">
        <path
           id="path3402"
           style="fill:#231f20;fill-opacity:1;fill-rule:nonzero;stroke:none"
           d="M 0,0 L -1.563,0 L -2.968,-5.119 L -4.646,0 L -5.777,0 L -7.47,-5.119 L -8.875,0 L -10.423,0 L -8.172,-7.27 L -6.91,-7.27 L -5.219,-2.193 L -3.513,-7.27 L -2.266,-7.27 L 0,0 z" />
      </g>
      <g
         transform="translate(523.6055,276.8906)"
         id="g3404">
        <path
           id="path3406"
           style="fill:#231f20;fill-opacity:1;fill-rule:nonzero;stroke:none"
           d="M 0,0 L -1.563,0 L -2.968,-5.119 L -4.645,0 L -5.777,0 L -7.469,-5.119 L -8.874,0 L -10.422,0 L -8.172,-7.27 L -6.91,-7.27 L -5.219,-2.193 L -3.513,-7.27 L -2.266,-7.27 L 0,0 z" />
      </g>
      <path
         id="path3408"
         style="fill:#231f20;fill-opacity:1;fill-rule:nonzero;stroke:none"
         d="M 526.778,271.371 L 525.029,271.371 L 525.029,269.621 L 526.778,269.621 L 526.778,271.371 z" />
      <g
         id="g3410">
        <g
           clip-path="url(#clipPath3414)"
           id="g3412">
          <g
             transform="translate(535.0693,269.6211)"
             id="g3418">
            <path
               id="path3420"
               style="fill:#231f20;fill-opacity:1;fill-rule:evenodd;stroke:none"
               d="M 0,0 L 0,7.27 L -1.463,7.27 L -1.463,2.84 C -1.463,1.721 -2.15,1.219 -2.968,1.219 C -3.785,1.219 -4.431,1.707 -4.431,2.84 L -4.431,7.27 L -5.893,7.27 L -5.893,2.625 C -5.893,1.807 -5.721,1.119 -5.161,0.574 C -4.731,0.158 -4.115,-0.086 -3.369,-0.086 C -2.639,-0.086 -1.936,0.188 -1.435,0.732 L -1.435,0 L 0,0 z" />
          </g>
          <g
             transform="translate(540.7227,275.6426)"
             id="g3422">
            <path
               id="path3424"
               style="fill:#231f20;fill-opacity:1;fill-rule:nonzero;stroke:none"
               d="M 0,0 L 0,1.119 L -1.448,1.119 L -1.448,2.164 C -1.448,2.695 -1.19,3.012 -0.646,3.012 L 0,3.012 L 0,4.258 L -0.918,4.258 C -2.279,4.258 -2.911,3.283 -2.911,2.236 L -2.911,1.119 L -3.742,1.119 L -3.742,0 L -2.911,0 L -2.911,-6.021 L -1.448,-6.021 L -1.448,0 L 0,0 z" />
          </g>
          <g
             transform="translate(546.5605,273.3926)"
             id="g3426">
            <path
               id="path3428"
               style="fill:#231f20;fill-opacity:1;fill-rule:evenodd;stroke:none"
               d="M 0,0 C 0,-1.146 -0.157,-2.279 -1.477,-2.279 C -2.795,-2.279 -2.967,-1.146 -2.967,0 C -2.967,1.146 -2.795,2.279 -1.477,2.279 C -0.157,2.279 0,1.146 0,0 M 1.463,-3.729 L 1.463,3.498 L 0.044,3.498 L 0.044,2.723 C -0.501,3.383 -1.09,3.584 -1.863,3.584 C -2.595,3.584 -3.211,3.354 -3.612,2.953 C -4.314,2.25 -4.43,1.232 -4.43,0 C -4.43,-1.232 -4.314,-2.252 -3.612,-2.953 C -3.211,-3.355 -2.608,-3.6 -1.878,-3.6 C -1.132,-3.6 -0.53,-3.398 0,-2.768 L 0,-3.699 C 0,-4.674 -0.473,-5.549 -1.706,-5.549 C -2.422,-5.549 -2.824,-5.334 -3.282,-4.904 L -4.214,-5.836 C -3.455,-6.537 -2.753,-6.795 -1.648,-6.795 C 0.287,-6.795 1.463,-5.506 1.463,-3.729" />
          </g>
          <path
             id="path3430"
             style="fill:#231f20;fill-opacity:1;fill-rule:nonzero;stroke:none"
             d="M 552.242,271.371 L 550.493,271.371 L 550.493,269.621 L 552.242,269.621 L 552.242,271.371 z" />
          <g
             transform="translate(558.5977,272.2461)"
             id="g3432">
            <path
               id="path3434"
               style="fill:#231f20;fill-opacity:1;fill-rule:evenodd;stroke:none"
               d="M 0,0 C 0,-0.518 -0.101,-0.861 -0.315,-1.076 C -0.703,-1.449 -1.118,-1.492 -1.678,-1.492 C -2.595,-1.492 -3.011,-1.119 -3.011,-0.459 C -3.011,0.199 -2.566,0.586 -1.706,0.586 L 0,0.586 L 0,0 z M 1.462,-2.625 L 1.462,2.236 C 1.462,3.885 0.459,4.73 -1.534,4.73 C -2.739,4.73 -3.455,4.486 -4.144,3.684 L -3.183,2.781 C -2.781,3.297 -2.395,3.482 -1.592,3.482 C -0.459,3.482 0,3.039 0,2.121 L 0,1.605 L -1.921,1.605 C -3.584,1.605 -4.431,0.73 -4.431,-0.488 C -4.431,-1.105 -4.229,-1.664 -3.857,-2.051 C -3.412,-2.496 -2.81,-2.711 -1.907,-2.711 C -1.004,-2.711 -0.502,-2.496 0.028,-1.965 L 0.028,-2.625 L 1.462,-2.625 z" />
          </g>
          <g
             transform="translate(567.7617,270.5684)"
             id="g3436">
            <path
               id="path3438"
               style="fill:#231f20;fill-opacity:1;fill-rule:nonzero;stroke:none"
               d="M 0,0 L -1.003,0.961 C -1.462,0.459 -1.82,0.271 -2.394,0.271 C -2.953,0.271 -3.426,0.502 -3.741,0.918 C -4.058,1.318 -4.172,1.85 -4.172,2.695 C -4.172,3.541 -4.058,4.057 -3.741,4.459 C -3.426,4.873 -2.953,5.104 -2.394,5.104 C -1.82,5.104 -1.462,4.916 -1.003,4.414 L 0,5.391 C -0.688,6.121 -1.391,6.408 -2.394,6.408 C -4.028,6.408 -5.634,5.418 -5.634,2.695 C -5.634,-0.029 -4.028,-1.033 -2.394,-1.033 C -1.391,-1.033 -0.688,-0.732 0,0" />
          </g>
          <path
             id="path3440"
             style="fill:#231f20;fill-opacity:1;fill-rule:nonzero;stroke:none"
             d="M 571.351,271.371 L 569.602,271.371 L 569.602,269.621 L 571.351,269.621 L 571.351,271.371 z" />
          <g
             transform="translate(577.7061,272.2461)"
             id="g3442">
            <path
               id="path3444"
               style="fill:#231f20;fill-opacity:1;fill-rule:evenodd;stroke:none"
               d="M 0,0 C 0,-0.518 -0.101,-0.861 -0.315,-1.076 C -0.703,-1.449 -1.118,-1.492 -1.678,-1.492 C -2.595,-1.492 -3.011,-1.119 -3.011,-0.459 C -3.011,0.199 -2.566,0.586 -1.707,0.586 L 0,0.586 L 0,0 z M 1.462,-2.625 L 1.462,2.236 C 1.462,3.885 0.458,4.73 -1.534,4.73 C -2.739,4.73 -3.455,4.486 -4.144,3.684 L -3.183,2.781 C -2.781,3.297 -2.395,3.482 -1.592,3.482 C -0.459,3.482 0,3.039 0,2.121 L 0,1.605 L -1.921,1.605 C -3.584,1.605 -4.43,0.73 -4.43,-0.488 C -4.43,-1.105 -4.229,-1.664 -3.857,-2.051 C -3.412,-2.496 -2.811,-2.711 -1.907,-2.711 C -1.004,-2.711 -0.502,-2.496 0.028,-1.965 L 0.028,-2.625 L 1.462,-2.625 z" />
          </g>
          <g
             transform="translate(584.6484,269.6211)"
             id="g3446">
            <path
               id="path3448"
               style="fill:#231f20;fill-opacity:1;fill-rule:nonzero;stroke:none"
               d="M 0,0 L 0,1.248 L -0.603,1.248 C -1.147,1.248 -1.405,1.563 -1.405,2.094 L -1.405,6.021 L 0,6.021 L 0,7.141 L -1.405,7.141 L -1.405,9.348 L -2.867,9.348 L -2.867,7.141 L -3.699,7.141 L -3.699,6.021 L -2.867,6.021 L -2.867,2.021 C -2.867,0.975 -2.236,0 -0.875,0 L 0,0 z" />
          </g>
          <g
             transform="translate(256,303.7847)"
             id="g3450">
            <path
               id="path3452"
               style="fill:#231f20;fill-opacity:1;fill-rule:nonzero;stroke:none"
               d="M 0,0 L 3.469,0 L 3.469,4.965 L 6.19,8.061 L 10.781,0 L 15.134,0 L 8.367,10.509 L 14.318,17.243 L 10.169,17.243 L 3.537,9.148 L 3.469,9.148 L 3.469,24.215 L 0,24.215 L 0,0 z" />
          </g>
          <g
             transform="translate(273.6367,309.5664)"
             id="g3454">
            <path
               id="path3456"
               style="fill:#231f20;fill-opacity:1;fill-rule:nonzero;stroke:none"
               d="M 0,0 C 0,-3.911 3.062,-5.986 5.782,-5.986 C 7.584,-5.986 9.149,-5.306 10.237,-3.945 L 10.305,-3.945 L 10.305,-5.782 L 13.774,-5.782 L 13.774,11.461 L 10.305,11.461 L 10.305,1.19 C 10.305,-1.156 8.843,-2.517 6.904,-2.517 C 4.932,-2.517 3.469,-1.156 3.469,1.19 L 3.469,11.461 L 0,11.461 L 0,0 z" />
          </g>
          <g
             transform="translate(291.894,303.7847)"
             id="g3458">
            <path
               id="path3460"
               style="fill:#231f20;fill-opacity:1;fill-rule:nonzero;stroke:none"
               d="M 0,0 L 3.469,0 L 3.469,10.271 C 3.469,12.618 4.932,13.978 6.904,13.978 C 8.843,13.978 10.305,12.618 10.305,10.271 L 10.305,0 L 13.774,0 L 13.774,11.461 C 13.774,15.373 10.713,17.447 8.026,17.447 C 6.19,17.447 4.625,16.767 3.537,15.407 L 3.469,15.407 L 3.469,17.243 L 0,17.243 L 0,0 z" />
          </g>
          <g
             transform="translate(308.2466,306.6753)"
             id="g3462">
            <path
               id="path3464"
               style="fill:#231f20;fill-opacity:1;fill-rule:nonzero;stroke:none"
               d="M 0,0 C 2.21,-2.074 4.795,-3.095 7.584,-3.095 C 11.598,-3.095 14.727,-1.156 14.727,2.211 C 14.727,4.966 13.298,7.143 9.727,7.38 L 6.87,7.584 C 5.136,7.721 4.592,8.469 4.592,9.217 C 4.592,10.407 5.339,11.292 7.55,11.292 C 9.421,11.292 10.815,10.646 12.176,9.693 L 14.319,12.21 C 12.618,13.638 10.577,14.557 7.55,14.557 C 3.911,14.557 1.122,12.754 1.122,9.251 C 1.122,6.292 3.231,4.591 6.088,4.354 L 9.149,4.082 C 10.339,3.979 11.257,3.605 11.257,2.381 C 11.257,0.918 9.829,0.17 7.856,0.17 C 5.543,0.17 3.911,0.918 2.415,2.381 L 0,0 z" />
          </g>
          <g
             transform="translate(326.6748,321.0278)"
             id="g3466">
            <path
               id="path3468"
               style="fill:#231f20;fill-opacity:1;fill-rule:nonzero;stroke:none"
               d="M 0,0 L -1.734,0 L -1.734,-2.653 L 0,-2.653 L 0,-12.992 C 0,-15.713 1.769,-17.243 4.184,-17.243 L 5.986,-17.243 L 5.986,-13.978 L 4.693,-13.978 C 3.843,-13.978 3.469,-13.638 3.469,-12.686 L 3.469,-2.653 L 5.986,-2.653 L 5.986,0 L 3.469,0 L 3.469,5.237 L 0,5.237 L 0,0 z" />
          </g>
          <g
             transform="translate(343.8418,295.3926)"
             id="g3470">
            <path
               id="path3472"
               style="fill:#231f20;fill-opacity:1;fill-rule:nonzero;stroke:none"
               d="M 0,0 L 0,4.533 L -1.037,4.533 L -1.037,0.049 C -1.037,-0.863 -1.604,-1.43 -2.458,-1.43 C -3.313,-1.43 -3.87,-0.863 -3.87,0.049 L -3.87,4.533 L -4.907,4.533 L -4.907,0 C -4.907,-1.41 -3.851,-2.361 -2.458,-2.361 C -1.066,-2.361 0,-1.41 0,0" />
          </g>
          <g
             transform="translate(349.4292,293.0879)"
             id="g3474">
            <path
               id="path3476"
               style="fill:#231f20;fill-opacity:1;fill-rule:evenodd;stroke:none"
               d="M 0,0 L 0,3.111 C 0,3.659 -0.115,4.12 -0.49,4.485 C -0.777,4.763 -1.19,4.927 -1.69,4.927 C -2.179,4.927 -2.65,4.744 -2.986,4.379 L -2.986,4.869 L -3.946,4.869 L -3.946,0 L -2.967,0 L -2.967,2.968 C -2.967,3.717 -2.505,4.053 -1.958,4.053 C -1.411,4.053 -0.979,3.727 -0.979,2.968 L -0.979,0 L 0,0 z" />
          </g>
          <path
             id="path3478"
             style="fill:#231f20;fill-opacity:1;fill-rule:evenodd;stroke:none"
             d="M 351.993,297.957 L 351.014,297.957 L 351.014,293.088 L 351.993,293.088 L 351.993,297.957 z M 352.022,299.954 L 350.985,299.954 L 350.985,298.917 L 352.022,298.917 L 352.022,299.954 z" />
          <g
             transform="translate(357.292,297.957)"
             id="g3480">
            <path
               id="path3482"
               style="fill:#231f20;fill-opacity:1;fill-rule:nonzero;stroke:none"
               d="M 0,0 L -1.037,0 L -2.179,-3.428 L -3.332,0 L -4.368,0 L -2.583,-4.869 L -1.786,-4.869 L 0,0 z" />
          </g>
          <g
             transform="translate(361.0366,295.9219)"
             id="g3484">
            <path
               id="path3486"
               style="fill:#231f20;fill-opacity:1;fill-rule:evenodd;stroke:none"
               d="M 0,0 L -2.189,0 C -2.18,0.297 -2.16,0.441 -2.064,0.662 C -1.911,1.027 -1.555,1.276 -1.094,1.276 C -0.634,1.276 -0.288,1.027 -0.135,0.662 C -0.039,0.441 -0.009,0.297 0,0 M 0.97,-0.682 L 0.97,-0.25 C 0.97,1.132 0.211,2.093 -1.094,2.093 C -2.343,2.093 -3.159,1.181 -3.159,-0.395 C -3.159,-2.248 -2.189,-2.891 -0.97,-2.891 C -0.115,-2.891 0.355,-2.631 0.854,-2.133 L 0.23,-1.547 C -0.115,-1.893 -0.403,-2.045 -0.951,-2.045 C -1.748,-2.045 -2.189,-1.518 -2.189,-0.682 L 0.97,-0.682 z" />
          </g>
          <g
             transform="translate(366.7964,297.5537)"
             id="g3488">
            <path
               id="path3490"
               style="fill:#231f20;fill-opacity:1;fill-rule:evenodd;stroke:none"
               d="M 0,0 C -0.336,0.336 -0.691,0.461 -1.162,0.461 C -1.709,0.461 -2.208,0.221 -2.458,-0.125 L -2.458,0.403 L -3.418,0.403 L -3.418,-4.466 L -2.439,-4.466 L -2.439,-1.507 C -2.439,-0.835 -1.997,-0.413 -1.469,-0.413 C -1.133,-0.413 -0.96,-0.519 -0.74,-0.739 L 0,0 z" />
          </g>
          <g
             transform="translate(371.1753,294.5762)"
             id="g3492">
            <path
               id="path3494"
               style="fill:#231f20;fill-opacity:1;fill-rule:nonzero;stroke:none"
               d="M 0,0 C 0,0.865 -0.538,1.297 -1.45,1.373 L -2.218,1.441 C -2.736,1.489 -2.89,1.71 -2.89,1.998 C -2.89,2.363 -2.592,2.622 -2.007,2.622 C -1.546,2.622 -1.114,2.526 -0.807,2.267 L -0.192,2.891 C -0.643,3.285 -1.268,3.438 -1.997,3.438 C -3.015,3.438 -3.831,2.9 -3.831,1.95 C -3.831,1.096 -3.303,0.684 -2.391,0.605 L -1.613,0.539 C -1.143,0.5 -0.96,0.289 -0.96,-0.037 C -0.96,-0.498 -1.431,-0.709 -2.026,-0.709 C -2.506,-0.709 -3.034,-0.604 -3.428,-0.201 L -4.071,-0.844 C -3.495,-1.41 -2.823,-1.545 -2.026,-1.545 C -0.864,-1.545 0,-1.018 0,0" />
          </g>
          <path
             id="path3496"
             style="fill:#231f20;fill-opacity:1;fill-rule:evenodd;stroke:none"
             d="M 373.42,297.957 L 372.441,297.957 L 372.441,293.088 L 373.42,293.088 L 373.42,297.957 z M 373.449,299.954 L 372.412,299.954 L 372.412,298.917 L 373.449,298.917 L 373.449,299.954 z" />
          <g
             transform="translate(377.0874,293.0879)"
             id="g3498">
            <path
               id="path3500"
               style="fill:#231f20;fill-opacity:1;fill-rule:nonzero;stroke:none"
               d="M 0,0 L 0,0.836 L -0.404,0.836 C -0.768,0.836 -0.941,1.047 -0.941,1.402 L -0.941,4.034 L 0,4.034 L 0,4.783 L -0.941,4.783 L -0.941,6.261 L -1.92,6.261 L -1.92,4.783 L -2.478,4.783 L -2.478,4.034 L -1.92,4.034 L -1.92,1.355 C -1.92,0.654 -1.498,0 -0.586,0 L 0,0 z" />
          </g>
          <g
             transform="translate(381.0132,294.8457)"
             id="g3502">
            <path
               id="path3504"
               style="fill:#231f20;fill-opacity:1;fill-rule:evenodd;stroke:none"
               d="M 0,0 C 0,-0.346 -0.067,-0.576 -0.211,-0.721 C -0.471,-0.969 -0.75,-0.998 -1.124,-0.998 C -1.738,-0.998 -2.017,-0.748 -2.017,-0.307 C -2.017,0.135 -1.719,0.395 -1.143,0.395 L 0,0.395 L 0,0 z M 0.979,-1.758 L 0.979,1.498 C 0.979,2.602 0.307,3.169 -1.028,3.169 C -1.834,3.169 -2.314,3.005 -2.775,2.468 L -2.132,1.863 C -1.863,2.208 -1.604,2.333 -1.066,2.333 C -0.308,2.333 0,2.036 0,1.422 L 0,1.076 L -1.287,1.076 C -2.401,1.076 -2.967,0.49 -2.967,-0.326 C -2.967,-0.738 -2.833,-1.113 -2.583,-1.373 C -2.285,-1.67 -1.882,-1.814 -1.277,-1.814 C -0.672,-1.814 -0.336,-1.67 0.019,-1.314 L 0.019,-1.758 L 0.979,-1.758 z M -1.508,5.08 L -2.391,5.08 L -2.391,4.043 L -1.508,4.043 L -1.508,5.08 z M 0.566,5.08 L -0.317,5.08 L -0.317,4.043 L 0.566,4.043 L 0.566,5.08 z" />
          </g>
          <g
             transform="translate(385.6113,293.0879)"
             id="g3506">
            <path
               id="path3508"
               style="fill:#231f20;fill-opacity:1;fill-rule:nonzero;stroke:none"
               d="M 0,0 L 0,0.836 L -0.403,0.836 C -0.768,0.836 -0.941,1.047 -0.941,1.402 L -0.941,4.034 L 0,4.034 L 0,4.783 L -0.941,4.783 L -0.941,6.261 L -1.92,6.261 L -1.92,4.783 L -2.477,4.783 L -2.477,4.034 L -1.92,4.034 L -1.92,1.355 C -1.92,0.654 -1.498,0 -0.585,0 L 0,0 z" />
          </g>
          <g
             transform="translate(391.4189,297.1216)"
             id="g3510">
            <path
               id="path3512"
               style="fill:#231f20;fill-opacity:1;fill-rule:nonzero;stroke:none"
               d="M 0,0 L 0,0.749 L -0.97,0.749 L -0.97,1.45 C -0.97,1.805 -0.797,2.016 -0.433,2.016 L 0,2.016 L 0,2.852 L -0.615,2.852 C -1.527,2.852 -1.949,2.199 -1.949,1.498 L -1.949,0.749 L -2.506,0.749 L -2.506,0 L -1.949,0 L -1.949,-4.034 L -0.97,-4.034 L -0.97,0 L 0,0 z" />
          </g>
          <g
             transform="translate(396.439,293.0879)"
             id="g3514">
            <path
               id="path3516"
               style="fill:#231f20;fill-opacity:1;fill-rule:evenodd;stroke:none"
               d="M 0,0 L 0,4.869 L -0.979,4.869 L -0.979,1.902 C -0.979,1.152 -1.44,0.816 -1.987,0.816 C -2.535,0.816 -2.967,1.143 -2.967,1.902 L -2.967,4.869 L -3.946,4.869 L -3.946,1.758 C -3.946,1.211 -3.831,0.75 -3.456,0.385 C -3.168,0.107 -2.755,-0.057 -2.256,-0.057 C -1.766,-0.057 -1.296,0.125 -0.96,0.49 L -0.96,0 L 0,0 z M -2.573,6.837 L -3.456,6.837 L -3.456,5.8 L -2.573,5.8 L -2.573,6.837 z M -0.499,6.837 L -1.383,6.837 L -1.383,5.8 L -0.499,5.8 L -0.499,6.837 z" />
          </g>
          <g
             transform="translate(401.4897,297.5537)"
             id="g3518">
            <path
               id="path3520"
               style="fill:#231f20;fill-opacity:1;fill-rule:evenodd;stroke:none"
               d="M 0,0 C -0.336,0.336 -0.691,0.461 -1.162,0.461 C -1.709,0.461 -2.208,0.221 -2.458,-0.125 L -2.458,0.403 L -3.418,0.403 L -3.418,-4.466 L -2.439,-4.466 L -2.439,-1.507 C -2.439,-0.835 -1.997,-0.413 -1.469,-0.413 C -1.133,-0.413 -0.96,-0.519 -0.739,-0.739 L 0,0 z" />
          </g>
          <g
             transform="translate(409.0176,293.0879)"
             id="g3522">
            <path
               id="path3524"
               style="fill:#231f20;fill-opacity:1;fill-rule:nonzero;stroke:none"
               d="M 0,0 L -1.901,2.959 L -0.211,4.869 L -1.402,4.869 L -3.293,2.623 L -3.293,6.837 L -4.272,6.837 L -4.272,0 L -3.293,0 L -3.293,1.432 L -2.573,2.248 L -1.209,0 L 0,0 z" />
          </g>
          <g
             transform="translate(413.9814,293.0879)"
             id="g3526">
            <path
               id="path3528"
               style="fill:#231f20;fill-opacity:1;fill-rule:evenodd;stroke:none"
               d="M 0,0 L 0,4.869 L -0.979,4.869 L -0.979,1.902 C -0.979,1.152 -1.44,0.816 -1.988,0.816 C -2.535,0.816 -2.967,1.143 -2.967,1.902 L -2.967,4.869 L -3.946,4.869 L -3.946,1.758 C -3.946,1.211 -3.831,0.75 -3.457,0.385 C -3.168,0.107 -2.756,-0.057 -2.256,-0.057 C -1.767,-0.057 -1.296,0.125 -0.96,0.49 L -0.96,0 L 0,0 z M -2.573,6.837 L -3.456,6.837 L -3.456,5.8 L -2.573,5.8 L -2.573,6.837 z M -0.5,6.837 L -1.383,6.837 L -1.383,5.8 L -0.5,5.8 L -0.5,6.837 z" />
          </g>
          <g
             transform="translate(419.5601,293.0879)"
             id="g3530">
            <path
               id="path3532"
               style="fill:#231f20;fill-opacity:1;fill-rule:evenodd;stroke:none"
               d="M 0,0 L 0,3.111 C 0,3.659 -0.115,4.12 -0.49,4.485 C -0.777,4.763 -1.19,4.927 -1.69,4.927 C -2.18,4.927 -2.65,4.744 -2.986,4.379 L -2.986,4.869 L -3.946,4.869 L -3.946,0 L -2.967,0 L -2.967,2.968 C -2.967,3.717 -2.506,4.053 -1.959,4.053 C -1.411,4.053 -0.979,3.727 -0.979,2.968 L -0.979,0 L 0,0 z" />
          </g>
          <g
             transform="translate(424.7451,294.5762)"
             id="g3534">
            <path
               id="path3536"
               style="fill:#231f20;fill-opacity:1;fill-rule:nonzero;stroke:none"
               d="M 0,0 C 0,0.865 -0.538,1.297 -1.449,1.373 L -2.218,1.441 C -2.736,1.489 -2.891,1.71 -2.891,1.998 C -2.891,2.363 -2.593,2.622 -2.007,2.622 C -1.546,2.622 -1.114,2.526 -0.807,2.267 L -0.192,2.891 C -0.644,3.285 -1.268,3.438 -1.997,3.438 C -3.015,3.438 -3.831,2.9 -3.831,1.95 C -3.831,1.096 -3.303,0.684 -2.391,0.605 L -1.613,0.539 C -1.143,0.5 -0.96,0.289 -0.96,-0.037 C -0.96,-0.498 -1.431,-0.709 -2.025,-0.709 C -2.506,-0.709 -3.034,-0.604 -3.428,-0.201 L -4.071,-0.844 C -3.495,-1.41 -2.822,-1.545 -2.025,-1.545 C -0.864,-1.545 0,-1.018 0,0" />
          </g>
          <g
             transform="translate(427.9502,293.0879)"
             id="g3538">
            <path
               id="path3540"
               style="fill:#231f20;fill-opacity:1;fill-rule:nonzero;stroke:none"
               d="M 0,0 L 0,0.836 L -0.403,0.836 C -0.768,0.836 -0.94,1.047 -0.94,1.402 L -0.94,4.034 L 0,4.034 L 0,4.783 L -0.94,4.783 L -0.94,6.261 L -1.92,6.261 L -1.92,4.783 L -2.477,4.783 L -2.477,4.034 L -1.92,4.034 L -1.92,1.355 C -1.92,0.654 -1.498,0 -0.586,0 L 0,0 z" />
          </g>
          <g
             transform="translate(431.1846,293.0879)"
             id="g3542">
            <path
               id="path3544"
               style="fill:#231f20;fill-opacity:1;fill-rule:nonzero;stroke:none"
               d="M 0,0 L 0,0.836 L -0.432,0.836 C -0.825,0.836 -0.96,1.029 -0.96,1.402 L -0.96,6.837 L -1.939,6.837 L -1.939,1.346 C -1.939,0.625 -1.536,0 -0.604,0 L 0,0 z" />
          </g>
          <g
             transform="translate(435.0039,295.9219)"
             id="g3546">
            <path
               id="path3548"
               style="fill:#231f20;fill-opacity:1;fill-rule:evenodd;stroke:none"
               d="M 0,0 L -2.188,0 C -2.18,0.297 -2.16,0.441 -2.063,0.662 C -1.91,1.027 -1.555,1.276 -1.095,1.276 C -0.634,1.276 -0.288,1.027 -0.134,0.662 C -0.038,0.441 -0.009,0.297 0,0 M 0.97,-0.682 L 0.97,-0.25 C 0.97,1.132 0.212,2.093 -1.095,2.093 C -2.343,2.093 -3.159,1.181 -3.159,-0.395 C -3.159,-2.248 -2.188,-2.891 -0.97,-2.891 C -0.115,-2.891 0.355,-2.631 0.854,-2.133 L 0.23,-1.547 C -0.115,-1.893 -0.403,-2.045 -0.95,-2.045 C -1.747,-2.045 -2.188,-1.518 -2.188,-0.682 L 0.97,-0.682 z" />
          </g>
          <g
             transform="translate(440.7637,297.5537)"
             id="g3550">
            <path
               id="path3552"
               style="fill:#231f20;fill-opacity:1;fill-rule:evenodd;stroke:none"
               d="M 0,0 C -0.336,0.336 -0.691,0.461 -1.161,0.461 C -1.709,0.461 -2.208,0.221 -2.458,-0.125 L -2.458,0.403 L -3.418,0.403 L -3.418,-4.466 L -2.438,-4.466 L -2.438,-1.507 C -2.438,-0.835 -1.997,-0.413 -1.469,-0.413 C -1.133,-0.413 -0.96,-0.519 -0.739,-0.739 L 0,0 z" />
          </g>
          <path
             id="path3554"
             style="fill:#231f20;fill-opacity:1;fill-rule:evenodd;stroke:none"
             d="M 442.618,297.957 L 441.638,297.957 L 441.638,293.088 L 442.618,293.088 L 442.618,297.957 z M 442.646,299.954 L 441.609,299.954 L 441.609,298.917 L 442.646,298.917 L 442.646,299.954 z" />
          <g
             transform="translate(447.8496,294.5762)"
             id="g3556">
            <path
               id="path3558"
               style="fill:#231f20;fill-opacity:1;fill-rule:nonzero;stroke:none"
               d="M 0,0 C 0,0.865 -0.538,1.297 -1.45,1.373 L -2.218,1.441 C -2.736,1.489 -2.891,1.71 -2.891,1.998 C -2.891,2.363 -2.593,2.622 -2.007,2.622 C -1.546,2.622 -1.114,2.526 -0.807,2.267 L -0.192,2.891 C -0.644,3.285 -1.268,3.438 -1.997,3.438 C -3.015,3.438 -3.831,2.9 -3.831,1.95 C -3.831,1.096 -3.303,0.684 -2.391,0.605 L -1.613,0.539 C -1.143,0.5 -0.96,0.289 -0.96,-0.037 C -0.96,-0.498 -1.431,-0.709 -2.026,-0.709 C -2.506,-0.709 -3.034,-0.604 -3.428,-0.201 L -4.071,-0.844 C -3.495,-1.41 -2.823,-1.545 -2.026,-1.545 C -0.864,-1.545 0,-1.018 0,0" />
          </g>
          <g
             transform="translate(452.6387,293.7227)"
             id="g3560">
            <path
               id="path3562"
               style="fill:#231f20;fill-opacity:1;fill-rule:nonzero;stroke:none"
               d="M 0,0 L -0.672,0.643 C -0.979,0.307 -1.219,0.182 -1.604,0.182 C -1.978,0.182 -2.295,0.336 -2.506,0.615 C -2.717,0.883 -2.794,1.238 -2.794,1.805 C -2.794,2.371 -2.717,2.717 -2.506,2.986 C -2.295,3.265 -1.978,3.418 -1.604,3.418 C -1.219,3.418 -0.979,3.293 -0.672,2.957 L 0,3.61 C -0.461,4.1 -0.931,4.292 -1.604,4.292 C -2.698,4.292 -3.773,3.629 -3.773,1.805 C -3.773,-0.02 -2.698,-0.691 -1.604,-0.691 C -0.931,-0.691 -0.461,-0.49 0,0" />
          </g>
          <g
             transform="translate(457.7754,293.0879)"
             id="g3564">
            <path
               id="path3566"
               style="fill:#231f20;fill-opacity:1;fill-rule:nonzero;stroke:none"
               d="M 0,0 L 0,3.141 C 0,4.197 -0.604,4.927 -1.689,4.927 C -2.17,4.927 -2.611,4.744 -2.947,4.379 L -2.947,6.837 L -3.927,6.837 L -3.927,0 L -2.947,0 L -2.947,2.986 C -2.947,3.717 -2.506,4.053 -1.959,4.053 C -1.411,4.053 -0.979,3.727 -0.979,2.986 L -0.979,0 L 0,0 z" />
          </g>
          <g
             transform="translate(462.2695,295.9219)"
             id="g3568">
            <path
               id="path3570"
               style="fill:#231f20;fill-opacity:1;fill-rule:evenodd;stroke:none"
               d="M 0,0 L -2.188,0 C -2.18,0.297 -2.16,0.441 -2.064,0.662 C -1.911,1.027 -1.556,1.276 -1.095,1.276 C -0.634,1.276 -0.288,1.027 -0.134,0.662 C -0.038,0.441 -0.01,0.297 0,0 M 0.97,-0.682 L 0.97,-0.25 C 0.97,1.132 0.211,2.093 -1.095,2.093 C -2.343,2.093 -3.159,1.181 -3.159,-0.395 C -3.159,-2.248 -2.188,-2.891 -0.97,-2.891 C -0.115,-2.891 0.355,-2.631 0.854,-2.133 L 0.23,-1.547 C -0.115,-1.893 -0.403,-2.045 -0.95,-2.045 C -1.748,-2.045 -2.188,-1.518 -2.188,-0.682 L 0.97,-0.682 z" />
          </g>
          <g
             transform="translate(470.8906,293.0879)"
             id="g3572">
            <path
               id="path3574"
               style="fill:#231f20;fill-opacity:1;fill-rule:evenodd;stroke:none"
               d="M 0,0 L 0,4.869 L -0.979,4.869 L -0.979,1.902 C -0.979,1.152 -1.44,0.816 -1.988,0.816 C -2.535,0.816 -2.968,1.143 -2.968,1.902 L -2.968,4.869 L -3.947,4.869 L -3.947,1.758 C -3.947,1.211 -3.831,0.75 -3.457,0.385 C -3.169,0.107 -2.756,-0.057 -2.257,-0.057 C -1.768,-0.057 -1.297,0.125 -0.961,0.49 L -0.961,0 L 0,0 z" />
          </g>
          <g
             transform="translate(476.4688,293.0879)"
             id="g3576">
            <path
               id="path3578"
               style="fill:#231f20;fill-opacity:1;fill-rule:evenodd;stroke:none"
               d="M 0,0 L 0,3.111 C 0,3.659 -0.115,4.12 -0.49,4.485 C -0.778,4.763 -1.19,4.927 -1.69,4.927 C -2.18,4.927 -2.65,4.744 -2.986,4.379 L -2.986,4.869 L -3.946,4.869 L -3.946,0 L -2.967,0 L -2.967,2.968 C -2.967,3.717 -2.506,4.053 -1.959,4.053 C -1.411,4.053 -0.979,3.727 -0.979,2.968 L -0.979,0 L 0,0 z" />
          </g>
          <g
             transform="translate(480.8281,295.5273)"
             id="g3580">
            <path
               id="path3582"
               style="fill:#231f20;fill-opacity:1;fill-rule:evenodd;stroke:none"
               d="M 0,0 C 0,-0.863 -0.125,-1.623 -1.008,-1.623 C -1.892,-1.623 -2.026,-0.863 -2.026,0 C -2.026,0.864 -1.892,1.613 -1.008,1.613 C -0.125,1.613 0,0.864 0,0 M 0.979,-2.439 L 0.979,4.398 L 0,4.398 L 0,1.94 C -0.355,2.362 -0.759,2.487 -1.277,2.487 C -1.767,2.487 -2.189,2.324 -2.458,2.055 C -2.947,1.565 -3.005,0.74 -3.005,0 C -3.005,-0.738 -2.947,-1.574 -2.458,-2.064 C -2.189,-2.332 -1.757,-2.496 -1.268,-2.496 C -0.739,-2.496 -0.346,-2.361 0.019,-1.92 L 0.019,-2.439 L 0.979,-2.439 z" />
          </g>
          <path
             id="path3584"
             style="fill:#231f20;fill-opacity:1;fill-rule:evenodd;stroke:none"
             d="M 486.8,297.957 L 485.821,297.957 L 485.821,293.088 L 486.8,293.088 L 486.8,297.957 z M 486.829,299.954 L 485.792,299.954 L 485.792,298.917 L 486.829,298.917 L 486.829,299.954 z" />
          <g
             transform="translate(492.3779,293.0879)"
             id="g3586">
            <path
               id="path3588"
               style="fill:#231f20;fill-opacity:1;fill-rule:evenodd;stroke:none"
               d="M 0,0 L 0,3.111 C 0,3.659 -0.115,4.12 -0.49,4.485 C -0.778,4.763 -1.19,4.927 -1.69,4.927 C -2.18,4.927 -2.65,4.744 -2.986,4.379 L -2.986,4.869 L -3.946,4.869 L -3.946,0 L -2.967,0 L -2.967,2.968 C -2.967,3.717 -2.507,4.053 -1.959,4.053 C -1.412,4.053 -0.979,3.727 -0.979,2.968 L -0.979,0 L 0,0 z" />
          </g>
          <g
             transform="translate(496.7373,295.5273)"
             id="g3590">
            <path
               id="path3592"
               style="fill:#231f20;fill-opacity:1;fill-rule:evenodd;stroke:none"
               d="M 0,0 C 0,-0.863 -0.125,-1.623 -1.009,-1.623 C -1.893,-1.623 -2.026,-0.863 -2.026,0 C -2.026,0.864 -1.893,1.613 -1.009,1.613 C -0.125,1.613 0,0.864 0,0 M 0.979,-2.439 L 0.979,4.398 L 0,4.398 L 0,1.94 C -0.355,2.362 -0.759,2.487 -1.277,2.487 C -1.768,2.487 -2.189,2.324 -2.459,2.055 C -2.948,1.565 -3.006,0.74 -3.006,0 C -3.006,-0.738 -2.948,-1.574 -2.459,-2.064 C -2.189,-2.332 -1.758,-2.496 -1.268,-2.496 C -0.739,-2.496 -0.346,-2.361 0.019,-1.92 L 0.019,-2.439 L 0.979,-2.439 z" />
          </g>
          <g
             transform="translate(503.2471,293.0879)"
             id="g3594">
            <path
               id="path3596"
               style="fill:#231f20;fill-opacity:1;fill-rule:evenodd;stroke:none"
               d="M 0,0 L 0,4.869 L -0.979,4.869 L -0.979,1.902 C -0.979,1.152 -1.44,0.816 -1.987,0.816 C -2.535,0.816 -2.967,1.143 -2.967,1.902 L -2.967,4.869 L -3.946,4.869 L -3.946,1.758 C -3.946,1.211 -3.831,0.75 -3.457,0.385 C -3.169,0.107 -2.756,-0.057 -2.256,-0.057 C -1.767,-0.057 -1.296,0.125 -0.96,0.49 L -0.96,0 L 0,0 z" />
          </g>
          <g
             transform="translate(508.4795,294.5762)"
             id="g3598">
            <path
               id="path3600"
               style="fill:#231f20;fill-opacity:1;fill-rule:nonzero;stroke:none"
               d="M 0,0 C 0,0.865 -0.537,1.297 -1.449,1.373 L -2.217,1.441 C -2.736,1.489 -2.89,1.71 -2.89,1.998 C -2.89,2.363 -2.592,2.622 -2.006,2.622 C -1.546,2.622 -1.113,2.526 -0.806,2.267 L -0.191,2.891 C -0.643,3.285 -1.267,3.438 -1.997,3.438 C -3.015,3.438 -3.83,2.9 -3.83,1.95 C -3.83,1.096 -3.303,0.684 -2.391,0.605 L -1.612,0.539 C -1.143,0.5 -0.96,0.289 -0.96,-0.037 C -0.96,-0.498 -1.43,-0.709 -2.025,-0.709 C -2.506,-0.709 -3.033,-0.604 -3.428,-0.201 L -4.07,-0.844 C -3.494,-1.41 -2.822,-1.545 -2.025,-1.545 C -0.863,-1.545 0,-1.018 0,0" />
          </g>
          <g
             transform="translate(511.6855,293.0879)"
             id="g3602">
            <path
               id="path3604"
               style="fill:#231f20;fill-opacity:1;fill-rule:nonzero;stroke:none"
               d="M 0,0 L 0,0.836 L -0.403,0.836 C -0.769,0.836 -0.941,1.047 -0.941,1.402 L -0.941,4.034 L 0,4.034 L 0,4.783 L -0.941,4.783 L -0.941,6.261 L -1.921,6.261 L -1.921,4.783 L -2.478,4.783 L -2.478,4.034 L -1.921,4.034 L -1.921,1.355 C -1.921,0.654 -1.498,0 -0.586,0 L 0,0 z" />
          </g>
          <g
             transform="translate(516.4268,297.5537)"
             id="g3606">
            <path
               id="path3608"
               style="fill:#231f20;fill-opacity:1;fill-rule:evenodd;stroke:none"
               d="M 0,0 C -0.336,0.336 -0.69,0.461 -1.161,0.461 C -1.709,0.461 -2.208,0.221 -2.457,-0.125 L -2.457,0.403 L -3.418,0.403 L -3.418,-4.466 L -2.438,-4.466 L -2.438,-1.507 C -2.438,-0.835 -1.996,-0.413 -1.469,-0.413 C -1.133,-0.413 -0.96,-0.519 -0.739,-0.739 L 0,0 z" />
          </g>
          <path
             id="path3610"
             style="fill:#231f20;fill-opacity:1;fill-rule:evenodd;stroke:none"
             d="M 518.281,297.957 L 517.302,297.957 L 517.302,293.088 L 518.281,293.088 L 518.281,297.957 z M 518.31,299.954 L 517.274,299.954 L 517.274,298.917 L 518.31,298.917 L 518.31,299.954 z" />
          <g
             transform="translate(522.8213,295.9219)"
             id="g3612">
            <path
               id="path3614"
               style="fill:#231f20;fill-opacity:1;fill-rule:evenodd;stroke:none"
               d="M 0,0 L -2.189,0 C -2.18,0.297 -2.16,0.441 -2.064,0.662 C -1.91,1.027 -1.556,1.276 -1.095,1.276 C -0.634,1.276 -0.288,1.027 -0.134,0.662 C -0.038,0.441 -0.01,0.297 0,0 M 0.97,-0.682 L 0.97,-0.25 C 0.97,1.132 0.212,2.093 -1.095,2.093 C -2.343,2.093 -3.158,1.181 -3.158,-0.395 C -3.158,-2.248 -2.189,-2.891 -0.97,-2.891 C -0.115,-2.891 0.355,-2.631 0.854,-2.133 L 0.23,-1.547 C -0.115,-1.893 -0.403,-2.045 -0.95,-2.045 C -1.747,-2.045 -2.189,-1.518 -2.189,-0.682 L 0.97,-0.682 z" />
          </g>
          <g
             transform="translate(527.0732,293.0879)"
             id="g3616">
            <path
               id="path3618"
               style="fill:#231f20;fill-opacity:1;fill-rule:nonzero;stroke:none"
               d="M 0,0 L 0,0.836 L -0.432,0.836 C -0.825,0.836 -0.96,1.029 -0.96,1.402 L -0.96,6.837 L -1.939,6.837 L -1.939,1.346 C -1.939,0.625 -1.536,0 -0.604,0 L 0,0 z" />
          </g>
          <g
             transform="translate(530.1348,293.0879)"
             id="g3620">
            <path
               id="path3622"
               style="fill:#231f20;fill-opacity:1;fill-rule:nonzero;stroke:none"
               d="M 0,0 L 0,0.836 L -0.433,0.836 C -0.826,0.836 -0.96,1.029 -0.96,1.402 L -0.96,6.837 L -1.939,6.837 L -1.939,1.346 C -1.939,0.625 -1.536,0 -0.604,0 L 0,0 z" />
          </g>
          <g
             transform="translate(533.9541,295.9219)"
             id="g3624">
            <path
               id="path3626"
               style="fill:#231f20;fill-opacity:1;fill-rule:evenodd;stroke:none"
               d="M 0,0 L -2.189,0 C -2.18,0.297 -2.16,0.441 -2.064,0.662 C -1.911,1.027 -1.556,1.276 -1.095,1.276 C -0.634,1.276 -0.288,1.027 -0.135,0.662 C -0.039,0.441 -0.01,0.297 0,0 M 0.97,-0.682 L 0.97,-0.25 C 0.97,1.132 0.211,2.093 -1.095,2.093 C -2.343,2.093 -3.159,1.181 -3.159,-0.395 C -3.159,-2.248 -2.189,-2.891 -0.97,-2.891 C -0.115,-2.891 0.354,-2.631 0.854,-2.133 L 0.23,-1.547 C -0.115,-1.893 -0.403,-2.045 -0.951,-2.045 C -1.748,-2.045 -2.189,-1.518 -2.189,-0.682 L 0.97,-0.682 z" />
          </g>
          <g
             transform="translate(543.4961,295.7383)"
             id="g3628">
            <path
               id="path3630"
               style="fill:#231f20;fill-opacity:1;fill-rule:nonzero;stroke:none"
               d="M 0,0 L 0,1.047 L -2.496,1.047 L -2.496,0.164 L -1.037,0.164 L -1.037,-0.221 C -1.037,-0.662 -1.133,-1.008 -1.383,-1.295 C -1.651,-1.604 -2.045,-1.775 -2.496,-1.775 C -2.899,-1.775 -3.265,-1.621 -3.505,-1.363 C -3.841,-0.998 -3.917,-0.604 -3.917,0.769 C -3.917,2.142 -3.841,2.526 -3.505,2.891 C -3.265,3.15 -2.899,3.313 -2.496,3.313 C -1.729,3.313 -1.229,2.872 -1.056,2.123 L -0.009,2.123 C -0.201,3.294 -1.046,4.245 -2.496,4.245 C -3.226,4.245 -3.821,3.985 -4.292,3.515 C -4.964,2.843 -4.954,2.084 -4.954,0.769 C -4.954,-0.547 -4.964,-1.305 -4.292,-1.977 C -3.821,-2.447 -3.207,-2.707 -2.496,-2.707 C -1.776,-2.707 -1.133,-2.477 -0.614,-1.93 C -0.163,-1.449 0,-0.883 0,0" />
          </g>
          <g
             transform="translate(547.8945,295.9219)"
             id="g3632">
            <path
               id="path3634"
               style="fill:#231f20;fill-opacity:1;fill-rule:evenodd;stroke:none"
               d="M 0,0 L -2.189,0 C -2.18,0.297 -2.16,0.441 -2.064,0.662 C -1.91,1.027 -1.556,1.276 -1.095,1.276 C -0.634,1.276 -0.288,1.027 -0.134,0.662 C -0.038,0.441 -0.01,0.297 0,0 M 0.97,-0.682 L 0.97,-0.25 C 0.97,1.132 0.212,2.093 -1.095,2.093 C -2.343,2.093 -3.159,1.181 -3.159,-0.395 C -3.159,-2.248 -2.189,-2.891 -0.97,-2.891 C -0.115,-2.891 0.355,-2.631 0.854,-2.133 L 0.23,-1.547 C -0.115,-1.893 -0.403,-2.045 -0.95,-2.045 C -1.747,-2.045 -2.189,-1.518 -2.189,-0.682 L 0.97,-0.682 z" />
          </g>
          <g
             transform="translate(553.8369,294.5762)"
             id="g3636">
            <path
               id="path3638"
               style="fill:#231f20;fill-opacity:1;fill-rule:nonzero;stroke:none"
               d="M 0,0 C 0,0.865 -0.538,1.297 -1.45,1.373 L -2.218,1.441 C -2.736,1.489 -2.89,1.71 -2.89,1.998 C -2.89,2.363 -2.593,2.622 -2.007,2.622 C -1.546,2.622 -1.114,2.526 -0.807,2.267 L -0.192,2.891 C -0.644,3.285 -1.268,3.438 -1.997,3.438 C -3.016,3.438 -3.831,2.9 -3.831,1.95 C -3.831,1.096 -3.304,0.684 -2.391,0.605 L -1.613,0.539 C -1.143,0.5 -0.961,0.289 -0.961,-0.037 C -0.961,-0.498 -1.431,-0.709 -2.026,-0.709 C -2.506,-0.709 -3.034,-0.604 -3.428,-0.201 L -4.071,-0.844 C -3.495,-1.41 -2.823,-1.545 -2.026,-1.545 C -0.864,-1.545 0,-1.018 0,0" />
          </g>
          <g
             transform="translate(557.042,293.0879)"
             id="g3640">
            <path
               id="path3642"
               style="fill:#231f20;fill-opacity:1;fill-rule:nonzero;stroke:none"
               d="M 0,0 L 0,0.836 L -0.403,0.836 C -0.769,0.836 -0.941,1.047 -0.941,1.402 L -0.941,4.034 L 0,4.034 L 0,4.783 L -0.941,4.783 L -0.941,6.261 L -1.921,6.261 L -1.921,4.783 L -2.478,4.783 L -2.478,4.034 L -1.921,4.034 L -1.921,1.355 C -1.921,0.654 -1.498,0 -0.586,0 L 0,0 z" />
          </g>
          <g
             transform="translate(560.9199,294.8457)"
             id="g3644">
            <path
               id="path3646"
               style="fill:#231f20;fill-opacity:1;fill-rule:evenodd;stroke:none"
               d="M 0,0 C 0,-0.346 -0.067,-0.576 -0.211,-0.721 C -0.471,-0.969 -0.749,-0.998 -1.124,-0.998 C -1.738,-0.998 -2.017,-0.748 -2.017,-0.307 C -2.017,0.135 -1.719,0.395 -1.143,0.395 L 0,0.395 L 0,0 z M 0.979,-1.758 L 0.979,1.498 C 0.979,2.602 0.307,3.169 -1.027,3.169 C -1.834,3.169 -2.314,3.005 -2.775,2.468 L -2.132,1.863 C -1.862,2.208 -1.604,2.333 -1.065,2.333 C -0.308,2.333 0,2.036 0,1.422 L 0,1.076 L -1.287,1.076 C -2.4,1.076 -2.967,0.49 -2.967,-0.326 C -2.967,-0.738 -2.833,-1.113 -2.583,-1.373 C -2.285,-1.67 -1.882,-1.814 -1.277,-1.814 C -0.672,-1.814 -0.336,-1.67 0.019,-1.314 L 0.019,-1.758 L 0.979,-1.758 z" />
          </g>
          <g
             transform="translate(565.3936,293.0879)"
             id="g3648">
            <path
               id="path3650"
               style="fill:#231f20;fill-opacity:1;fill-rule:nonzero;stroke:none"
               d="M 0,0 L 0,0.836 L -0.433,0.836 C -0.826,0.836 -0.961,1.029 -0.961,1.402 L -0.961,6.837 L -1.939,6.837 L -1.939,1.346 C -1.939,0.625 -1.536,0 -0.605,0 L 0,0 z" />
          </g>
          <g
             transform="translate(568.5791,293.0879)"
             id="g3652">
            <path
               id="path3654"
               style="fill:#231f20;fill-opacity:1;fill-rule:nonzero;stroke:none"
               d="M 0,0 L 0,0.836 L -0.403,0.836 C -0.769,0.836 -0.941,1.047 -0.941,1.402 L -0.941,4.034 L 0,4.034 L 0,4.783 L -0.941,4.783 L -0.941,6.261 L -1.921,6.261 L -1.921,4.783 L -2.478,4.783 L -2.478,4.034 L -1.921,4.034 L -1.921,1.355 C -1.921,0.654 -1.498,0 -0.586,0 L 0,0 z" />
          </g>
          <g
             transform="translate(573.8008,293.0879)"
             id="g3656">
            <path
               id="path3658"
               style="fill:#231f20;fill-opacity:1;fill-rule:evenodd;stroke:none"
               d="M 0,0 L 0,4.869 L -0.979,4.869 L -0.979,1.902 C -0.979,1.152 -1.44,0.816 -1.987,0.816 C -2.534,0.816 -2.967,1.143 -2.967,1.902 L -2.967,4.869 L -3.945,4.869 L -3.945,1.758 C -3.945,1.211 -3.831,0.75 -3.456,0.385 C -3.168,0.107 -2.755,-0.057 -2.256,-0.057 C -1.767,-0.057 -1.296,0.125 -0.96,0.49 L -0.96,0 L 0,0 z" />
          </g>
          <g
             transform="translate(579.3799,293.0879)"
             id="g3660">
            <path
               id="path3662"
               style="fill:#231f20;fill-opacity:1;fill-rule:evenodd;stroke:none"
               d="M 0,0 L 0,3.111 C 0,3.659 -0.115,4.12 -0.489,4.485 C -0.777,4.763 -1.19,4.927 -1.689,4.927 C -2.18,4.927 -2.65,4.744 -2.986,4.379 L -2.986,4.869 L -3.946,4.869 L -3.946,0 L -2.967,0 L -2.967,2.968 C -2.967,3.717 -2.506,4.053 -1.959,4.053 C -1.412,4.053 -0.979,3.727 -0.979,2.968 L -0.979,0 L 0,0 z" />
          </g>
          <g
             transform="translate(583.7012,295.6133)"
             id="g3664">
            <path
               id="path3666"
               style="fill:#231f20;fill-opacity:1;fill-rule:evenodd;stroke:none"
               d="M 0,0 C 0,-0.768 -0.106,-1.525 -0.989,-1.525 C -1.873,-1.525 -1.988,-0.768 -1.988,0 C -1.988,0.769 -1.873,1.527 -0.989,1.527 C -0.106,1.527 0,0.769 0,0 M 0.979,-2.496 L 0.979,2.344 L 0.028,2.344 L 0.028,1.825 C -0.337,2.267 -0.73,2.401 -1.249,2.401 C -1.738,2.401 -2.151,2.248 -2.42,1.979 C -2.891,1.508 -2.968,0.827 -2.968,0 C -2.968,-0.824 -2.891,-1.506 -2.42,-1.977 C -2.151,-2.246 -1.748,-2.408 -1.259,-2.408 C -0.76,-2.408 -0.356,-2.275 0,-1.852 L 0,-2.477 C 0,-3.129 -0.317,-3.715 -1.143,-3.715 C -1.623,-3.715 -1.892,-3.57 -2.199,-3.283 L -2.823,-3.906 C -2.314,-4.377 -1.844,-4.551 -1.104,-4.551 C 0.191,-4.551 0.979,-3.686 0.979,-2.496" />
          </g>
          <g
             transform="translate(492.5371,307.9678)"
             id="g3668">
            <path
               id="path3670"
               style="fill:#231f20;fill-opacity:1;fill-rule:nonzero;stroke:none"
               d="M 0,0 C 0,-3.095 1.905,-4.183 4.422,-4.183 L 5.952,-4.183 L 5.952,-0.918 L 4.762,-0.918 C 3.912,-0.918 3.47,-0.51 3.47,0.272 L 3.47,20.032 L 0,20.032 L 0,0 z" />
          </g>
          <path
             id="path3672"
             style="fill:#231f20;fill-opacity:1;fill-rule:evenodd;stroke:none"
             d="M 501.408,324.531 L 504.877,324.531 L 504.877,328 L 501.408,328 L 501.408,324.531 z M 501.408,303.785 L 504.877,303.785 L 504.877,321.028 L 501.408,321.028 L 501.408,303.785 z" />
          <g
             transform="translate(509.4658,303.7847)"
             id="g3674">
            <path
               id="path3676"
               style="fill:#231f20;fill-opacity:1;fill-rule:nonzero;stroke:none"
               d="M 0,0 L 3.469,0 L 3.469,10.271 C 3.469,12.618 4.932,13.978 6.904,13.978 C 8.842,13.978 10.305,12.618 10.305,10.271 L 10.305,0 L 13.773,0 L 13.773,11.461 C 13.773,15.373 10.713,17.447 8.026,17.447 C 6.189,17.447 4.625,16.767 3.537,15.407 L 3.469,15.407 L 3.469,17.243 L 0,17.243 L 0,0 z" />
          </g>
          <g
             transform="translate(526.6006,303.7847)"
             id="g3678">
            <path
               id="path3680"
               style="fill:#231f20;fill-opacity:1;fill-rule:nonzero;stroke:none"
               d="M 0,0 L 12.855,0 L 12.855,3.265 L 4.217,3.265 L 12.855,14.488 L 12.855,17.243 L 0.476,17.243 L 0.476,14.182 L 8.639,14.182 L 0,2.755 L 0,0 z" />
          </g>
          <g
             transform="translate(338.9761,309.5664)"
             id="g3682">
            <path
               id="path3684"
               style="fill:#656263;fill-opacity:1;fill-rule:nonzero;stroke:none"
               d="M 0,0 C 0,-3.911 3.061,-5.986 5.782,-5.986 C 7.584,-5.986 9.149,-5.306 10.237,-3.945 L 10.305,-3.945 L 10.305,-5.782 L 13.774,-5.782 L 13.774,11.461 L 10.305,11.461 L 10.305,1.19 C 10.305,-1.156 8.843,-2.517 6.904,-2.517 C 4.932,-2.517 3.469,-1.156 3.469,1.19 L 3.469,11.461 L 0,11.461 L 0,0 z" />
          </g>
          <g
             transform="translate(357.2334,303.7847)"
             id="g3686">
            <path
               id="path3688"
               style="fill:#656263;fill-opacity:1;fill-rule:nonzero;stroke:none"
               d="M 0,0 L 3.469,0 L 3.469,10.271 C 3.469,12.618 4.932,13.978 6.904,13.978 C 8.843,13.978 10.305,12.618 10.305,10.271 L 10.305,0 L 13.774,0 L 13.774,11.461 C 13.774,15.373 10.713,17.447 8.026,17.447 C 6.19,17.447 4.625,16.767 3.537,15.407 L 3.469,15.407 L 3.469,17.243 L 0,17.243 L 0,0 z" />
          </g>
          <path
             id="path3690"
             style="fill:#656263;fill-opacity:1;fill-rule:evenodd;stroke:none"
             d="M 375.593,324.531 L 379.062,324.531 L 379.062,328 L 375.593,328 L 375.593,324.531 z M 375.593,303.785 L 379.062,303.785 L 379.062,321.028 L 375.593,321.028 L 375.593,303.785 z" />
          <g
             transform="translate(387.5273,303.7847)"
             id="g3692">
            <path
               id="path3694"
               style="fill:#656263;fill-opacity:1;fill-rule:nonzero;stroke:none"
               d="M 0,0 L 2.857,0 L 9.183,17.243 L 5.51,17.243 L 1.462,5.169 L 1.394,5.169 L -2.653,17.243 L -6.326,17.243 L 0,0 z" />
          </g>
          <g
             transform="translate(401.1553,313.9536)"
             id="g3696">
            <path
               id="path3698"
               style="fill:#656263;fill-opacity:1;fill-rule:evenodd;stroke:none"
               d="M 0,0 C 0.068,2.619 1.599,4.013 3.639,4.013 C 5.68,4.013 7.176,2.619 7.279,0 L 0,0 z M 10.748,-2.857 L 10.748,0 C 10.748,4.456 7.449,7.278 3.639,7.278 C 0.307,7.278 -3.469,5.102 -3.469,-1.598 C -3.469,-8.672 0.646,-10.373 4.184,-10.373 C 6.496,-10.373 8.707,-9.557 10.408,-7.584 L 7.891,-5.441 C 6.87,-6.496 5.442,-7.108 4.116,-7.108 C 1.735,-7.108 0,-5.68 0,-2.857 L 10.748,-2.857 z" />
          </g>
          <g
             transform="translate(415.543,303.7847)"
             id="g3700">
            <path
               id="path3702"
               style="fill:#656263;fill-opacity:1;fill-rule:nonzero;stroke:none"
               d="M 0,0 L 3.469,0 L 3.469,10.373 C 3.469,12.89 5.136,13.978 6.836,13.978 C 7.721,13.978 8.299,13.74 9.115,13.128 L 11.632,16.121 C 10.577,16.937 9.421,17.447 8.026,17.447 C 6.189,17.447 4.625,16.767 3.537,15.407 L 3.469,15.407 L 3.469,17.243 L 0,17.243 L 0,0 z" />
          </g>
          <g
             transform="translate(426.8584,306.6753)"
             id="g3704">
            <path
               id="path3706"
               style="fill:#656263;fill-opacity:1;fill-rule:nonzero;stroke:none"
               d="M 0,0 C 2.21,-2.074 4.795,-3.095 7.584,-3.095 C 11.597,-3.095 14.726,-1.156 14.726,2.211 C 14.726,4.966 13.298,7.143 9.727,7.38 L 6.869,7.584 C 5.135,7.721 4.591,8.469 4.591,9.217 C 4.591,10.407 5.339,11.292 7.55,11.292 C 9.421,11.292 10.815,10.646 12.176,9.693 L 14.318,12.21 C 12.617,13.638 10.577,14.557 7.55,14.557 C 3.911,14.557 1.122,12.754 1.122,9.251 C 1.122,6.292 3.23,4.591 6.088,4.354 L 9.148,4.082 C 10.339,3.979 11.257,3.605 11.257,2.381 C 11.257,0.918 9.828,0.17 7.856,0.17 C 5.543,0.17 3.911,0.918 2.414,2.381 L 0,0 z" />
          </g>
          <path
             id="path3708"
             style="fill:#656263;fill-opacity:1;fill-rule:evenodd;stroke:none"
             d="M 445.185,324.531 L 448.654,324.531 L 448.654,328 L 445.185,328 L 445.185,324.531 z M 445.185,303.785 L 448.654,303.785 L 448.654,321.028 L 445.185,321.028 L 445.185,303.785 z" />
          <g
             transform="translate(453.4463,321.0278)"
             id="g3710">
            <path
               id="path3712"
               style="fill:#656263;fill-opacity:1;fill-rule:nonzero;stroke:none"
               d="M 0,0 L -1.734,0 L -1.734,-2.653 L 0,-2.653 L 0,-12.992 C 0,-15.713 1.768,-17.243 4.183,-17.243 L 5.985,-17.243 L 5.985,-13.978 L 4.693,-13.978 C 3.843,-13.978 3.469,-13.638 3.469,-12.686 L 3.469,-2.653 L 5.985,-2.653 L 5.985,0 L 3.469,0 L 3.469,5.237 L 0,5.237 L 0,0 z" />
          </g>
          <g
             transform="translate(471.7324,309.8384)"
             id="g3714">
            <path
               id="path3716"
               style="fill:#656263;fill-opacity:1;fill-rule:evenodd;stroke:none"
               d="M 0,0 C 0,-2.687 -0.986,-2.993 -3.877,-2.993 C -6.224,-2.993 -7.142,-1.973 -7.142,-0.816 C -7.142,0.442 -6.189,1.258 -4.149,1.258 L 0,1.258 L 0,0 z M 0,-6.054 L 3.47,-6.054 L 3.47,5.714 C 3.47,9.965 0.544,11.394 -3.707,11.394 C -6.292,11.394 -8.196,10.713 -9.522,8.877 L -6.802,6.802 C -6.189,7.789 -5.34,8.128 -3.537,8.128 C -1.054,8.128 0,7.55 0,5.918 L 0,4.115 L -4.795,4.115 C -8.502,4.115 -10.407,1.769 -10.407,-0.986 C -10.407,-3.979 -8.162,-6.258 -4.319,-6.258 C -1.973,-6.258 -0.782,-5.714 -0.067,-4.523 L 0,-4.523 L 0,-6.054 z M -7.618,13.876 L -3.945,13.876 L -3.945,17.549 L -7.618,17.549 L -7.618,13.876 z M -1.632,13.876 L 2.041,13.876 L 2.041,17.549 L -1.632,17.549 L -1.632,13.876 z" />
          </g>
          <g
             transform="translate(479.8965,321.0278)"
             id="g3718">
            <path
               id="path3720"
               style="fill:#656263;fill-opacity:1;fill-rule:nonzero;stroke:none"
               d="M 0,0 L -1.734,0 L -1.734,-2.653 L 0,-2.653 L 0,-12.992 C 0,-15.713 1.769,-17.243 4.184,-17.243 L 5.985,-17.243 L 5.985,-13.978 L 4.693,-13.978 C 3.843,-13.978 3.469,-13.638 3.469,-12.686 L 3.469,-2.653 L 5.985,-2.653 L 5.985,0 L 3.469,0 L 3.469,5.237 L 0,5.237 L 0,0 z" />
          </g>
        </g>
      </g>
    </g>
  </g>
</svg>
