<svg width="391" height="423" viewBox="0 0 391 423" fill="none" xmlns="http://www.w3.org/2000/svg">
<path d="M304.516 173.154V163.491C304.516 143.525 291.632 133.862 266.509 133.862H169.882C144.115 133.862 131.232 143.525 131.232 163.491V173.154C131.232 191.838 144.115 201.501 169.882 201.501H266.509C291.632 201.501 304.516 191.838 304.516 173.154ZM390.839 173.154C390.839 226.624 354.117 266.563 300.01 276.226C302.583 285.244 303.875 295.551 303.875 307.146V326.472C303.875 332.914 300.654 336.134 294.853 336.134H227.214C220.773 336.134 217.552 332.914 217.552 326.472V307.146C217.552 287.821 204.668 278.158 179.545 278.158H160.22C126.722 278.158 99.0227 268.496 77.7648 248.523C56.5069 228.553 45.5559 203.43 45.5559 173.154V163.491C45.5559 111.316 82.2741 70.7296 136.385 60.4228C133.164 48.8276 131.232 38.5207 131.232 29.5022V10.8242C131.232 4.38245 134.453 1.16156 140.894 1.16156H207.889C214.331 1.16156 217.552 4.38245 217.552 10.8242V29.5022C217.552 48.1834 230.435 57.2019 256.202 57.2019H275.528C308.381 57.2019 335.44 67.5087 357.986 87.4783C379.885 107.451 390.839 132.571 390.839 163.491V173.154Z" fill="black"/>
<path d="M22.0302 394.877C22.0302 395.263 21.8369 395.46 21.4504 395.46H12.9859V420.158C12.9859 420.544 12.7926 420.734 12.4061 420.734H11.0147C10.6282 420.734 10.4349 420.544 10.4349 420.158V395.46H1.97043C1.58392 395.46 1.39067 395.263 1.39067 394.877V393.72C1.39067 393.334 1.58392 393.138 1.97043 393.138H21.4504C21.8369 393.138 22.0302 393.334 22.0302 393.72V394.877Z" fill="black" stroke="black" stroke-width="0.75"/>
<path d="M39.3064 396.616C39.3064 397.003 39.1131 397.199 38.7266 397.199H37.3352C36.9487 397.199 36.7554 397.003 36.7554 396.616V393.72C36.7554 393.331 36.9487 393.138 37.3352 393.138H38.7266C39.1131 393.138 39.3064 393.331 39.3064 393.72V396.616ZM46.65 420.158C46.65 420.544 46.4567 420.734 46.0702 420.734H29.9915C29.605 420.734 29.4118 420.544 29.4118 420.158V418.995C29.4118 418.608 29.605 418.418 29.9915 418.418H36.7554V401.219C36.7554 400.832 36.9487 400.636 37.3352 400.636H38.7266C39.1131 400.636 39.3064 400.832 39.3064 401.219V418.418H46.0702C46.4567 418.418 46.65 418.608 46.65 418.995V420.158Z" fill="black" stroke="black" stroke-width="0.75"/>
<path d="M74.6715 420.156C74.6715 420.543 74.4782 420.736 74.0917 420.736H72.6617C72.2751 420.736 72.0819 420.543 72.0819 420.156V405.504C72.0819 403.61 71.0383 402.644 68.9512 402.644C66.7481 402.644 65.6272 403.61 65.6272 405.504V420.156C65.6272 420.543 65.434 420.736 65.0475 420.736H63.656C63.2695 420.736 63.0763 420.543 63.0763 420.156V405.504C63.0763 403.61 61.9941 402.644 59.791 402.644C57.6652 402.644 56.583 403.61 56.583 405.504V420.156C56.583 420.543 56.3897 420.736 56.0418 420.736H54.6118C54.2253 420.736 54.032 420.543 54.032 420.156V401.217C54.032 400.831 54.2253 400.634 54.6118 400.634H56.0418C56.3897 400.634 56.583 400.831 56.583 401.217V401.256C57.6265 400.634 58.6701 400.328 59.791 400.328C61.7622 400.328 63.2695 400.947 64.3518 402.222C65.4726 400.947 66.98 400.328 68.9512 400.328C72.3524 400.328 74.6715 402.454 74.6715 405.504V420.156Z" fill="black" stroke="black" stroke-width="0.75"/>
<path d="M97.3233 409.525V408.369C97.3233 404.539 95.3908 402.645 91.5644 402.645H89.8251C85.9987 402.645 84.0661 404.539 84.0661 408.369V409.525H97.3233ZM99.8743 411.264C99.8743 411.651 99.681 411.847 99.3332 411.847H84.0661V412.694C84.0661 416.524 85.9987 418.418 89.8251 418.418H97.0141C97.4006 418.418 97.5939 418.608 97.5939 418.994V420.157C97.5939 420.544 97.4006 420.734 97.0141 420.734H89.5159C84.1821 420.734 81.5152 418.067 81.5152 412.694V408.369C81.5152 402.996 84.1821 400.329 89.5159 400.329H91.8349C97.2074 400.329 99.8743 402.996 99.8743 408.369V411.264V411.264Z" fill="black" stroke="black" stroke-width="0.75"/>
<path d="M123.952 413.004V408.369C123.952 404.539 122.058 402.645 118.232 402.645H116.493C112.666 402.645 110.734 404.539 110.734 408.369V413.004C110.734 416.795 112.666 418.688 116.493 418.688H118.232C122.058 418.688 123.952 416.795 123.952 413.004ZM126.542 413.004C126.542 418.337 123.875 421.004 118.502 421.004H116.493C114.019 421.004 112.086 420.386 110.734 419.188V420.157C110.734 420.544 110.54 420.734 110.193 420.734H108.762C108.376 420.734 108.183 420.544 108.183 420.157V393.72C108.183 393.334 108.376 393.137 108.762 393.137H110.193C110.54 393.137 110.734 393.334 110.734 393.72V402.185C112.086 400.948 114.019 400.326 116.493 400.326H118.502C123.875 400.326 126.542 402.996 126.542 408.369V413.004Z" fill="black" stroke="black" stroke-width="0.75"/>
<path d="M149.886 415.866V413.273C149.886 412.31 149.5 411.576 148.765 411.035C148.108 410.61 147.374 410.378 146.485 410.378H140.146C139.218 410.378 138.445 410.61 137.788 411.035C137.054 411.576 136.668 412.31 136.668 413.273V415.866C136.668 416.832 137.054 417.563 137.788 418.069C138.445 418.491 139.218 418.688 140.146 418.688H146.485C147.374 418.688 148.147 418.491 148.765 418.069C149.5 417.563 149.886 416.832 149.886 415.866ZM152.476 420.156C152.476 420.543 152.282 420.736 151.935 420.736H150.466C150.079 420.736 149.886 420.543 149.886 420.156V420.114C148.92 420.697 147.799 421.007 146.485 421.007H139.837C136.474 421.007 134.117 418.916 134.117 415.866V413.273C134.117 410.223 136.474 408.055 139.837 408.055H146.485C147.838 408.055 148.958 408.368 149.886 409.025V408.638C149.886 404.851 147.992 402.954 144.166 402.954H137.247C136.861 402.954 136.668 402.763 136.668 402.377V401.217C136.668 400.831 136.861 400.634 137.247 400.634H144.436C149.809 400.634 152.476 403.305 152.476 408.638V420.156V420.156Z" fill="black" stroke="black" stroke-width="0.75"/>
<path d="M178.838 415.866C178.838 418.916 176.519 421.007 173.118 421.007H166.238C163.03 421.007 160.788 419.187 160.518 416.446C160.479 416.059 160.672 415.866 161.059 415.866H162.566C162.837 415.866 163.03 416.059 163.146 416.446C163.416 417.95 164.537 418.688 166.508 418.688H172.847C173.736 418.688 174.509 418.491 175.128 418.069C175.901 417.563 176.287 416.832 176.287 415.866V414.397C176.287 413.431 175.901 412.697 175.166 412.191C174.548 411.769 173.775 411.534 172.847 411.534H166.238C162.837 411.534 160.479 409.45 160.479 406.397V405.504C160.479 402.454 162.837 400.328 166.238 400.328H172.538C175.669 400.328 177.949 402.184 178.258 404.928C178.297 405.314 178.104 405.504 177.678 405.504H176.21C175.901 405.504 175.707 405.314 175.63 404.928C175.359 403.421 174.239 402.648 172.267 402.648H166.508C165.581 402.648 164.808 402.879 164.189 403.305C163.416 403.807 163.03 404.538 163.03 405.504V406.397C163.03 407.36 163.416 408.097 164.189 408.6C164.808 409.025 165.581 409.218 166.508 409.218H173.118C176.519 409.218 178.838 411.344 178.838 414.397V415.866Z" fill="black" stroke="black" stroke-width="0.75"/>
<path d="M202.608 409.525V408.369C202.608 404.539 200.675 402.645 196.849 402.645H195.11C191.283 402.645 189.351 404.539 189.351 408.369V409.525H202.608ZM205.159 411.264C205.159 411.651 204.966 411.847 204.618 411.847H189.351V412.694C189.351 416.524 191.283 418.418 195.11 418.418H202.299C202.685 418.418 202.879 418.608 202.879 418.994V420.157C202.879 420.544 202.685 420.734 202.299 420.734H194.801C189.467 420.734 186.8 418.067 186.8 412.694V408.369C186.8 402.996 189.467 400.329 194.801 400.329H197.12C202.492 400.329 205.159 402.996 205.159 408.369V411.264V411.264Z" fill="black" stroke="black" stroke-width="0.75"/>
<path d="M228.542 413.004V408.369C228.542 404.539 226.609 402.645 222.783 402.645H221.043C217.217 402.645 215.284 404.539 215.284 408.369V413.004C215.284 416.795 217.217 418.688 221.043 418.688H222.783C226.609 418.688 228.542 416.795 228.542 413.004ZM231.093 420.157C231.093 420.544 230.899 420.734 230.551 420.734H229.121C228.738 420.734 228.542 420.544 228.542 420.157V419.188C227.15 420.386 225.218 421.004 222.783 421.004H220.734C215.4 421.004 212.733 418.337 212.733 413.004V408.369C212.733 402.996 215.4 400.326 220.734 400.326H222.783C225.218 400.326 227.15 400.948 228.542 402.185V393.72C228.542 393.334 228.738 393.137 229.121 393.137H230.551C230.899 393.137 231.093 393.334 231.093 393.72V420.157V420.157Z" fill="black" stroke="black" stroke-width="0.75"/>
<path d="M284.121 420.156C284.121 420.543 283.924 420.736 283.58 420.736H282.15C281.763 420.736 281.57 420.543 281.57 420.156V398.663L276.545 411.263C276.391 411.65 276.194 411.846 275.966 411.846H273.917C273.721 411.846 273.531 411.65 273.376 411.263L268.313 398.663V420.156C268.313 420.543 268.116 420.736 267.772 420.736H266.342C265.952 420.736 265.762 420.543 265.762 420.156V393.719C265.762 393.333 265.952 393.136 266.342 393.136H268.467C268.699 393.136 268.889 393.333 269.047 393.719L274.922 409.025L280.836 393.719C281.029 393.333 281.222 393.136 281.415 393.136H283.58C283.924 393.136 284.121 393.333 284.121 393.719V420.156Z" fill="black" stroke="black" stroke-width="0.75"/>
<path d="M307.894 409.525V408.369C307.894 404.539 305.958 402.645 302.132 402.645H300.396C296.566 402.645 294.633 404.539 294.633 408.369V409.525H307.894ZM310.441 411.264C310.441 411.651 310.248 411.847 309.9 411.847H294.633V412.694C294.633 416.524 296.566 418.418 300.396 418.418H307.581C307.968 418.418 308.164 418.608 308.164 418.994V420.157C308.164 420.544 307.968 420.734 307.581 420.734H300.083C294.753 420.734 292.086 418.067 292.086 412.694V408.369C292.086 402.996 294.753 400.329 300.083 400.329H302.402C307.775 400.329 310.441 402.996 310.441 408.369V411.264V411.264Z" fill="black" stroke="black" stroke-width="0.75"/>
<path d="M333.825 413.004V408.369C333.825 404.539 331.892 402.645 328.069 402.645H326.326C322.5 402.645 320.571 404.539 320.571 408.369V413.004C320.571 416.795 322.5 418.688 326.326 418.688H328.069C331.892 418.688 333.825 416.795 333.825 413.004ZM336.379 420.157C336.379 420.544 336.182 420.734 335.838 420.734H334.404C334.021 420.734 333.825 420.544 333.825 420.157V419.188C332.433 420.386 330.504 421.004 328.069 421.004H326.017C320.683 421.004 318.016 418.337 318.016 413.004V408.369C318.016 402.996 320.683 400.326 326.017 400.326H328.069C330.504 400.326 332.433 400.948 333.825 402.185V393.72C333.825 393.334 334.021 393.137 334.404 393.137H335.838C336.182 393.137 336.379 393.334 336.379 393.72V420.157V420.157Z" fill="black" stroke="black" stroke-width="0.75"/>
<path d="M355.16 396.616C355.16 397.003 354.966 397.199 354.58 397.199H353.188C352.805 397.199 352.609 397.003 352.609 396.616V393.72C352.609 393.331 352.805 393.138 353.188 393.138H354.58C354.966 393.138 355.16 393.331 355.16 393.72V396.616ZM362.503 420.158C362.503 420.544 362.31 420.734 361.927 420.734H345.845C345.458 420.734 345.268 420.544 345.268 420.158V418.995C345.268 418.608 345.458 418.418 345.845 418.418H352.609V401.219C352.609 400.832 352.805 400.636 353.188 400.636H354.58C354.966 400.636 355.16 400.832 355.16 401.219V418.418H361.927C362.31 418.418 362.503 418.608 362.503 418.995V420.158V420.158Z" fill="black" stroke="black" stroke-width="0.75"/>
<path d="M386.777 415.866V413.273C386.777 412.31 386.391 411.576 385.656 411.035C384.999 410.61 384.265 410.378 383.376 410.378H377.037C376.11 410.378 375.337 410.61 374.68 411.035C373.948 411.576 373.559 412.31 373.559 413.273V415.866C373.559 416.832 373.948 417.563 374.68 418.069C375.337 418.491 376.11 418.688 377.037 418.688H383.376C384.265 418.688 385.038 418.491 385.656 418.069C386.391 417.563 386.777 416.832 386.777 415.866ZM389.367 420.156C389.367 420.543 389.174 420.736 388.826 420.736H387.36C386.971 420.736 386.777 420.543 386.777 420.156V420.114C385.811 420.697 384.693 421.007 383.376 421.007H376.728C373.366 421.007 371.008 418.916 371.008 415.866V413.273C371.008 410.223 373.366 408.055 376.728 408.055H383.376C384.729 408.055 385.85 408.368 386.777 409.025V408.638C386.777 404.851 384.883 402.954 381.057 402.954H374.139C373.752 402.954 373.559 402.763 373.559 402.377V401.217C373.559 400.831 373.752 400.634 374.139 400.634H381.328C386.7 400.634 389.367 403.305 389.367 408.638V420.156V420.156Z" fill="black" stroke="black" stroke-width="0.75"/>
</svg>
