<svg width="555" height="298" viewBox="0 0 555 298" fill="none" xmlns="http://www.w3.org/2000/svg">
<path d="M341.95 85.0023C341.95 61.6797 340.295 46.8201 325.639 29.7582C308.014 9.08859 282.541 7.39265 252.198 7.39265H225.045V35.5891H248.657C267.054 35.5891 280.659 35.2629 295.423 48.6607C303.847 57.0749 307.592 67.7531 308.109 80.1138C308.145 81.1204 308.169 102.054 308.169 102.054V204.525H341.95V85.0023Z" fill="#7B7979"/>
<path d="M341.95 85.0023C341.95 61.6797 340.295 46.8201 325.639 29.7582C308.014 9.08859 282.541 7.39265 252.198 7.39265H225.045V35.5891H248.657C267.054 35.5891 280.659 35.2629 295.423 48.6607C303.847 57.0749 307.592 67.7531 308.109 80.1138C308.145 81.1204 308.169 102.054 308.169 102.054V204.525H341.95V85.0023Z" stroke="#7B7979" stroke-width="1.61196"/>
<path d="M203.714 33.5999C202.875 37.0621 199.793 39.6365 196.112 39.6365L164.693 39.5641C164.634 14.6897 164.693 14.7347 164.693 14.7347C164.693 13.8106 164.851 12.9214 165.134 12.0957C165.972 8.6264 169.053 6.05843 172.728 6.05843L204.085 6.0946L204.161 30.9576L204.116 31.7624C204.053 32.4054 203.921 33.0172 203.714 33.5999" fill="#EC008C"/>
<path d="M203.714 33.5999C202.875 37.0621 199.793 39.6365 196.112 39.6365L164.693 39.5641C164.634 14.6897 164.693 14.7347 164.693 14.7347C164.693 13.8106 164.851 12.9214 165.134 12.0957C165.972 8.6264 169.053 6.05843 172.728 6.05843L204.085 6.0946L204.161 30.9576L204.116 31.7624C204.053 32.4054 203.921 33.0172 203.714 33.5999" stroke="#EC008C" stroke-width="1.61196"/>
<path d="M134.966 204.525H8.42432V7.39265H42.1876V176.344H134.949L134.966 204.525Z" fill="#7B7979"/>
<path d="M134.966 204.525H8.42432V7.39265H42.1876V176.344H134.949L134.966 204.525Z" stroke="#7B7979" stroke-width="1.61196"/>
<path d="M200.427 60.5524H166.323V204.525H200.427V60.5524Z" fill="#7B7979"/>
<path d="M200.427 60.5524H166.323V204.525H200.427V60.5524Z" stroke="#7B7979" stroke-width="1.61196"/>
<path d="M373.224 172.355L507.59 35.5941L381.548 35.6196L381.559 7.39072H544.981L544.997 41.3325L412.347 176.309L545.014 176.295V204.525L373.235 204.549L373.224 172.355" fill="#7B7979"/>
<path d="M373.224 172.355L507.59 35.5941L381.548 35.6196L381.559 7.39072H544.981L544.997 41.3325L412.347 176.309L545.014 176.295V204.525L373.235 204.549L373.224 172.355" stroke="#7B7979" stroke-width="1.61196"/>
<path d="M6.73315 232.844H14.0897V265.179C14.0897 268.323 15.3358 269.865 18.0055 269.865C20.6754 269.865 21.9213 268.323 21.9213 265.179V232.844H29.2778V264.882C29.2778 272.239 25.0062 276.273 18.0055 276.273C11.005 276.273 6.73315 272.239 6.73315 264.882V232.844V232.844ZM36.3949 275.679V232.844H43.2179L52.1765 257.347H52.2951V232.844H58.94V275.679H52.5323L43.1583 248.922H43.0396V275.679H36.3949ZM66.0567 275.679V232.844H85.7539V239.252H73.4135V250.287H82.906V256.694H73.4135V269.272H86.5847V275.679H66.0567V275.679ZM105.804 243.405C105.507 239.726 103.549 238.659 101.888 238.659C99.5154 238.659 98.2099 240.201 98.2099 242.871C98.2099 250.168 113.161 253.669 113.161 265.297C113.161 272.357 108.415 276.273 101.533 276.273C94.7095 276.273 90.7934 270.814 90.497 264.407L97.4977 263.399C97.7948 267.73 99.5154 269.865 101.888 269.865C104.439 269.865 106.16 268.501 106.16 265.949C106.16 257.465 91.2092 255.211 91.2092 242.93C91.2092 236.108 95.362 232.251 102.6 232.251C108.592 232.251 112.152 236.582 112.805 242.634L105.804 243.405ZM133.567 247.143V243.82C133.567 240.201 131.905 238.659 130.007 238.659C127.04 238.659 126.092 240.201 126.092 243.405V265.119C126.092 268.323 127.04 269.865 130.007 269.865C132.677 269.865 133.567 268.323 133.567 265.534V260.373H140.924V265.297C140.924 271.349 137.364 276.273 130.007 276.273C122.295 276.273 118.735 271.349 118.735 265.297V243.227C118.735 237.175 122.295 232.251 130.007 232.251C137.364 232.251 140.924 237.591 140.924 243.998V247.143H133.567ZM155.753 265.119C155.753 268.323 156.703 269.865 159.669 269.865C162.636 269.865 163.584 268.323 163.584 265.119V243.405C163.584 240.201 162.636 238.659 159.669 238.659C156.703 238.659 155.753 240.201 155.753 243.405V265.119ZM148.397 243.227C148.397 237.175 151.956 232.251 159.669 232.251C167.382 232.251 170.941 237.175 170.941 243.227V265.297C170.941 271.349 167.382 276.273 159.669 276.273C151.956 276.273 148.397 271.349 148.397 265.297V243.227Z" fill="#EC008C"/>
<path d="M199.803 247.143V243.82C199.803 240.201 198.141 238.659 196.243 238.659C193.277 238.659 192.327 240.201 192.327 243.405V265.119C192.327 268.323 193.277 269.866 196.243 269.866C198.912 269.866 199.803 268.323 199.803 265.534V260.373H207.16V265.297C207.16 271.349 203.6 276.273 196.243 276.273C188.53 276.273 184.971 271.349 184.971 265.297V243.227C184.971 237.175 188.53 232.251 196.243 232.251C203.6 232.251 207.16 237.591 207.16 243.998V247.143H199.803ZM214.336 275.679V243.76H220.981V275.679H214.336ZM214.336 238.896V232.844H220.981V238.896H214.336ZM224.835 249.219V243.76H228.514V235.158H235.158V243.76H239.608V249.219H235.158V267.611C235.158 269.272 235.87 270.222 237.413 270.222H239.608V275.918C238.718 276.155 237.946 276.273 236.285 276.273C231.302 276.273 228.514 273.959 228.514 269.095V249.219H224.835V249.219ZM256.515 243.76H263.219L254.854 278.053C253.43 283.867 250.76 285.706 245.777 285.706H242.988V280.248H244.59C247.912 280.248 248.981 278.468 248.981 275.086C248.981 273.781 248.684 272.417 248.268 270.874L241.327 243.76H248.09L252.362 264.17H252.481L256.515 243.76V243.76ZM290.745 253.847C290.745 250.168 289.439 248.626 287.067 248.626C284.694 248.626 283.388 250.168 283.388 253.847V265.594C283.388 269.272 284.694 270.814 287.067 270.814C289.439 270.814 290.745 269.272 290.745 265.594V253.847ZM276.744 255.033C276.744 248.032 279.473 243.168 287.067 243.168C294.661 243.168 297.39 248.032 297.39 255.033V264.407C297.39 271.408 294.661 276.273 287.067 276.273C279.473 276.273 276.744 271.408 276.744 264.407V255.033ZM304.744 249.219H300.828V243.76H304.744V239.786C304.744 234.624 307.472 232.251 312.159 232.251H315.482V237.709H313.583C311.981 237.709 311.388 238.303 311.388 239.846V243.76H315.185V249.219H311.388V275.679H304.744V249.219V249.219ZM359.916 232.844V275.679H353.509V242.219H353.39L346.745 275.679H343.186L336.54 242.219H336.422V275.679H330.014V232.844H339.685L344.906 257.881H345.024L350.245 232.844H359.916V232.844ZM379.966 255.508V253.847C379.966 250.168 378.661 248.626 376.288 248.626C373.915 248.626 372.609 250.168 372.609 253.847V255.508H379.966ZM386.611 260.966H372.609V265.594C372.609 269.272 373.915 270.814 376.288 270.814C378.661 270.814 379.966 269.272 379.966 265.594V264.882H386.611C386.492 271.645 383.703 276.273 376.288 276.273C368.693 276.273 365.965 271.408 365.965 264.407V255.033C365.965 248.032 368.693 243.168 376.288 243.168C383.882 243.168 386.611 248.032 386.611 255.033V260.966V260.966ZM405.949 250.287C404.643 249.338 403.457 248.626 402.152 248.626C400.372 248.626 398.948 249.576 398.948 253.787V265.654C398.948 269.866 400.372 270.814 402.152 270.814C403.457 270.814 404.643 270.102 405.949 269.153V250.287ZM406.304 275.679V272.357H406.186C403.991 275.146 402.389 276.273 399.066 276.273C394.914 276.273 392.304 273.188 392.304 267.374V252.067C392.304 246.253 394.914 243.168 399.066 243.168C401.974 243.168 403.338 244.354 405.949 246.49V232.844H412.594V275.679H406.304V275.679ZM419.057 275.679V243.76H425.702V275.679H419.057ZM419.057 238.896V232.844H425.702V238.896H419.057ZM445.16 259.483C439.109 262.924 437.625 265.119 437.625 267.907C437.625 269.984 438.694 270.814 440.71 270.814C442.55 270.814 444.033 269.451 445.16 267.848V259.483ZM431.455 253.135C431.811 246.669 435.905 243.168 442.134 243.168C448.304 243.168 451.805 246.016 451.805 251.829V272.298C451.805 273.306 452.043 274.612 452.22 275.679H445.872C445.812 274.789 445.575 273.959 445.517 273.188C443.024 275.205 440.947 276.273 437.744 276.273C433.235 276.273 430.98 273.188 430.98 269.095C430.98 262.093 435.608 258.237 445.16 254.618V252.72C445.16 250.05 444.092 248.626 441.897 248.626C438.871 248.626 438.219 250.406 438.1 253.135H431.455V253.135ZM475.65 259.78H481.583L478.676 241.388H478.557L475.65 259.78ZM473.277 275.679H466.158L474.048 232.844H483.185L491.076 275.679H483.956L482.65 266.187H474.582L473.277 275.679V275.679ZM494.988 275.679V243.76H501.336V247.499H501.455C503.057 244.77 505.845 243.168 508.989 243.168H510.354V250.109C509.168 249.813 508.04 249.456 506.082 249.456C503.828 249.456 501.633 250.88 501.633 253.728V275.679H494.988ZM512.132 249.219V243.76H515.811V235.158H522.455V243.76H526.905V249.219H522.455V267.611C522.455 269.272 523.167 270.222 524.71 270.222H526.905V275.918C526.015 276.155 525.244 276.273 523.583 276.273C518.599 276.273 515.811 273.959 515.811 269.095V249.219H512.132ZM543.338 252.601C542.863 250.05 541.676 248.626 539.54 248.626C537.82 248.626 536.633 249.516 536.633 251.177C536.633 256.161 549.092 258.178 549.092 267.67C549.092 273.366 545.177 276.273 539.778 276.273C533.964 276.273 530.642 272.951 529.633 267.374L535.447 265.772C535.862 268.441 536.811 270.814 539.837 270.814C541.558 270.814 542.804 269.807 542.804 268.026C542.804 262.509 530.345 260.432 530.345 251.711C530.345 246.669 534.26 243.168 539.244 243.168C544.465 243.168 547.966 246.669 548.974 251.652L543.338 252.601" fill="#7B7979"/>
</svg>
