<svg width="503" height="328" viewBox="0 0 503 328" fill="none" xmlns="http://www.w3.org/2000/svg">
<g clip-path="url(#clip0_21:260)">
<path d="M38.6257 243.089H243.085V38.6289H38.6257V243.089Z" stroke="#D22027" stroke-width="4.51733"/>
<path d="M466.497 36.8245H262.038V243.807H466.497V36.8245ZM361.703 228.555H277.988V144.839H361.703V228.555ZM407.63 144.866H414.701L409.774 156.786H402.703L407.628 144.872H395.649L400.601 132.893H412.579L407.63 144.866ZM450.548 228.581H366.832V144.866H395.652L390.725 156.786H378.752V216.663H438.629V156.786H421.754L426.678 144.872H414.699L419.65 132.893H431.629L426.68 144.866H450.548V228.581ZM426.678 144.872L426.68 144.866L426.678 144.872ZM407.628 144.872L407.63 144.866L407.628 144.872ZM349.784 156.758H289.906V216.635H349.784V156.758Z" fill="#D22027"/>
<path d="M51.4648 275.644C51.4648 284.47 58.1054 291.363 67.1832 291.363C76.2609 291.363 82.9004 284.47 82.9004 275.644C82.9004 267.029 76.2609 260.304 67.1832 260.304C58.1054 260.304 51.4648 267.029 51.4648 275.644ZM59.0715 275.644C59.0715 270.727 62.6858 267.029 67.1832 267.029C71.6794 267.029 75.2937 270.727 75.2937 275.644C75.2937 280.771 71.6794 284.638 67.1832 284.638C62.6858 284.638 59.0715 280.771 59.0715 275.644ZM89.4344 290.858H100.487C106.454 290.858 111.918 288.462 111.918 281.907C111.918 279.259 110.658 276.191 107.212 275.141V275.056C109.481 273.754 110.699 271.19 110.699 268.668C110.699 263.499 106.497 260.809 100.487 260.809H89.4344V290.858ZM96.7887 272.451V267.113H100.446C102.42 267.113 103.218 268.29 103.218 269.677C103.218 271.106 102.42 272.451 100.571 272.451H96.7887ZM96.7887 284.554V278.334H101.243C103.387 278.334 104.395 279.721 104.395 281.402C104.395 283.083 103.345 284.554 101.202 284.554H96.7887ZM118.662 290.858H138.079V284.554H126.016V278.881H135.178V272.577H126.016V267.113H137.49V260.809H118.662V290.858ZM144.906 290.858H152.261V280.73H155.707L161.045 290.858H169.239L163.398 280.352C162.683 279.09 162.263 278.544 162.263 278.544V278.46C165.247 276.947 166.76 273.459 166.76 270.265C166.76 265.895 164.616 262.827 161.212 261.524C159.909 261.019 158.438 260.809 155.37 260.809H144.906V290.858ZM152.261 274.426V267.113H154.74C158.438 267.113 159.278 268.457 159.278 270.727C159.278 273.123 157.809 274.426 155.454 274.426H152.261ZM172.957 275.644C172.957 284.47 179.597 291.363 188.675 291.363C197.753 291.363 204.394 284.47 204.394 275.644C204.394 267.029 197.753 260.304 188.675 260.304C179.597 260.304 172.957 267.029 172.957 275.644ZM180.565 275.644C180.565 270.727 184.179 267.029 188.675 267.029C193.173 267.029 196.787 270.727 196.787 275.644C196.787 280.771 193.173 284.638 188.675 284.638C184.179 284.638 180.565 280.771 180.565 275.644ZM190.44 258.455H195.736V252.571H190.44V258.455ZM181.657 258.455H186.952V252.571H181.657V258.455ZM208.699 287.075C208.699 287.075 212.607 291.363 219.668 291.363C226.434 291.363 230.259 287.034 230.259 282.033C230.259 272.534 216.727 273.207 216.727 269.425C216.727 267.744 218.408 267.071 219.92 267.071C223.534 267.071 226.561 269.719 226.561 269.719L229.67 263.709C229.67 263.709 226.477 260.304 220.004 260.304C214.037 260.304 209.371 263.961 209.371 269.509C209.371 278.755 222.904 278.628 222.904 282.201C222.904 284.007 221.266 284.597 219.752 284.597C215.97 284.597 212.566 281.486 212.566 281.486L208.699 287.075ZM242.591 290.858H249.946V267.113H259.066V260.809H233.472V267.113H242.591V290.858ZM264.296 290.858H283.713V284.554H271.651V278.881H280.813V272.577H271.651V267.113H283.125V260.809H264.296V290.858ZM290.541 290.858H297.895V280.73H301.341L306.679 290.858H314.873L309.032 280.352C308.318 279.09 307.897 278.544 307.897 278.544V278.46C310.881 276.947 312.394 273.459 312.394 270.265C312.394 265.895 310.25 262.827 306.847 261.524C305.544 261.019 304.073 260.809 301.005 260.809H290.541V290.858ZM297.895 274.426V267.113H300.375C304.073 267.113 304.914 268.457 304.914 270.727C304.914 273.123 303.443 274.426 301.089 274.426H297.895ZM320.735 290.858H328.09V280.73H331.536L336.873 290.858H345.069L339.226 280.352C338.513 279.09 338.092 278.544 338.092 278.544V278.46C341.076 276.947 342.589 273.459 342.589 270.265C342.589 265.895 340.446 262.827 337.042 261.524C335.739 261.019 334.268 260.809 331.2 260.809H320.735V290.858ZM328.09 274.426V267.113H330.569C334.268 267.113 335.108 268.457 335.108 270.727C335.108 273.123 333.637 274.426 331.284 274.426H328.09ZM350.93 290.858H370.347V284.554H358.284V278.881H367.446V272.577H358.284V267.113H369.758V260.809H350.93V290.858ZM377.174 290.858H384.528V260.809H377.174V290.858ZM391.062 275.77C391.062 284.681 397.407 291.363 406.822 291.363C414.681 291.363 418.926 286.319 418.926 286.319L415.143 280.94C415.143 280.94 411.697 284.638 407.158 284.638C401.611 284.638 398.669 280.058 398.669 275.603C398.669 271.274 401.4 267.029 407.158 267.029C411.318 267.029 414.681 270.097 414.681 270.097L418.085 264.549C418.085 264.549 414.26 260.304 406.822 260.304C397.786 260.304 391.062 267.029 391.062 275.77V275.77ZM424.912 290.858H432.267V279.09H443.194V290.858H450.548V260.809H443.194V272.829H432.267V260.809H424.912V290.858Z" fill="#D22027"/>
<path d="M54.2841 228.192H81.5632V219.429H64.5069V186.426H54.2841V228.192ZM119.52 228.192H130.035L115.84 186.426H105.092L90.8966 228.192H101.411L103.923 219.429H116.95L119.52 228.192ZM110.524 195.948C110.524 195.948 111.458 200.504 112.218 203.133L114.555 211.252H106.319L108.713 203.133C109.473 200.504 110.407 195.948 110.407 195.948H110.524ZM141.88 228.192H152.103V208.74C152.103 206.111 151.635 201.614 151.635 201.614H151.752C151.752 201.614 153.622 205.995 155.257 208.74L166.882 228.192H177.162V186.426H166.94V205.936C166.94 208.565 167.407 213.063 167.407 213.063H167.291C167.291 213.063 165.421 208.681 163.785 205.936L152.22 186.426H141.88V228.192ZM191.228 228.192H206.064C219.208 228.192 227.62 220.365 227.62 207.221C227.62 194.078 219.208 186.426 206.064 186.426H191.228V228.192ZM201.45 219.429V195.188H205.656C212.548 195.188 217.047 199.276 217.047 207.221C217.047 215.224 212.724 219.429 205.656 219.429H201.45Z" fill="#D22027"/>
<path d="M53.1646 177.956H61.0546V164.881H64.3003L71.1092 177.956H79.9451L70.7481 161.229V161.139L79.4498 145.719H70.9739L64.3003 158.163H61.0546V145.719H53.1646V177.956ZM83.7778 166.098C83.7778 173.357 89.0975 178.497 97.3028 178.497C105.419 178.497 110.738 173.357 110.738 166.098V145.719H102.849V166.098C102.849 169.48 100.64 171.283 97.2581 171.283C93.8771 171.283 91.6678 169.48 91.6678 166.098V145.719H83.7778V166.098ZM117.861 177.956H138.917V171.193H125.752V145.719H117.861V177.956ZM147.168 177.956H155.058V152.482H164.842V145.719H137.384V152.482H147.168V177.956ZM168.357 166.098C168.357 173.357 173.678 178.497 181.883 178.497C189.999 178.497 195.319 173.357 195.319 166.098V145.719H187.429V166.098C187.429 169.48 185.219 171.283 181.838 171.283C178.456 171.283 176.247 169.48 176.247 166.098V145.719H168.357V166.098ZM202.442 177.956H210.332V167.091H214.029L219.755 177.956H228.547L222.279 166.685C221.513 165.332 221.062 164.746 221.062 164.746V164.656C224.264 163.032 225.886 159.29 225.886 155.863C225.886 151.175 223.587 147.884 219.935 146.486C218.537 145.945 216.96 145.719 213.668 145.719H202.442V177.956ZM210.332 160.328V152.482H212.992C216.96 152.482 217.861 153.925 217.861 156.36C217.861 158.93 216.283 160.328 213.759 160.328H210.332Z" fill="#D22027"/>
<path d="M477.963 311.889V327.867M15.9782 25.0363H0H15.9782ZM487.022 25.0363H503H487.022ZM15.9782 302.831H0H15.9782ZM487.022 302.831H503H487.022ZM25.0368 15.9778V-0.000471869V15.9778ZM25.0368 311.889V327.867V311.889ZM477.963 15.9778V-0.000471869V15.9778Z" stroke="white" stroke-width="1.66667" stroke-miterlimit="10"/>
<path d="M477.963 311.889V327.867M15.9782 25.0363H0H15.9782ZM487.022 25.0363H503H487.022ZM15.9782 302.831H0H15.9782ZM487.022 302.831H503H487.022ZM25.0368 15.9778V-0.000471869V15.9778ZM25.0368 311.889V327.867V311.889ZM477.963 15.9778V-0.000471869V15.9778Z" stroke="black" stroke-width="0.333333" stroke-miterlimit="10"/>
</g>
<defs>
<clipPath id="clip0_21:260">
<rect width="503" height="327.868" fill="white"/>
</clipPath>
</defs>
</svg>
