<svg width="961" height="172" viewBox="0 0 961 172" fill="none" xmlns="http://www.w3.org/2000/svg">
<path fill-rule="evenodd" clip-rule="evenodd" d="M86.5631 131.514H122.408V21.4993H86.5631V131.514ZM73.9438 70.558L73.899 52.7505H33.1212C42.8333 22.7901 70.9663 1.12963 104.153 1.12963C137.347 1.12963 165.48 22.7901 175.186 52.7505H135.072V70.0085L183.914 70.673C186.291 67.67 189.971 65.7403 194.098 65.7403C201.274 65.7403 207.095 71.5611 207.095 78.7366C207.095 85.912 201.274 91.7328 194.098 91.7328C189.057 91.7328 184.68 88.8511 182.527 84.6532H134.746L135.072 101.592H174.221C163.716 130.095 136.312 150.42 104.153 150.42C72.0014 150.42 44.5904 130.095 34.086 101.592H73.899L74.5764 84.6532H26.2653C24.112 88.8511 19.7416 91.7328 14.6939 91.7328C7.51845 91.7328 1.69763 85.912 1.69763 78.7366C1.69763 71.5611 7.51845 65.7403 14.6939 65.7403C18.8215 65.7403 22.5018 67.67 24.8787 70.673L73.9438 70.558V70.558Z" fill="black"/>
<path d="M314.306 85.0981V75.1304C314.306 70.1466 310.984 66.8241 306 66.8241H268.621C266.129 66.8241 264.468 65.1628 264.468 62.6709C264.468 60.179 266.129 58.5177 268.621 58.5177H306C310.984 58.5177 314.306 55.1952 314.306 50.2114V46.8952C314.306 41.905 310.984 38.5825 306 38.5825H271.113C264.468 38.5825 261.145 41.905 261.145 46.8952V50.2114C261.145 55.1952 257.823 58.5177 252.839 58.5177C247.855 58.5177 244.533 61.8403 244.533 66.8241V76.7917C244.533 81.7755 247.855 85.0981 252.839 85.0981H290.218C292.716 85.0981 294.371 86.7593 294.371 89.2449C294.371 91.7432 292.716 93.4044 290.218 93.4044H252.839C247.855 93.4044 244.533 96.7206 244.533 101.717V105.033C244.533 110.011 247.855 113.346 252.839 113.346H287.726C294.371 113.346 297.693 110.011 297.693 105.033V101.717C297.693 96.7206 301.016 93.4044 306 93.4044C310.984 93.4044 314.306 90.0819 314.306 85.0981" fill="black"/>
<path fill-rule="evenodd" clip-rule="evenodd" d="M385.055 62.6722C385.055 65.1641 383.394 66.8254 380.902 66.8254H359.139C356.648 66.8254 354.986 65.1641 354.986 62.6722C354.986 60.1803 356.648 58.5191 359.139 58.5191H380.902C383.394 58.5191 385.055 60.1803 385.055 62.6722ZM404.824 76.793V66.8254C404.824 61.8416 401.502 58.5191 396.518 58.5191C391.534 58.5191 388.212 55.1965 388.212 50.2127V46.8902C388.212 41.9063 384.889 38.5838 378.244 38.5838H361.631C354.986 38.5838 351.664 41.9063 351.664 46.8902V50.2127C351.664 55.1965 348.341 58.5191 343.357 58.5191C338.374 58.5191 335.051 61.8416 335.051 66.8254V85.0994C335.051 90.0832 338.374 93.4058 343.357 93.4058C348.341 93.4058 351.664 96.7219 351.664 101.712V105.035C351.664 110.012 354.986 113.347 361.631 113.347H391.534C396.518 113.347 399.841 110.012 399.841 105.035V101.712C399.841 96.7219 396.518 93.4058 391.534 93.4058H359.139C356.648 93.4058 354.986 91.7445 354.986 89.2462C354.986 86.7607 356.648 85.0994 359.139 85.0994H396.518C401.502 85.0994 404.824 81.7769 404.824 76.793" fill="black"/>
<path d="M480.43 50.0463V46.7237C480.43 41.7399 477.108 38.4174 472.124 38.4174H455.511C448.866 38.4174 445.544 41.7399 445.544 46.7237V50.0463C445.544 55.0301 442.221 58.3526 437.237 58.3526C432.253 58.3526 428.931 61.6752 428.931 66.659V104.875C428.931 109.852 432.253 113.168 437.237 113.168H440.56C445.544 113.168 448.866 109.852 448.866 104.875V66.659C448.866 61.6752 452.189 58.3526 457.172 58.3526H472.124C477.108 58.3526 480.43 55.0301 480.43 50.0463Z" fill="black"/>
<path d="M565.984 84.9325V46.7233C565.984 41.7394 562.655 38.4169 557.671 38.4169H554.355C549.358 38.4169 546.042 41.7394 546.042 46.7233V84.9325C546.042 89.9163 542.719 93.2389 537.742 93.2389H531.091C526.113 93.2389 522.778 89.9163 522.778 84.9325V46.7233C522.778 41.7394 519.462 38.4169 514.478 38.4169H511.162C506.171 38.4169 502.849 41.7394 502.849 46.7233V84.9325C502.849 89.9163 506.171 93.2389 511.162 93.2389C516.139 93.2389 519.462 97.3984 519.462 101.539V104.874C519.462 109.852 522.778 113.168 527.774 113.168H541.065C546.042 113.168 549.358 109.852 549.358 104.874V101.539C549.358 97.3984 552.694 93.2389 557.671 93.2389C562.655 93.2389 565.984 89.9163 565.984 84.9325Z" fill="black"/>
<path d="M653.203 101.54V46.724C653.203 41.7402 649.88 38.4176 644.903 38.4176H641.574C636.59 38.4176 633.274 41.7402 633.274 46.724V84.9332C633.274 89.917 629.951 93.2396 624.961 93.2396H618.322C613.332 93.2396 610.009 89.917 610.009 84.9332V46.724C610.009 41.7402 606.693 38.4176 601.709 38.4176H598.381C593.403 38.4176 590.081 41.7402 590.081 46.724V84.9332C590.081 89.917 593.403 93.2396 598.381 93.2396C603.371 93.2396 606.693 97.3992 606.693 101.54V104.868C606.693 109.852 610.009 113.168 615 113.168H641.574C647.388 113.168 653.203 107.354 653.203 101.54Z" fill="black"/>
<path d="M752.052 85.0981V75.1304C752.052 70.1466 748.73 66.8241 743.74 66.8241H706.368C703.869 66.8241 702.208 65.1628 702.208 62.6709C702.208 60.179 703.869 58.5177 706.368 58.5177H743.74C748.73 58.5177 752.052 55.1952 752.052 50.2114V46.8952C752.052 41.905 748.73 38.5825 743.74 38.5825H708.859C702.208 38.5825 698.892 41.905 698.892 46.8952V50.2114C698.892 55.1952 695.569 58.5177 690.579 58.5177C685.602 58.5177 682.279 61.8403 682.279 66.8241V76.7917C682.279 81.7755 685.602 85.0981 690.579 85.0981H727.964C730.45 85.0981 732.111 86.7593 732.111 89.2449C732.111 91.7432 730.45 93.4044 727.964 93.4044H690.579C685.602 93.4044 682.279 96.7206 682.279 101.717V105.033C682.279 110.011 685.602 113.346 690.579 113.346H725.472C732.111 113.346 735.44 110.011 735.44 105.033V101.717C735.44 96.7206 738.762 93.4044 743.74 93.4044C748.73 93.4044 752.052 90.0819 752.052 85.0981Z" fill="black"/>
<path d="M802.694 104.872V101.543C802.694 96.3992 799.212 93.2428 794.394 93.2428H789.404C784.427 93.2428 781.104 96.5589 781.104 101.543V104.872C781.104 109.849 784.427 113.172 789.404 113.172H794.394C799.372 113.172 802.694 109.849 802.694 104.872Z" fill="black"/>
<path fill-rule="evenodd" clip-rule="evenodd" d="M876.636 89.2473C876.636 91.7456 874.975 93.4005 872.483 93.4005H845.736C843.238 93.4005 841.583 91.7456 841.583 89.2473C841.583 86.7618 843.238 85.1005 845.736 85.1005H872.483C874.975 85.1005 876.636 86.7618 876.636 89.2473ZM891.587 105.036V66.8266C891.587 61.8427 888.265 58.5202 883.275 58.5202C878.297 58.5202 874.975 55.1913 874.975 50.2138V46.8913C874.975 41.9075 871.658 38.5849 865.007 38.5849H830.127C825.13 38.5849 821.814 41.9075 821.814 46.8913V50.2138C821.814 55.1913 825.13 58.5202 830.127 58.5202H867.499C869.997 58.5202 871.658 60.1815 871.658 62.6734C871.658 65.1653 869.997 66.8266 867.499 66.8266H830.127C825.13 66.8266 821.814 70.1491 821.814 75.1329V85.1005C821.814 90.0844 825.13 93.4005 830.127 93.4005C835.104 93.4005 838.427 96.7231 838.427 101.713V105.036C838.427 110.013 841.743 113.342 848.394 113.342H883.275C888.265 113.342 891.587 110.013 891.587 105.036Z" fill="black"/>
<path d="M958.863 50.38V47.0511C958.863 42.0736 955.54 38.7511 950.563 38.7511H943.912C939.771 38.7511 937.273 36.2592 937.273 32.106V15.4933C937.273 10.5095 933.957 7.18694 928.96 7.18694H925.644C920.66 7.18694 917.344 10.5095 917.344 15.4933V85.0111C917.344 89.9438 920.66 93.2408 925.644 93.2408C931.458 93.2408 933.957 97.394 933.957 101.541V104.87C933.957 109.854 937.273 113.17 942.25 113.17H948.902C953.886 113.17 957.202 109.854 957.202 104.87V101.541C957.202 96.5634 953.886 93.2408 948.902 93.2408H945.573C941.426 93.2408 937.273 90.7681 937.273 86.6596V65.2676C937.273 61.1527 939.771 58.6864 943.912 58.6864H950.563C955.54 58.6864 958.863 55.3638 958.863 50.38Z" fill="black"/>
<path d="M251.11 170.19L252.918 162.018L256.969 158.286L260.209 170.19H266.95L262.266 153.532L272.285 143.609H265.027L254.931 153.877H254.72L259.289 133.29H252.95L244.772 170.19H251.11Z" fill="black"/>
<path fill-rule="evenodd" clip-rule="evenodd" d="M301.792 143.608L297.537 162.776C296.195 163.997 293.748 165.581 290.988 165.581C288.841 165.581 287.966 164.463 288.758 160.892L292.592 143.608H286.253L282.221 161.805C281.02 167.217 282.803 170.699 288.119 170.699C291.237 170.699 294.336 168.968 297.045 167.332L296.412 170.188H302.24L308.131 143.608H301.792Z" fill="black"/>
<path fill-rule="evenodd" clip-rule="evenodd" d="M325.141 170.19L329.397 151.021C330.732 149.801 333.186 148.216 335.946 148.216C338.093 148.216 338.968 149.334 338.176 152.919L334.342 170.19H340.681L344.713 151.992C345.914 146.581 344.131 143.098 338.815 143.098C335.697 143.098 332.598 144.83 329.889 146.466L330.521 143.609H324.694L318.803 170.19H325.141Z" fill="black"/>
<path d="M379.281 147.14C377.581 144.431 374.348 143.096 370.821 143.096C366.22 143.096 361.416 145.856 360.317 150.82C358.266 160.066 371.92 158.437 370.91 162.98C370.514 164.775 368.706 165.996 366.457 165.996C363.748 165.996 362.15 164.213 361.122 162.168L356.176 165.337C357.761 168.807 360.815 170.705 365.058 170.705C370.629 170.705 375.364 168.245 376.591 162.724C378.744 153.018 365.026 154.954 366.029 150.412C366.38 148.827 367.735 147.805 370.188 147.805C372.182 147.805 373.549 149.236 374.52 150.61L379.281 147.14Z" fill="black"/>
<path d="M393.195 143.608L392.064 148.726H395.745L392.231 164.559C391.394 168.355 392.71 170.699 397.412 170.699C399.15 170.699 400.735 170.501 402.511 170.291L403.674 165.07C402.703 165.288 401.61 165.581 400.646 165.581C399.055 165.581 398.435 165.185 398.754 163.748L402.083 148.726H407.297L408.428 143.608H403.214L405.169 134.822H398.824L396.876 143.608H393.195Z" fill="black"/>
<path fill-rule="evenodd" clip-rule="evenodd" d="M450.361 159.657C450.892 157.261 452.348 156.238 454.399 154.801C455.741 157.772 457.549 160.43 460.009 162.724C458.38 164.059 456.438 164.775 454.642 164.775C451.786 164.775 449.761 162.366 450.361 159.657ZM469.511 151.683C468.092 154.142 466.45 156.487 464.488 158.634C462.642 156.59 461.013 154.04 459.62 151.331C463.645 148.622 467.945 145.804 469.012 140.999C470.047 136.36 466.904 132.776 462.048 132.776C456.629 132.776 451.946 136.143 450.789 141.363C449.984 144.993 450.547 147.287 451.939 150.258C447.825 152.654 444.655 155.414 443.646 159.97C442.017 167.33 446.176 170.704 453.077 170.704C456.706 170.704 460.208 169.426 463.294 166.819C466.738 170.187 468.105 170.704 471.632 170.704L472.948 164.775C471.121 164.724 469.555 163.701 468.29 162.264C470.904 159.459 472.923 156.334 474.788 153.216L469.511 151.683ZM456.821 140.897C457.377 138.392 459.383 136.967 460.808 136.967C462.904 136.967 463.594 138.705 463.14 140.75C462.61 143.146 459.939 145.293 457.434 146.878C456.655 145.095 456.348 143.044 456.821 140.897Z" fill="black"/>
<path d="M518.686 170.19L520.494 162.018L524.552 158.286L527.785 170.19H534.532L529.842 153.532L539.861 143.609H532.602L522.507 153.877H522.303L526.871 133.29H520.533L512.348 170.19H518.686Z" fill="black"/>
<path fill-rule="evenodd" clip-rule="evenodd" d="M569.366 143.608L565.123 162.776C563.775 163.997 561.328 165.581 558.574 165.581C556.427 165.581 555.552 164.463 556.338 160.892L560.171 143.608H553.826L549.795 161.805C548.6 167.217 550.383 170.699 555.699 170.699C558.81 170.699 561.903 168.968 564.625 167.332L563.986 170.188H569.813L575.704 143.608H569.366Z" fill="black"/>
<path d="M593.388 170.19L601.56 133.29H595.222L587.05 170.19H593.388Z" fill="black"/>
<path d="M613.842 143.608L612.705 148.726H616.385L612.884 164.559C612.034 168.355 613.357 170.699 618.059 170.699C619.797 170.699 621.382 170.501 623.165 170.291L624.315 165.07C623.35 165.288 622.264 165.581 621.292 165.581C619.708 165.581 619.082 165.185 619.395 163.748L622.73 148.726H627.944L629.081 143.608H623.861L625.81 134.822H619.471L617.523 143.608H613.842Z" fill="black"/>
<path fill-rule="evenodd" clip-rule="evenodd" d="M659.056 143.608L654.813 162.776C653.465 163.997 651.018 165.581 648.264 165.581C646.117 165.581 645.242 164.463 646.027 160.892L649.861 143.608H643.516L639.485 161.805C638.29 167.217 640.072 170.699 645.389 170.699C648.513 170.699 651.606 168.968 654.315 167.332L653.676 170.188H659.503L665.394 143.608H659.056Z" fill="black"/>
<path d="M682.006 170.19L685.59 154.044C685.737 153.366 689.296 149.75 692.465 149.75C692.925 149.75 693.289 149.75 693.59 149.801L695.059 143.098C691.264 143.194 688.721 144.996 686.485 148.165H686.376L687.386 143.609H681.558L675.667 170.19H682.006Z" fill="black"/>
<path fill-rule="evenodd" clip-rule="evenodd" d="M742.706 138.703L744.016 132.774H737.677L736.367 138.703H742.706ZM741.62 143.61H735.281L729.39 170.191H735.728L741.62 143.61V143.61Z" fill="black"/>
<path fill-rule="evenodd" clip-rule="evenodd" d="M759.291 170.19L763.521 151.072C765.304 149.699 767.84 148.216 769.476 148.216C771.757 148.312 772.358 149.488 771.885 151.635L767.776 170.19H774.102L778.345 151.072C780.134 149.699 782.664 148.216 784.3 148.216C786.574 148.312 787.181 149.488 786.709 151.635L782.587 170.19H788.932L793.175 151.072C794.568 144.734 791.149 143.098 788.395 143.098C783.999 143.098 781.067 144.779 778.383 146.977C777.776 144.434 775.463 143.098 772.709 143.098C769.073 143.098 766.869 144.268 763.981 146.466L764.62 143.609H758.844L752.953 170.19H759.291Z" fill="black"/>
<path fill-rule="evenodd" clip-rule="evenodd" d="M837.487 170.19L841.743 151.021C843.091 149.801 845.538 148.216 848.292 148.216C850.439 148.216 851.314 149.334 850.528 152.919L846.695 170.19H853.039L857.065 151.992C858.266 146.581 856.483 143.098 851.167 143.098C848.043 143.098 844.95 144.83 842.241 146.466L842.88 143.609H837.053L831.149 170.19H837.487Z" fill="black"/>
<path fill-rule="evenodd" clip-rule="evenodd" d="M892.659 157.923L893.247 155.316C894.659 148.926 892.072 143.048 885.107 143.099C877.906 143.099 872.366 148.466 870.494 156.9C868.635 165.334 871.778 170.702 878.679 170.702C883.797 170.702 887.739 169.066 891.024 165.283L887.069 162.414C885.069 164.261 883.401 165.584 880.43 165.584C877.471 165.584 875.484 163.437 876.609 157.923H892.659ZM877.561 153.629C878.481 149.948 880.903 147.802 883.976 147.802C887.03 147.802 888.506 149.948 887.791 153.629H877.561Z" fill="black"/>
<path d="M908.421 143.608L907.284 148.726H910.964L907.463 164.559C906.626 168.355 907.935 170.699 912.638 170.699C914.376 170.699 915.961 170.501 917.743 170.291L918.893 165.07C917.929 165.288 916.842 165.581 915.871 165.581C914.287 165.581 913.66 165.185 913.973 163.748L917.309 148.726H922.523L923.66 143.608H918.44L920.388 134.822H914.05L912.101 143.608H908.421Z" fill="black"/>
<path d="M935.689 148.725H947.446L930.859 165.695L929.862 170.187H950.717L951.848 165.076H938.973L955.509 148.111L956.506 143.607H936.826L935.689 148.725Z" fill="black"/>
</svg>
